SplineFontDB: 3.0
FontName: Miama
FullName: Miama
FamilyName: Miama
Weight: Regular
Copyright: Copyright (c) 2008-2010, Linus Romer, with Reserved Font Name Miama.\n\nThis Font Software is licensed under the SIL Open Font License, Version 1.1.
Version: 0.314
ItalicAngle: -28
UnderlinePosition: -80
UnderlineWidth: 48
Ascent: 800
Descent: 200
sfntRevision: 0x00005062
LayerCount: 2
Layer: 0 1 "Back"  1
Layer: 1 1 "Fore"  0
NeedsXUIDChange: 1
XUID: [1021 496 529952750 6761245]
FSType: 0
OS2Version: 3
OS2_WeightWidthSlopeOnly: 0
OS2_UseTypoMetrics: 1
CreationTime: 1252426677
ModificationTime: 1291637096
PfmFamily: 65
TTFWeight: 400
TTFWidth: 5
LineGap: 6
VLineGap: 0
Panose: 3 3 5 2 4 7 0 0 0 3
OS2TypoAscent: 58
OS2TypoAOffset: 1
OS2TypoDescent: -400
OS2TypoDOffset: 1
OS2TypoLinegap: 12
OS2WinAscent: 7
OS2WinAOffset: 1
OS2WinDescent: -100
OS2WinDOffset: 1
HheadAscent: 7
HheadAOffset: 1
HheadDescent: 10
HheadDOffset: 1
OS2SubXSize: 700
OS2SubYSize: 650
OS2SubXOff: 0
OS2SubYOff: 140
OS2SupXSize: 700
OS2SupYSize: 650
OS2SupXOff: 0
OS2SupYOff: 477
OS2StrikeYSize: 50
OS2StrikeYPos: 250
OS2FamilyClass: 2565
OS2Vendor: 'free'
OS2CodePages: 20000193.4d000000
OS2UnicodeRanges: a00000af.5000205b.00000000.00000000
Lookup: 1 0 0 "'subs' Subscript lookup 0"  {"'subs' Subscript lookup 0 subtable" ("inferior" ) } ['subs' ('DFLT' <'dflt' > 'cyrl' <'dflt' > 'grek' <'dflt' > 'latn' <'dflt' > ) ]
Lookup: 6 0 0 "'ss02' Style Set 2 lookup 1"  {"'ss02' Style Set 2 lookup 1 subtable"  } ['ss02' ('DFLT' <'dflt' > 'cyrl' <'dflt' > 'grek' <'dflt' > 'latn' <'dflt' > ) ]
Lookup: 4 0 1 "'liga' Standard Ligatures lookup 2"  {"'liga' Standard Ligatures lookup 2 subtable"  } ['liga' ('DFLT' <'dflt' > 'cyrl' <'dflt' > 'grek' <'dflt' > 'latn' <'dflt' > ) ]
Lookup: 1 0 0 "'onum' Oldstyle Figures lookup 3"  {"'onum' Oldstyle Figures lookup 3 subtable" ("oldstyle" ) } ['onum' ('DFLT' <'dflt' > 'cyrl' <'dflt' > 'grek' <'dflt' > 'latn' <'dflt' > ) ]

StartChar: .notdef
Encoding: 65536 -1 0
Width: 500
Flags: W
HStem: 0 50<100 400> 483 50<100 400>
VStem: 50 50<50 483> 400 50<50 483>
LayerCount: 2
Fore
SplineSet
50 0 m 1,0,-1
 50 533 l 1,1,-1
 450 533 l 1,2,-1
 450 0 l 1,3,-1
 50 0 l 1,0,-1
100 50 m 1,4,-1
 400 50 l 1,5,-1
 400 483 l 1,6,-1
 100 483 l 1,7,-1
 100 50 l 1,4,-1
EndSplineSet
EndChar

StartChar: exclam
Encoding: 33 33 2
Width: 217
GlyphClass: 2
Flags: W
HStem: -4 64<85.2397 128.438> 391 16<315.633 345.068>
VStem: 77 61<5.16821 52.5842>
LayerCount: 2
Fore
SplineSet
344 391 m 0,0,1
 340 392 340 392 338 392 c 0,2,3
 293 392 293 392 192 223 c 0,4,5
 154 158 154 158 141 106 c 0,6,7
 139 99 139 99 130.5 99 c 128,-1,8
 122 99 122 99 122 105 c 128,-1,9
 122 111 122 111 141.5 158 c 0,10,11
 205.77 312.908 205.77 312.908 284 398 c 0,12,13
 293 407 293 407 319.5 407 c 128,-1,14
 346 407 346 407 346 395 c 0,15,16
 346 391 346 391 344 391 c 0,0,1
97 -4 m 0,17,18
 77 -4 77 -4 77 13 c 128,-1,19
 77 30 77 30 90.5 45 c 128,-1,20
 104 60 104 60 121 60 c 128,-1,21
 138 60 138 60 138 42 c 0,22,23
 138 27 138 27 123 11.5 c 128,-1,24
 108 -4 108 -4 97 -4 c 0,17,18
EndSplineSet
EndChar

StartChar: quotedbl
Encoding: 34 34 3
Width: 240
GlyphClass: 2
Flags: W
HStem: 272 187
VStem: 146 186
LayerCount: 2
Fore
SplineSet
212 272 m 0,0,1
 206 272 206 272 206 275.5 c 128,-1,2
 206 279 206 279 218 302 c 2,3,-1
 291 440 l 2,4,5
 292.875 443.75 292.875 443.75 309.438 450.375 c 128,-1,6
 326 457 326 457 328 458 c 128,-1,7
 330 459 330 459 332 459 c 128,-1,8
 334 459 334 459 334 457 c 128,-1,9
 334 455 334 455 325.5 444 c 0,10,11
 293.737 402.895 293.737 402.895 254.368 337.447 c 128,-1,12
 215 272 215 272 212 272 c 0,0,1
152 272 m 0,13,14
 146 272 146 272 146 275.5 c 128,-1,15
 146 279 146 279 158 302 c 2,16,-1
 231 440 l 2,17,18
 232.875 443.75 232.875 443.75 249.438 450.375 c 128,-1,19
 266 457 266 457 268 458 c 128,-1,20
 270 459 270 459 272 459 c 128,-1,21
 274 459 274 459 274 457 c 128,-1,22
 274 455 274 455 265.5 444 c 0,23,24
 233.737 402.895 233.737 402.895 194.368 337.447 c 128,-1,25
 155 272 155 272 152 272 c 0,13,14
EndSplineSet
EndChar

StartChar: numbersign
Encoding: 35 35 4
Width: 291
GlyphClass: 2
Flags: W
HStem: -14 21G<47.5 50.5 140 148.5> 130 32<134.34 137 152 202.708 239 289.165> 267 35<149.035 191.851> 274 39<315.12 368.705> 429 27G<289 300 378.5 390>
VStem: 46 20<-14.3577 10.0312>
LayerCount: 2
Fore
SplineSet
152 162 m 1,0,1
 170 162 170 162 225 167 c 1,2,-1
 282 274 l 1,3,4
 260 274 260 274 208 272 c 1,5,-1
 152 162 l 1,0,1
239 168 m 1,6,7
 279 170 279 170 289.5 170 c 128,-1,8
 300 170 300 170 300 167 c 128,-1,9
 300 164 300 164 297.5 160 c 128,-1,10
 295 156 295 156 294 154 c 0,11,12
 286 131 286 131 258 131 c 1,13,-1
 245 130.5 l 2,14,15
 232 130 232 130 222 130 c 1,16,17
 206 100 206 100 192.5 72 c 2,18,-1
 160.5 5 l 2,19,20
 151 -14 151 -14 146 -14 c 0,21,22
 134 -14 134 -14 134 -6 c 0,23,24
 134 7 134 7 204 130 c 1,25,26
 176 130 176 130 133 125 c 1,27,28
 79 21 79 21 66 -10 c 0,29,30
 65 -11 65 -11 58.5 -13.5 c 128,-1,31
 52 -16 52 -16 49 -16 c 128,-1,32
 46 -16 46 -16 46 -9 c 0,33,34
 46 -8 46 -8 116 123 c 1,35,36
 82 119 82 119 71 119 c 128,-1,37
 60 119 60 119 60 121.5 c 128,-1,38
 60 124 60 124 63.5 131.5 c 0,39,40
 73.5882 153.118 73.5882 153.118 92.2941 157.059 c 128,-1,41
 111 161 111 161 137 161 c 1,42,-1
 193 271 l 1,43,44
 156 268 156 268 148.5 267 c 128,-1,45
 141 266 141 266 141 269 c 0,46,47
 141 295 141 295 209 302 c 1,48,49
 285 448 285 448 293 449 c 1,50,51
 307 449 307 449 307 442 c 0,52,53
 307 440 307 440 302 434.5 c 128,-1,54
 297 429 297 429 275.5 395 c 128,-1,55
 254 361 254 361 224 303 c 1,56,-1
 265 306 l 2,57,58
 292 308 292 308 300 309 c 1,59,60
 374 456 374 456 383 456 c 0,61,62
 397 456 397 456 397 453 c 128,-1,63
 397 450 397 450 395 446 c 0,64,65
 354 388 354 388 314 310 c 1,66,67
 350 313 350 313 365.5 313 c 128,-1,68
 381 313 381 313 381 310.5 c 128,-1,69
 381 308 381 308 379 306 c 128,-1,70
 377 304 377 304 374.5 301 c 128,-1,71
 372 298 372 298 363.5 286 c 128,-1,72
 355 274 355 274 351 274 c 2,73,-1
 295 274 l 1,74,-1
 239 168 l 1,6,7
EndSplineSet
EndChar

StartChar: dollar
Encoding: 36 36 5
Width: 380
GlyphClass: 2
Flags: W
HStem: -17 21<129.537 131 161.497 209.625> 421 22<313.813 357.842 368.479 374.73>
VStem: 38 36<40.8125 97.5> 209 35<292.925 370.527> 312 41<80.6929 175.396> 415 35<379.904 402.477>
LayerCount: 2
Fore
SplineSet
267 212 m 1,0,-1
 161 6 l 1,1,2
 177 4 177 4 182 4 c 0,3,4
 240 4 240 4 276 40.5 c 128,-1,5
 312 77 312 77 312 115 c 128,-1,6
 312 153 312 153 267 212 c 1,0,-1
279 268 m 1,7,-1
 358 420 l 1,8,9
 353 421 353 421 341 421 c 0,10,11
 296 421 296 421 270 396 c 128,-1,12
 244 371 244 371 244 341.5 c 128,-1,13
 244 312 244 312 279 268 c 1,7,-1
411 517 m 0,14,15
 419 516 419 516 421 516 c 128,-1,16
 423 516 423 516 423 514 c 128,-1,17
 423 512 423 512 386 442 c 1,18,19
 407 439 407 439 423 428 c 0,20,21
 450 409.438 450 409.438 450 395 c 0,22,23
 450 391.846 450 391.846 440 384.923 c 2,24,-1
 427 376 l 2,25,26
 419 370 419 370 417 370 c 128,-1,27
 415 370 415 370 415 378 c 128,-1,28
 415 386 415 386 403 398 c 128,-1,29
 391 410 391 410 372 416 c 1,30,-1
 289 256 l 1,31,32
 337.382 199.554 337.382 199.554 345.191 178.499 c 128,-1,33
 353 157.444 353 157.444 353 143 c 0,34,35
 353 83 353 83 286 33.5 c 128,-1,36
 219 -16 219 -16 150 -17 c 1,37,-1
 98 -113 l 2,38,39
 95 -119 95 -119 83 -127 c 128,-1,40
 71 -135 71 -135 67.5 -135 c 128,-1,41
 64 -135 64 -135 64 -133 c 2,42,-1
 131 -16 l 1,43,44
 84 -11 84 -11 61 14.5 c 128,-1,45
 38 40 38 40 38 68 c 0,46,47
 38 71 38 71 47.5 80.5 c 128,-1,48
 57 90 57 90 64 98.5 c 2,49,-1
 75 112 l 2,50,51
 79 117 79 117 81 117 c 128,-1,52
 83 117 83 117 83 115 c 1,53,54
 74 100 74 100 74 95 c 0,55,56
 74 30 74 30 144 9 c 1,57,-1
 256 225 l 1,58,59
 209 286 209 286 209 319 c 0,60,61
 209 368 209 368 262 405 c 128,-1,62
 315 442 315 442 370 443 c 1,63,64
 409 517 409 517 411 517 c 0,14,15
EndSplineSet
EndChar

StartChar: percent
Encoding: 37 37 6
Width: 443
GlyphClass: 2
Flags: W
HStem: -12 18<292.143 345.548> 152 18<320.035 374.732> 261 18<210.143 263.548> 425 18<238.035 292.732>
VStem: 152 28<300.968 372.783> 234 28<27.9681 99.7833> 322 28<331.217 403.682> 404 28<58.2167 130.682>
LayerCount: 2
Fore
SplineSet
201.5 396.5 m 128,-1,1
 180 368 180 368 180 340.5 c 128,-1,2
 180 313 180 313 198.5 296 c 128,-1,3
 217 279 217 279 248.5 279 c 128,-1,4
 280 279 280 279 301 307.5 c 128,-1,5
 322 336 322 336 322 363.5 c 128,-1,6
 322 391 322 391 304 408 c 128,-1,7
 286 425 286 425 254.5 425 c 128,-1,0
 223 425 223 425 201.5 396.5 c 128,-1,1
152 325 m 0,8,9
 152 370 152 370 195.5 406.5 c 128,-1,10
 239 443 239 443 275.5 443 c 128,-1,11
 312 443 312 443 331 425 c 128,-1,12
 350 407 350 407 350 379 c 0,13,14
 350 334 350 334 306.5 297.5 c 128,-1,15
 263 261 263 261 226.5 261 c 128,-1,16
 190 261 190 261 171 279 c 128,-1,17
 152 297 152 297 152 325 c 0,8,9
462 327 m 2,18,19
 478 337 478 337 482.5 332.5 c 128,-1,20
 487 328 487 328 470 319 c 1,21,-1
 135 113 l 2,22,23
 118 103 118 103 114 107 c 128,-1,24
 110 111 110 111 127 121 c 2,25,-1
 462 327 l 2,18,19
283.5 123.5 m 128,-1,27
 262 95 262 95 262 67.5 c 128,-1,28
 262 40 262 40 280.5 23 c 128,-1,29
 299 6 299 6 330.5 6 c 128,-1,30
 362 6 362 6 383 34.5 c 128,-1,31
 404 63 404 63 404 90.5 c 128,-1,32
 404 118 404 118 386 135 c 128,-1,33
 368 152 368 152 336.5 152 c 128,-1,26
 305 152 305 152 283.5 123.5 c 128,-1,27
234 52 m 0,34,35
 234 97 234 97 277.5 133.5 c 128,-1,36
 321 170 321 170 357.5 170 c 128,-1,37
 394 170 394 170 413 152 c 128,-1,38
 432 134 432 134 432 106 c 0,39,40
 432 61 432 61 388.5 24.5 c 128,-1,41
 345 -12 345 -12 308.5 -12 c 128,-1,42
 272 -12 272 -12 253 6 c 128,-1,43
 234 24 234 24 234 52 c 0,34,35
EndSplineSet
EndChar

StartChar: ampersand
Encoding: 38 38 7
Width: 508
GlyphClass: 2
Flags: W
HStem: -15 22<199.338 287.126> 104 14<487.088 526.904> 192 5<301.069 325.329> 243 10<276.273 305.386> 283 20<251.148 304.499> 422 20<297.849 370.081>
VStem: 76 36<73.5521 192.244> 220 13<301.868 361.158> 259 28<142.009 183.949> 308 25<253.371 277.862>
LayerCount: 2
Fore
SplineSet
251 283 m 1,0,1
 274 253 274 253 291 253 c 128,-1,2
 308 253 308 253 308 266 c 0,3,4
 308 283 308 283 251 283 c 1,0,1
424 157.5 m 128,-1,6
 490 118 490 118 512.875 118 c 128,-1,7
 535.75 118 535.75 118 556 145 c 1,8,9
 558 145 558 145 558 142.5 c 128,-1,10
 558 140 558 140 548 130 c 0,11,12
 525 104 525 104 507 104 c 0,13,14
 473 104 473 104 428 128 c 1,15,16
 412 81 412 81 352 33 c 128,-1,17
 292 -15 292 -15 228 -15 c 128,-1,18
 164 -15 164 -15 120 22.5 c 128,-1,19
 76 60 76 60 76 121 c 128,-1,20
 76 182 76 182 119.5 227.5 c 128,-1,21
 163 273 163 273 224 293 c 1,22,23
 220 304 220 304 220 322 c 0,24,25
 220 376 220 376 261 409 c 128,-1,26
 302 442 302 442 340 442 c 128,-1,27
 378 442 378 442 405.5 428.5 c 128,-1,28
 433 415 433 415 433 395 c 1,29,-1
 423 377 l 2,30,31
 414 361 414 361 412.5 361 c 128,-1,32
 411 361 411 361 411 363 c 0,33,34
 411 387 411 387 384 404.5 c 128,-1,35
 357 422 357 422 321.5 422 c 128,-1,36
 286 422 286 422 259.5 397 c 128,-1,37
 233 372 233 372 233 333 c 0,38,39
 233 316 233 316 241 298 c 1,40,41
 269 303 269 303 287 303 c 128,-1,42
 305 303 305 303 319 295.5 c 128,-1,43
 333 288 333 288 333 274 c 128,-1,44
 333 260 333 260 319.5 251.5 c 128,-1,45
 306 243 306 243 288 243 c 128,-1,46
 270 243 270 243 253.5 254 c 128,-1,47
 237 265 237 265 229 281 c 1,48,49
 169 271 169 271 140.5 229 c 128,-1,50
 112 187 112 187 112 134.5 c 128,-1,51
 112 82 112 82 155.5 44.5 c 128,-1,52
 199 7 199 7 257.5 7 c 128,-1,53
 316 7 316 7 354 47.5 c 128,-1,54
 392 88 392 88 401 143 c 1,55,56
 391 149 391 149 371 164 c 0,57,58
 333.667 192 333.667 192 311 192 c 0,59,60
 301 192 301 192 294 184 c 128,-1,61
 287 176 287 176 287 165 c 128,-1,62
 287 154 287 154 298.5 144 c 128,-1,63
 310 134 310 134 310 132 c 128,-1,64
 310 130 310 130 296 130 c 2,65,-1
 292 130 l 2,66,67
 259 130 259 130 259 161 c 0,68,69
 259 176 259 176 276.5 186.5 c 128,-1,70
 294 197 294 197 317 197 c 0,71,5
 358 197 358 197 424 157.5 c 128,-1,6
EndSplineSet
EndChar

StartChar: quotesingle
Encoding: 39 39 8
Width: 180
GlyphClass: 2
Flags: W
HStem: 272 187
VStem: 146 128
LayerCount: 2
Fore
SplineSet
152 272 m 0,0,1
 146 272 146 272 146 275.5 c 128,-1,2
 146 279 146 279 158 302 c 2,3,-1
 231 440 l 2,4,5
 232.875 443.75 232.875 443.75 249.438 450.375 c 128,-1,6
 266 457 266 457 268 458 c 128,-1,7
 270 459 270 459 272 459 c 128,-1,8
 274 459 274 459 274 457 c 128,-1,9
 274 455 274 455 265.5 444 c 0,10,11
 233.737 402.895 233.737 402.895 194.368 337.447 c 128,-1,12
 155 272 155 272 152 272 c 0,0,1
EndSplineSet
EndChar

StartChar: parenleft
Encoding: 40 40 9
Width: 241
GlyphClass: 2
Flags: W
HStem: -71 21G<168.75 172.25>
VStem: 91 35<-23.0773 130.172>
LayerCount: 2
Fore
SplineSet
163 -69 m 0,0,1
 91 -40 91 -40 91 50 c 0,2,3
 91 134.548 91 134.548 162.5 256 c 0,4,5
 199 318 199 318 267.5 383 c 128,-1,6
 336 448 336 448 425 498 c 0,7,8
 443 507 443 507 446 507 c 128,-1,9
 449 507 449 507 449 504.5 c 128,-1,10
 449 502 449 502 442 498 c 0,11,12
 356 448 356 448 291 380 c 128,-1,13
 226 312 226 312 192 246.5 c 0,14,15
 126 119.353 126 119.353 126 32 c 0,16,17
 126 -1 126 -1 136 -24 c 128,-1,18
 146 -47 146 -47 151.5 -50.5 c 2,19,20
 168 -61 l 2,21,22
 174 -65 174 -65 174 -68 c 128,-1,23
 174 -71 174 -71 170.5 -71 c 128,-1,24
 167 -71 167 -71 163 -69 c 0,0,1
EndSplineSet
Substitution2: "'subs' Subscript lookup 0 subtable" uni208D
EndChar

StartChar: parenright
Encoding: 41 41 10
Width: 242
GlyphClass: 2
Flags: W
HStem: -71 21G<-34.5 -31.5>
VStem: 287 35<305.828 459.077>
LayerCount: 2
Fore
SplineSet
250 505 m 0,0,1
 322 476 322 476 322 386 c 0,2,3
 322 301.452 322 301.452 250.5 180 c 0,4,5
 214 118 214 118 145.5 53 c 128,-1,6
 77 -12 77 -12 -12 -62 c 0,7,8
 -30 -71 -30 -71 -33 -71 c 128,-1,9
 -36 -71 -36 -71 -36 -68.5 c 128,-1,10
 -36 -66 -36 -66 -29 -62 c 0,11,12
 57 -12 57 -12 122 56 c 128,-1,13
 187 124 187 124 221 189.5 c 0,14,15
 287 316.647 287 316.647 287 404 c 0,16,17
 287 437 287 437 277 460 c 128,-1,18
 267 483 267 483 261.5 486.5 c 2,19,20
 245 497 l 2,21,22
 239 501 239 501 239 504 c 128,-1,23
 239 507 239 507 242.5 507 c 128,-1,24
 246 507 246 507 250 505 c 0,0,1
EndSplineSet
Substitution2: "'subs' Subscript lookup 0 subtable" uni208E
EndChar

StartChar: asterisk
Encoding: 42 42 11
Width: 215
GlyphClass: 2
Flags: W
HStem: 223 12<258 261.999> 228 29<165.412 181.875> 322 18<252 343.307> 324 23<133.001 160> 402 36<169.731 185.858>
VStem: 108 25<312.797 333> 159 6<258.595 279 323 323 344 359.997> 262 38<229.252 272.736>
LayerCount: 2
Fore
SplineSet
159 293 m 1,0,-1
 160 323 l 1,1,2
 142 324 142 324 137.5 324 c 128,-1,3
 133 324 133 324 133 321 c 0,4,5
 133 312 133 312 159 293 c 1,0,-1
218 322 m 1,6,-1
 165 323 l 1,7,-1
 165 290 l 1,8,9
 170.5 284.5 170.5 284.5 177.25 280.75 c 128,-1,10
 184 277 184 277 186 275 c 1,11,12
 204 299 204 299 218 322 c 1,6,-1
225 312 m 1,13,14
 210 288 210 288 199 266 c 1,15,16
 243 235 243 235 259 235 c 0,17,18
 262 235 262 235 262 241 c 128,-1,19
 262 247 262 247 256 259 c 128,-1,20
 250 271 250 271 239.5 288 c 128,-1,21
 229 305 229 305 225 312 c 1,13,14
213 340 m 1,22,23
 176 402 176 402 173 402 c 128,-1,24
 170 402 170 402 167 343 c 1,25,-1
 213 340 l 1,22,23
135 347 m 1,26,-1
 161 344 l 1,27,28
 161 396.333 161 396.333 164.5 409.167 c 128,-1,29
 168 422 168 422 170 427.5 c 0,30,31
 173.818 438 173.818 438 180.909 438 c 128,-1,32
 188 438 188 438 193 431 c 128,-1,33
 198 424 198 424 211 398.5 c 128,-1,34
 224 373 224 373 236 353 c 1,35,36
 247 371 247 371 258 393.5 c 0,37,38
 277.311 433 277.311 433 284 433 c 0,39,40
 287 433 287 433 291 425.5 c 128,-1,41
 295 418 295 418 295 414 c 1,42,-1
 246 340 l 1,43,-1
 339 340 l 2,44,45
 345 340 345 340 345 336 c 128,-1,46
 345 332 345 332 340 326.5 c 128,-1,47
 335 321 335 321 331 321 c 2,48,-1
 311 322 l 1,49,-1
 252 322 l 1,50,51
 286 264 286 264 293 253.5 c 128,-1,52
 300 243 300 243 300 241 c 0,53,54
 300 231 300 231 280 223 c 1,55,56
 258 223 258 223 196 260 c 1,57,-1
 182 233.5 l 2,58,59
 179 228 179 228 176 228 c 0,60,61
 157 228 157 228 157 264 c 1,62,-1
 158 285 l 1,63,64
 108 318 108 318 108 330 c 0,65,66
 108 336 108 336 115.5 341.5 c 128,-1,67
 123 347 123 347 135 347 c 1,26,-1
182 270 m 1,68,69
 177 275 177 275 165 281 c 1,70,71
 165 257 165 257 169.5 257 c 128,-1,72
 174 257 174 257 182 270 c 1,68,69
EndSplineSet
EndChar

StartChar: plus
Encoding: 43 43 12
Width: 336
GlyphClass: 2
Flags: W
HStem: 38 6<77.856 108.369> 246 21G<132.75 134.25> 273 17<188.789 251.5>
VStem: 56 7<57.9644 87.7605> 237 35<192.87 271.551>
LayerCount: 2
Fore
SplineSet
201 149 m 1,0,1
 147 145 147 145 105 123.5 c 128,-1,2
 63 102 63 102 63 71 c 0,3,4
 63 60 63 60 71 52 c 128,-1,5
 79 44 79 44 91 44 c 0,6,7
 120 44 120 44 150.5 77.5 c 128,-1,8
 181 111 181 111 201 149 c 1,0,1
272 261 m 0,9,10
 272 226 272 226 245 172 c 1,11,12
 361 178.824 361 178.824 361 177 c 0,13,14
 361 171 361 171 350 165 c 2,15,-1
 328 153 l 1,16,17
 276 153 276 153 234 151 c 1,18,19
 211 106 211 106 181 79 c 128,-1,20
 151 52 151 52 130.5 45 c 128,-1,21
 110 38 110 38 92.5 38 c 128,-1,22
 75 38 75 38 65.5 47 c 128,-1,23
 56 56 56 56 56 68 c 0,24,25
 56 102 56 102 94.5 132 c 128,-1,26
 133 162 133 162 211 170 c 1,27,28
 237 226 237 226 237 242 c 0,29,30
 237 273 237 273 209 273 c 0,31,32
 171.643 273 171.643 273 144.5 253 c 0,33,34
 135 246 135 246 133.5 246 c 128,-1,35
 132 246 132 246 132 248.5 c 128,-1,36
 132 251 132 251 145.5 261 c 128,-1,37
 159 271 159 271 185.5 280.5 c 128,-1,38
 212 290 212 290 231 290 c 0,39,40
 272 290 272 290 272 261 c 0,9,10
EndSplineSet
EndChar

StartChar: comma
Encoding: 44 44 13
Width: 160
GlyphClass: 2
Flags: W
HStem: -134 176
VStem: 63 37<-51.2734 34.1535>
LayerCount: 2
Fore
SplineSet
80 42 m 0,0,1
 100 42 100 42 100 5.5 c 128,-1,2
 100 -31 100 -31 73 -63.5 c 128,-1,3
 46 -96 46 -96 20 -115 c 128,-1,4
 -6 -134 -6 -134 -10 -134 c 128,-1,5
 -14 -134 -14 -134 -14 -132.5 c 128,-1,6
 -14 -131 -14 -131 5 -116 c 0,7,8
 63 -72 63 -72 63 -28 c 0,9,10
 63 -12 63 -12 57.5 5.5 c 128,-1,11
 52 23 52 23 52 26.5 c 128,-1,12
 52 30 52 30 64 36 c 128,-1,13
 76 42 76 42 80 42 c 0,0,1
EndSplineSet
EndChar

StartChar: hyphen
Encoding: 45 45 14
Width: 268
GlyphClass: 2
Flags: W
HStem: 151 26<91.8555 283.391>
VStem: 86 200
LayerCount: 2
Fore
SplineSet
100 177 m 2,0,-1
 240 175 l 1,1,-1
 286 176 l 2,2,3
 288 176 288 176 288 175 c 2,4,-1
 283 163 l 2,5,6
 281.854 160.326 281.854 160.326 280.354 154.663 c 128,-1,7
 278.854 149 278.854 149 277 149 c 2,8,-1
 159 153 l 1,9,-1
 86 151 l 2,10,11
 84 151 84 151 84 152 c 128,-1,12
 84 153 84 153 85.5 155 c 0,13,14
 91.1 162.2 91.1 162.2 95.05 169.6 c 128,-1,15
 99 177 99 177 100 177 c 2,0,-1
EndSplineSet
EndChar

StartChar: period
Encoding: 46 46 15
Width: 160
GlyphClass: 2
Flags: W
HStem: -4 64<64.2397 107.438>
VStem: 56 61<5.16821 52.5842>
LayerCount: 2
Fore
SplineSet
76 -4 m 0,0,1
 56 -4 56 -4 56 13 c 128,-1,2
 56 30 56 30 69.5 45 c 128,-1,3
 83 60 83 60 100 60 c 128,-1,4
 117 60 117 60 117 42 c 0,5,6
 117 27 117 27 102 11.5 c 128,-1,7
 87 -4 87 -4 76 -4 c 0,0,1
EndSplineSet
EndChar

StartChar: slash
Encoding: 47 47 16
Width: 261
GlyphClass: 2
Flags: W
HStem: -35 21G<46 48.5>
VStem: 47 326
LayerCount: 2
Fore
SplineSet
346 528 m 2,0,1
 348 532 348 532 358.5 537.5 c 128,-1,2
 369 543 369 543 373 543 c 1,3,-1
 374 542 l 2,4,5
 374 541 374 541 373 540 c 2,6,-1
 73 -20 l 2,7,8
 72 -23 72 -23 61 -29 c 128,-1,9
 50 -35 50 -35 47 -35 c 1,10,-1
 46 -34 l 1,11,12
 46 -32.5 46 -32.5 49 -28 c 2,13,-1
 346 528 l 2,0,1
EndSplineSet
EndChar

StartChar: zero
Encoding: 48 48 17
Width: 363
GlyphClass: 2
Flags: W
HStem: -12 23<105.5 196.095> 420 23<325.508 396.624>
VStem: 74 44<30.8052 182.531> 405 38<259.953 397.433>
LayerCount: 2
Fore
SplineSet
155 229.5 m 128,-1,1
 118 152 118 152 118 105 c 128,-1,2
 118 58 118 58 132.5 34.5 c 128,-1,3
 147 11 147 11 172 11 c 0,4,5
 218 11 218 11 273.5 65 c 128,-1,6
 329 119 329 119 367 195.5 c 128,-1,7
 405 272 405 272 405 333 c 0,8,9
 405 368 405 368 391 394 c 128,-1,10
 377 420 377 420 345 420 c 0,11,12
 301 420 301 420 246.5 363.5 c 128,-1,0
 192 307 192 307 155 229.5 c 128,-1,1
379 443 m 0,13,14
 414 443 414 443 428.5 416.5 c 128,-1,15
 443 390 443 390 443 353 c 0,16,17
 443 287 443 287 398 201.5 c 128,-1,18
 353 116 353 116 280 52 c 128,-1,19
 207 -12 207 -12 137 -12 c 0,20,21
 74 -12 74 -12 74 73 c 128,-1,22
 74 158 74 158 127.5 246 c 128,-1,23
 181 334 181 334 252.5 388.5 c 128,-1,24
 324 443 324 443 379 443 c 0,13,14
EndSplineSet
Substitution2: "'onum' Oldstyle Figures lookup 3 subtable" uniE000
Substitution2: "'subs' Subscript lookup 0 subtable" uni2080
EndChar

StartChar: one
Encoding: 49 49 18
Width: 270
GlyphClass: 2
Flags: W
HStem: -23 21G<107.75 111.25> 423 20G<397.5 404.5>
LayerCount: 2
Fore
SplineSet
308 337 m 1,0,-1
 261 297 l 1,1,2
 161 214 161 214 74 163 c 0,3,4
 60.0856 154.303 60.0856 154.303 52.3725 156.014 c 0,5,6
 49.7885 156.587 49.7885 156.587 54.1336 159.344 c 128,-1,7
 58.4787 162.101 58.4787 162.101 60 163 c 0,8,9
 145.368 214.013 145.368 214.013 257.5 307 c 1,10,-1
 295.5 339.5 l 2,11,12
 313 355 313 355 319 361 c 128,-1,13
 325 367 325 367 337.5 393 c 128,-1,14
 350 419 350 419 362 426 c 0,15,16
 394 443 394 443 401 443 c 128,-1,17
 408 443 408 443 408 434 c 0,18,19
 408 413 408 413 364 375 c 1,20,21
 247 167 247 167 183 26 c 0,22,23
 181 22 181 22 179 16 c 128,-1,24
 177 10 177 10 175.5 6.5 c 128,-1,25
 174 3 174 3 172.5 0 c 0,26,27
 169 -7 169 -7 157.5 -8 c 128,-1,28
 146 -9 146 -9 134 -13 c 128,-1,29
 122 -17 122 -17 117.5 -20 c 128,-1,30
 113 -23 113 -23 109.5 -23 c 128,-1,31
 106 -23 106 -23 106 -20.5 c 128,-1,32
 106 -18 106 -18 112.5 -6.5 c 128,-1,33
 119 5 119 5 131.5 25.5 c 2,34,-1
 154 63 l 1,35,-1
 308 337 l 1,0,-1
EndSplineSet
Substitution2: "'onum' Oldstyle Figures lookup 3 subtable" uniE001
Substitution2: "'subs' Subscript lookup 0 subtable" uni2081
EndChar

StartChar: two
Encoding: 50 50 19
Width: 325
GlyphClass: 2
Flags: W
HStem: -58 24<252.196 341.078> -15 21G<-30.25 -24.75> 29 24<37.1243 92.5586> 426 17<260.818 318.927>
VStem: 347 48<309.415 410.283>
LayerCount: 2
Fore
SplineSet
312 443 m 0,0,1
 350 443 350 443 372.5 423 c 128,-1,2
 395 403 395 403 395 374 c 128,-1,3
 395 345 395 345 378 316.5 c 128,-1,4
 361 288 361 288 318 249.5 c 128,-1,5
 275 211 275 211 236 180.5 c 2,6,7
 64 51 l 1,8,9
 71 53 71 53 77 53 c 0,10,11
 117 53 117 53 179 16.5 c 128,-1,12
 241 -20 241 -20 266 -27 c 128,-1,13
 291 -34 291 -34 325 -34 c 128,-1,14
 359 -34 359 -34 377.614 -25.1928 c 0,15,16
 404.891 -12.2872 404.891 -12.2872 396.945 -18.6436 c 128,-1,17
 389 -25 389 -25 371 -34 c 0,18,19
 318 -58 318 -58 283 -58 c 128,-1,20
 248 -58 248 -58 226 -51.5 c 128,-1,21
 204 -45 204 -45 142 -8 c 128,-1,22
 80 29 80 29 42 29 c 0,23,24
 40 29 40 29 32 27 c 1,25,26
 -7 -4 -7 -4 -14.5 -9.5 c 128,-1,27
 -22 -15 -22 -15 -27.5 -15 c 128,-1,28
 -33 -15 -33 -15 -33 -12 c 128,-1,29
 -33 -9 -33 -9 -16 5.5 c 0,30,31
 193.728 179.516 193.728 179.516 221.364 203.758 c 128,-1,32
 249 228 249 228 282 260 c 0,33,34
 347 323.03 347 323.03 347 366 c 0,35,36
 347 390 347 390 330.5 408 c 128,-1,37
 314 426 314 426 290 426 c 0,38,39
 241 426 241 426 206 391 c 0,40,41
 196 381 196 381 194 381 c 128,-1,42
 192 381 192 381 192 384 c 128,-1,43
 192 387 192 387 203 398 c 0,44,45
 247 443 247 443 312 443 c 0,0,1
EndSplineSet
Substitution2: "'onum' Oldstyle Figures lookup 3 subtable" uniE002
Substitution2: "'subs' Subscript lookup 0 subtable" uni2082
EndChar

StartChar: three
Encoding: 51 51 20
Width: 310
GlyphClass: 2
Flags: W
HStem: -13 24<84.1943 173.611> 230 21G<177.75 181.25> 424 24<273.124 335.685>
VStem: 5 35<37.6731 63> 297 39<109.751 208.696> 355 40<337.896 412.959>
LayerCount: 2
Fore
SplineSet
50 78 m 1,0,1
 40 66 40 66 40 60 c 128,-1,2
 40 54 40 54 51 43 c 128,-1,3
 62 32 62 32 87.5 21.5 c 128,-1,4
 113 11 113 11 145 11 c 0,5,6
 205 11 205 11 251 56.5 c 128,-1,7
 297 102 297 102 297 156 c 0,8,9
 297 192 297 192 272.5 214 c 128,-1,10
 248 236 248 236 210 236 c 0,11,12
 200 236 200 236 191.5 233 c 128,-1,13
 183 230 183 230 179.5 230 c 128,-1,14
 176 230 176 230 176 233.5 c 128,-1,15
 176 237 176 237 189.5 244.5 c 128,-1,16
 203 252 203 252 213.5 254.5 c 128,-1,17
 224 257 224 257 256 270.5 c 128,-1,18
 288 284 288 284 305 294 c 0,19,20
 355 323 355 323 355 369 c 0,21,22
 355 424 355 424 291 424 c 0,23,24
 262 424 262 424 244 405.5 c 128,-1,25
 226 387 226 387 209 387 c 0,26,27
 207 387 207 387 207 389.5 c 128,-1,28
 207 392 207 392 223 406 c 128,-1,29
 239 420 239 420 268.5 434 c 128,-1,30
 298 448 298 448 325 448 c 0,31,32
 395 448 395 448 395 391 c 128,-1,33
 395 334 395 334 310 285 c 0,34,35
 284 271 284 271 258 259 c 1,36,37
 293 256 293 256 314.5 231.5 c 128,-1,38
 336 207 336 207 336 178 c 0,39,40
 336 106 336 106 258 46.5 c 128,-1,41
 180 -13 180 -13 111 -13 c 0,42,43
 68 -13 68 -13 36.5 3.5 c 128,-1,44
 5 20 5 20 5 39 c 0,45,46
 5 45 5 45 11 50 c 0,47,48
 35.5417 70.5834 35.5417 70.5834 47 81 c 1,49,50
 50 81 50 81 50 78 c 1,0,1
EndSplineSet
Substitution2: "'onum' Oldstyle Figures lookup 3 subtable" uniE003
Substitution2: "'subs' Subscript lookup 0 subtable" uni2083
EndChar

StartChar: four
Encoding: 52 52 21
Width: 338
GlyphClass: 2
Flags: W
HStem: -23 21G<157.75 161.25> 200 21<146.55 286.359> 238 20G<424.5 427> 426 20G<326 329 450.019 454.673>
VStem: 88 42<229.773 272.635>
LayerCount: 2
Fore
SplineSet
425 258 m 2,0,-1
 427 257 l 1,1,2
 427 255 427 255 416.5 248 c 0,3,4
 388 229 388 229 326 217 c 1,5,6
 235.333 47 235.333 47 225 16 c 0,7,8
 217.333 -7.00002 217.333 -7.00002 210 -7 c 1,9,10
 177.13 -11.6957 177.13 -11.6957 170.065 -17.3478 c 128,-1,11
 163 -23 163 -23 159.5 -23 c 128,-1,12
 156 -23 156 -23 156 -20.5 c 128,-1,13
 156 -18 156 -18 163 -6.5 c 2,14,-1
 205 63 l 1,15,-1
 288 210 l 1,16,17
 226 200 226 200 157 200 c 128,-1,18
 88 200 88 200 88 231 c 0,19,20
 88 256 88 256 124 288 c 0,21,22
 142 304 142 304 159 317.5 c 2,23,-1
 203 351 l 1,24,25
 264.078 396.243 264.078 396.243 288 427 c 0,26,27
 290 430 290 430 307 438 c 128,-1,28
 324 446 324 446 328 446 c 1,29,-1
 329 445 l 1,30,31
 329 438 329 438 286 402 c 1,32,-1
 174 312 l 2,33,34
 158 299 158 299 144 282 c 128,-1,35
 130 265 130 265 130 253 c 0,36,37
 130 221 130 221 216 221 c 0,38,39
 252 221 252 221 298 228 c 1,40,-1
 388 386 l 2,41,42
 403 412 403 412 411.5 417.5 c 128,-1,43
 420 423 420 423 429 429.5 c 0,44,45
 447.692 443 447.692 443 452.346 443 c 128,-1,46
 457 443 457 443 457 440.5 c 128,-1,47
 457 438 457 438 453.5 434.5 c 2,48,-1
 444.5 425.5 l 2,49,50
 439 420 439 420 426 399.5 c 128,-1,51
 413 379 413 379 335 235 c 1,52,-1
 379 245.5 l 2,53,54
 401 251 401 251 412.5 254.5 c 128,-1,55
 424 258 424 258 425 258 c 2,0,-1
EndSplineSet
Substitution2: "'onum' Oldstyle Figures lookup 3 subtable" uniE004
Substitution2: "'subs' Subscript lookup 0 subtable" uni2084
EndChar

StartChar: five
Encoding: 53 53 22
Width: 310
GlyphClass: 2
Flags: W
HStem: -21 22<61.2507 152.475> 241 24<187.825 260.076> 384 32<244.324 411.404>
VStem: -1 39<15.2583 61.7809> 300 39<105.669 211.824>
LayerCount: 2
Fore
SplineSet
77 -21 m 0,0,1
 48 -21 48 -21 23.5 -10.5 c 128,-1,2
 -1 0 -1 0 -1 20 c 128,-1,3
 -1 40 -1 40 9 52 c 128,-1,4
 19 64 19 64 38.5 79 c 128,-1,5
 58 94 58 94 62.5 98.5 c 128,-1,6
 67 103 67 103 69 103 c 2,7,-1
 71 102 l 1,8,9
 71 99 71 99 62.5 93 c 128,-1,10
 54 87 54 87 46 75.5 c 128,-1,11
 38 64 38 64 38 47 c 128,-1,12
 38 30 38 30 56 15.5 c 128,-1,13
 74 1 74 1 112 1 c 0,14,15
 187 1 187 1 243.5 45.5 c 128,-1,16
 300 90 300 90 300 155 c 0,17,18
 300 194 300 194 275.5 217.5 c 128,-1,19
 251 241 251 241 215.5 241 c 128,-1,20
 180 241 180 241 152 227 c 2,21,-1
 142.5 222 l 2,22,23
 135 218 135 218 131 218 c 128,-1,24
 127 218 127 218 127 220.5 c 128,-1,25
 127 223 127 223 143 245.5 c 128,-1,26
 159 268 159 268 186 316 c 128,-1,27
 213 364 213 364 233 418 c 0,28,29
 237 429 237 429 245 429 c 128,-1,30
 253 429 253 429 257.5 427 c 2,31,-1
 268 422.5 l 2,32,33
 283.6 416 283.6 416 346.8 416 c 128,-1,34
 410 416 410 416 452 433 c 0,35,36
 455 434 455 434 456.5 437 c 128,-1,37
 458 440 458 440 460 440 c 128,-1,38
 462 440 462 440 462 437.5 c 128,-1,39
 462 435 462 435 457.5 429 c 128,-1,40
 453 423 453 423 441 414 c 128,-1,41
 429 405 429 405 415 401 c 0,42,43
 361 384 361 384 298 384 c 0,44,45
 287 384 287 384 242 389 c 1,46,47
 213 316 213 316 166 245 c 1,48,49
 213 265 213 265 255 265 c 128,-1,50
 297 265 297 265 318 236.5 c 128,-1,51
 339 208 339 208 339 174 c 0,52,53
 339 97 339 97 253 38 c 128,-1,54
 167 -21 167 -21 77 -21 c 0,0,1
EndSplineSet
Substitution2: "'onum' Oldstyle Figures lookup 3 subtable" uniE005
Substitution2: "'subs' Subscript lookup 0 subtable" uni2085
EndChar

StartChar: six
Encoding: 54 54 23
Width: 314
GlyphClass: 2
Flags: W
HStem: -21 24<82.5 167.441> 199 24<207.578 279.884> 431 20G<486.25 488.75>
VStem: 34 40<17.9111 108.163> 301 40<106.239 186.86>
LayerCount: 2
Fore
SplineSet
301 144 m 0,0,1
 301 199 301 199 232 199 c 128,-1,2
 163 199 163 199 79 100 c 1,3,4
 74 82 74 82 74 58.5 c 128,-1,5
 74 35 74 35 90.5 19 c 128,-1,6
 107 3 107 3 131 3 c 0,7,8
 194 3 194 3 247.5 49.5 c 128,-1,9
 301 96 301 96 301 144 c 0,0,1
266 223 m 0,10,11
 341 223 341 223 341 166 c 0,12,13
 341 107 341 107 262 43 c 128,-1,14
 183 -21 183 -21 94 -21 c 0,15,16
 71 -21 71 -21 52.5 -4 c 128,-1,17
 34 13 34 13 34 38 c 0,18,19
 34 108 34 108 104 194 c 128,-1,20
 174 280 174 280 278 349.5 c 128,-1,21
 382 419 382 419 483 450 c 0,22,23
 485 451 485 451 487.5 451 c 128,-1,24
 490 451 490 451 490 450 c 0,25,26
 490 447 490 447 476.5 434.5 c 128,-1,27
 463 422 463 422 455 419 c 0,28,29
 345 383 345 383 240 303 c 128,-1,30
 135 223 135 223 94 138 c 1,31,32
 126 167 126 167 173.5 195 c 128,-1,33
 221 223 221 223 266 223 c 0,10,11
EndSplineSet
Substitution2: "'onum' Oldstyle Figures lookup 3 subtable" uniE006
Substitution2: "'subs' Subscript lookup 0 subtable" uni2086
EndChar

StartChar: seven
Encoding: 55 55 24
Width: 310
GlyphClass: 2
Flags: W
HStem: -29 21G<50 54> 181 21<137.692 222.282> 190 12<170.984 223 258 347.344> 381 33<208.184 436.461> 424 20G<481.25 483.75>
LayerCount: 2
Fore
SplineSet
295 381 m 0,0,1
 169 381 169 381 169 402 c 0,2,3
 169 405.286 169 405.286 174.5 413.143 c 128,-1,4
 180 421 180 421 186.5 433.5 c 128,-1,5
 193 446 193 446 195 446 c 128,-1,6
 197 446 197 446 197 444 c 0,7,8
 197 428 197 428 239 421 c 128,-1,9
 281 414 281 414 313.5 414 c 128,-1,10
 346 414 346 414 400 419.5 c 128,-1,11
 454 425 454 425 467 434.5 c 128,-1,12
 480 444 480 444 482.5 444 c 128,-1,13
 485 444 485 444 485 438.5 c 128,-1,14
 485 433 485 433 405.5 356.5 c 128,-1,15
 326 280 326 280 258 202 c 1,16,-1
 347 202 l 2,17,18
 351 202 351 202 351 199 c 0,19,20
 351 190 351 190 247 190 c 1,21,22
 177 108 177 108 104 -2 c 0,23,24
 100.923 -6.61538 100.923 -6.61538 92.4615 -8.30769 c 128,-1,25
 84 -10 84 -10 79.5 -12 c 128,-1,26
 75 -14 75 -14 65.5 -21.5 c 128,-1,27
 56 -29 56 -29 52 -29 c 128,-1,28
 48 -29 48 -29 48 -25 c 128,-1,29
 48 -21 48 -21 54 -13 c 0,30,31
 152 113 152 113 223 188 c 1,32,33
 200 187 200 187 180.5 185 c 2,34,-1
 151.5 182 l 2,35,36
 142 181 142 181 137.5 181 c 128,-1,37
 133 181 133 181 133 183 c 128,-1,38
 133 185 133 185 138 192 c 0,39,40
 146 202 146 202 151 202 c 2,41,-1
 236 202 l 1,42,-1
 428 396 l 1,43,44
 368 381 368 381 295 381 c 0,0,1
EndSplineSet
Substitution2: "'onum' Oldstyle Figures lookup 3 subtable" uniE007
Substitution2: "'subs' Subscript lookup 0 subtable" uni2087
EndChar

StartChar: eight
Encoding: 56 56 25
Width: 330
GlyphClass: 2
Flags: W
HStem: -12 26<101.041 208.157> 313 9<333.002 363.062> 427 16<333.103 378.79>
VStem: 28 44<32.5709 129.659> 206 35<287 360.987> 317 32<103.404 178.612> 394 44<352.349 418.445>
LayerCount: 2
Fore
SplineSet
242 241 m 1,0,1
 72 157 72 157 72 76 c 0,2,3
 72 52 72 52 92 33 c 128,-1,4
 112 14 112 14 170 14 c 128,-1,5
 228 14 228 14 272.5 51 c 128,-1,6
 317 88 317 88 317 128 c 0,7,8
 317 152 317 152 307.5 169 c 128,-1,9
 298 186 298 186 272 211.5 c 2,10,11
 242 241 l 1,0,1
339 322 m 1,12,-1
 349 320 l 1,13,14
 362 320 362 320 378 343 c 128,-1,15
 394 366 394 366 394 384.5 c 128,-1,16
 394 403 394 403 383.5 415 c 128,-1,17
 373 427 373 427 342 427 c 128,-1,18
 311 427 311 427 276 396 c 128,-1,19
 241 365 241 365 241 333 c 128,-1,20
 241 301 241 301 273 271 c 1,21,22
 289 276 289 276 311.5 285.5 c 2,23,-1
 350 302 l 2,24,25
 366 309 366 309 368.5 309 c 128,-1,26
 371 309 371 309 371 308 c 0,27,28
 371 304 371 304 280 264 c 1,29,-1
 295.5 248.5 l 2,30,31
 335.5 208.5 335.5 208.5 342.25 189.75 c 128,-1,32
 349 171 349 171 349 158 c 0,33,34
 349 102 349 102 282.5 45 c 128,-1,35
 216 -12 216 -12 136 -12 c 0,36,37
 88 -12 88 -12 58 10 c 128,-1,38
 28 32 28 32 28 66 c 0,39,40
 28 108.594 28 108.594 57 138.5 c 2,41,-1
 85 166.5 l 2,42,43
 97 178 97 178 123 192.5 c 2,44,-1
 160 213 l 2,45,46
 171 219 171 219 201 233.5 c 2,47,-1
 235 250 l 1,48,49
 232 256 232 256 226 262 c 128,-1,50
 220 268 220 268 216.5 274.5 c 128,-1,51
 213 281 213 281 211 285.5 c 0,52,53
 206 296.75 206 296.75 206 312 c 0,54,55
 206 360 206 360 268 401.5 c 128,-1,56
 330 443 330 443 377 443 c 0,57,58
 405 443 405 443 421.5 431.5 c 128,-1,59
 438 420 438 420 438 401 c 0,60,61
 438 369 438 369 404 341 c 128,-1,62
 370 313 370 313 340 313 c 0,63,64
 333 313 333 313 333 317.5 c 128,-1,65
 333 322 333 322 339 322 c 1,12,-1
EndSplineSet
Substitution2: "'onum' Oldstyle Figures lookup 3 subtable" uniE008
Substitution2: "'subs' Subscript lookup 0 subtable" uni2088
EndChar

StartChar: nine
Encoding: 57 57 26
Width: 317
GlyphClass: 2
Flags: W
HStem: -12 16<109.578 175.419> 134 6<111.167 129.964> 235 16<239.679 306.778> 426 17<298.785 371.5>
VStem: 37 40<20.8325 116.374> 170 37<267.491 353.354> 380 46<309.976 411.219>
LayerCount: 2
Fore
SplineSet
127 133 m 2,0,-1
 118 134 l 1,1,2
 102 134 102 134 89.5 112.5 c 128,-1,3
 77 91 77 91 77 64.5 c 128,-1,4
 77 38 77 38 96 21 c 128,-1,5
 115 4 115 4 145 4 c 128,-1,6
 175 4 175 4 198.5 19.5 c 128,-1,7
 222 35 222 35 243.5 67 c 0,8,9
 279.083 119.961 279.083 119.961 333.573 239.101 c 0,10,11
 339 251 339 251 342 257 c 1,12,13
 298 235 298 235 258 235 c 0,14,15
 170 235 170 235 170 298 c 0,16,17
 170 348 170 348 226.5 395.5 c 128,-1,18
 283 443 283 443 359 443 c 0,19,20
 384 443 384 443 405 427.5 c 128,-1,21
 426 412 426 412 426 382 c 0,22,23
 426 345.864 426 345.864 388 278.5 c 0,24,25
 377 259 377 259 358 221.5 c 128,-1,26
 339 184 339 184 306.5 132.5 c 128,-1,27
 274 81 274 81 250.5 53 c 128,-1,28
 227 25 227 25 202.5 10 c 128,-1,29
 178 -5 178 -5 162 -8.5 c 128,-1,30
 146 -12 146 -12 116 -12 c 128,-1,31
 86 -12 86 -12 61.5 8.5 c 128,-1,32
 37 29 37 29 37 60 c 0,33,34
 37 121 37 121 85 129 c 0,35,36
 94 131 94 131 106.5 135.5 c 128,-1,37
 119 140 119 140 124.5 140 c 128,-1,38
 130 140 130 140 130 136.5 c 128,-1,39
 130 133 130 133 127 133 c 2,0,-1
322 426 m 0,40,41
 278 426 278 426 242.5 391 c 128,-1,42
 207 356 207 356 207 310 c 0,43,44
 207 281 207 281 227 266 c 128,-1,45
 247 251 247 251 283.5 251 c 128,-1,46
 320 251 320 251 349 275 c 1,47,48
 380 347 380 347 380 369 c 128,-1,49
 380 391 380 391 364.5 408.5 c 128,-1,50
 349 426 349 426 322 426 c 0,40,41
EndSplineSet
Substitution2: "'onum' Oldstyle Figures lookup 3 subtable" uniE009
Substitution2: "'subs' Subscript lookup 0 subtable" uni2089
EndChar

StartChar: colon
Encoding: 58 58 27
Width: 202
GlyphClass: 2
Flags: W
HStem: -4 64<64.2397 107.438> 162 64<151.24 194.438>
VStem: 56 61<5.16821 52.5842> 143 61<171.168 218.584>
LayerCount: 2
Fore
SplineSet
163 162 m 0,0,1
 143 162 143 162 143 179 c 128,-1,2
 143 196 143 196 156.5 211 c 128,-1,3
 170 226 170 226 187 226 c 128,-1,4
 204 226 204 226 204 208 c 0,5,6
 204 193 204 193 189 177.5 c 128,-1,7
 174 162 174 162 163 162 c 0,0,1
76 -4 m 0,8,9
 56 -4 56 -4 56 13 c 128,-1,10
 56 30 56 30 69.5 45 c 128,-1,11
 83 60 83 60 100 60 c 128,-1,12
 117 60 117 60 117 42 c 0,13,14
 117 27 117 27 102 11.5 c 128,-1,15
 87 -4 87 -4 76 -4 c 0,8,9
EndSplineSet
EndChar

StartChar: semicolon
Encoding: 59 59 28
Width: 227
GlyphClass: 2
Flags: W
HStem: 138 64<112.24 155.438>
VStem: 63 37<-51.2734 34.1535> 104 61<147.168 194.584>
LayerCount: 2
Fore
SplineSet
124 138 m 0,0,1
 104 138 104 138 104 155 c 128,-1,2
 104 172 104 172 117.5 187 c 128,-1,3
 131 202 131 202 148 202 c 128,-1,4
 165 202 165 202 165 184 c 0,5,6
 165 169 165 169 150 153.5 c 128,-1,7
 135 138 135 138 124 138 c 0,0,1
80 42 m 0,8,9
 100 42 100 42 100 5.5 c 128,-1,10
 100 -31 100 -31 73 -63.5 c 128,-1,11
 46 -96 46 -96 20 -115 c 128,-1,12
 -6 -134 -6 -134 -10 -134 c 128,-1,13
 -14 -134 -14 -134 -14 -132.5 c 128,-1,14
 -14 -131 -14 -131 5 -116 c 0,15,16
 63 -72 63 -72 63 -28 c 0,17,18
 63 -12 63 -12 57.5 5.5 c 128,-1,19
 52 23 52 23 52 26.5 c 128,-1,20
 52 30 52 30 64 36 c 128,-1,21
 76 42 76 42 80 42 c 0,8,9
EndSplineSet
EndChar

StartChar: less
Encoding: 60 60 29
Width: 245
GlyphClass: 2
Flags: W
HStem: 36.4167 272.583
VStem: 88 30<135.462 175.971>
LayerCount: 2
Fore
SplineSet
272 297 m 1,0,1
 127.426 182.664 127.426 182.664 122.713 176.52 c 128,-1,2
 118 170.376 118 170.376 118 164.188 c 128,-1,3
 118 158 118 158 151.5 104.5 c 128,-1,4
 185 51 185 51 185 48 c 128,-1,5
 185 45 185 45 182.5 44 c 0,6,7
 171.667 39.8333 171.667 39.8333 164.833 36.4167 c 128,-1,8
 158 33 158 33 154.5 33 c 128,-1,9
 151 33 151 33 119.5 87 c 128,-1,10
 88 141 88 141 88 152.5 c 128,-1,11
 88 164 88 164 103 176 c 1,12,13
 125 191 125 191 168 225 c 2,14,-1
 242.5 284 l 2,15,16
 274 309 274 309 276.5 309 c 128,-1,17
 279 309 279 309 279 304.5 c 128,-1,18
 279 300 279 300 272 297 c 1,0,1
EndSplineSet
EndChar

StartChar: equal
Encoding: 61 61 30
Width: 403
GlyphClass: 2
Flags: W
HStem: 142 25<100.25 370> 201 25<127.25 397>
VStem: 94 312
LayerCount: 2
Fore
SplineSet
108 167 m 2,0,-1
 289 163 l 1,1,-1
 379 165 l 2,2,3
 381 165 381 165 381 164 c 128,-1,4
 381 163 381 163 380.5 162 c 128,-1,5
 380 161 380 161 378.5 158.5 c 128,-1,6
 377 156 377 156 376 153 c 2,7,-1
 370 140 l 1,8,-1
 182 144 l 1,9,-1
 94 142 l 2,10,11
 92 142 92 142 92 143 c 128,-1,12
 92 144 92 144 93.5 145.5 c 0,13,14
 98 150 98 150 102.5 158.5 c 128,-1,15
 107 167 107 167 108 167 c 2,0,-1
135 226 m 2,16,-1
 316 222 l 1,17,-1
 406 224 l 2,18,19
 408 224 408 224 408 223 c 128,-1,20
 408 222 408 222 407.5 221 c 128,-1,21
 407 220 407 220 405.5 217.5 c 128,-1,22
 404 215 404 215 403 212 c 2,23,-1
 397 199 l 1,24,-1
 209 203 l 1,25,-1
 121 201 l 2,26,27
 119 201 119 201 119 202 c 128,-1,28
 119 203 119 203 120.5 204.5 c 0,29,30
 125 209 125 209 129.5 217.5 c 128,-1,31
 134 226 134 226 135 226 c 2,16,-1
EndSplineSet
EndChar

StartChar: greater
Encoding: 62 62 31
Width: 245
GlyphClass: 2
Flags: W
HStem: 33 272.583
VStem: 213 30<166.029 206.538>
LayerCount: 2
Fore
SplineSet
59 45 m 1,0,1
 203.574 159.336 203.574 159.336 208.287 165.48 c 128,-1,2
 213 171.624 213 171.624 213 177.812 c 128,-1,3
 213 184 213 184 179.5 237.5 c 128,-1,4
 146 291 146 291 146 294 c 128,-1,5
 146 297 146 297 148.5 298 c 0,6,7
 159.333 302.167 159.333 302.167 166.167 305.583 c 128,-1,8
 173 309 173 309 176.5 309 c 128,-1,9
 180 309 180 309 211.5 255 c 128,-1,10
 243 201 243 201 243 189.5 c 128,-1,11
 243 178 243 178 228 166 c 1,12,13
 206 151 206 151 163 117 c 2,14,-1
 88.5 58 l 2,15,16
 57 33 57 33 54.5 33 c 128,-1,17
 52 33 52 33 52 37.5 c 128,-1,18
 52 42 52 42 59 45 c 1,0,1
EndSplineSet
EndChar

StartChar: question
Encoding: 63 63 32
Width: 259
GlyphClass: 2
Flags: W
HStem: -4 64<70.2397 113.438> 419 24<250.855 306.98>
VStem: 62 61<5.16821 52.5842> 124 35<151.264 211.766> 328 39<337.05 405.913>
LayerCount: 2
Fore
SplineSet
311 404 m 128,-1,1
 294 419 294 419 272 419 c 128,-1,2
 250 419 250 419 229 408.5 c 128,-1,3
 208 398 208 398 194 387.5 c 128,-1,4
 180 377 180 377 177 377 c 128,-1,5
 174 377 174 377 174 379 c 128,-1,6
 174 381 174 381 177 384 c 0,7,8
 246 443 246 443 305 443 c 0,9,10
 333 443 333 443 350 427.5 c 128,-1,11
 367 412 367 412 367 389.5 c 128,-1,12
 367 367 367 367 360 353.5 c 128,-1,13
 353 340 353 340 337 327.5 c 128,-1,14
 321 315 321 315 311 308.5 c 128,-1,15
 301 302 301 302 277 290 c 2,16,17
 249 276 l 1,18,19
 232 266 232 266 227 263.5 c 128,-1,20
 222 261 222 261 205 250 c 128,-1,21
 188 239 188 239 181 231.5 c 0,22,23
 159 207.929 159 207.929 159 192.964 c 0,24,25
 159 172.278 159 172.278 187 136.5 c 2,26,-1
 196 125 l 1,27,28
 196 119.5 196 119.5 185.5 117.25 c 128,-1,29
 175 115 175 115 168 112.5 c 128,-1,30
 161 110 161 110 156 110 c 128,-1,31
 151 110 151 110 137.5 133.5 c 128,-1,32
 124 157 124 157 124 175.5 c 128,-1,33
 124 194 124 194 145.5 216.5 c 128,-1,34
 167 239 167 239 186.5 251.5 c 128,-1,35
 206 264 206 264 226 275 c 2,36,-1
 286 307 l 2,37,38
 313.237 322.132 313.237 322.132 320.618 337.566 c 128,-1,39
 328 353 328 353 328 371 c 128,-1,0
 328 389 328 389 311 404 c 128,-1,1
82 -4 m 0,40,41
 62 -4 62 -4 62 13 c 128,-1,42
 62 30 62 30 75.5 45 c 128,-1,43
 89 60 89 60 106 60 c 128,-1,44
 123 60 123 60 123 42 c 0,45,46
 123 27 123 27 108 11.5 c 128,-1,47
 93 -4 93 -4 82 -4 c 0,40,41
EndSplineSet
EndChar

StartChar: at
Encoding: 64 64 33
Width: 463
GlyphClass: 2
Flags: W
HStem: -15 20<184.042 297.188> 95 20<324 385.212> 104 15<228.303 261.18> 279 4<310.65 339.055> 377 20<297.852 400.271>
VStem: 74 33<70.1809 207.375> 185 37<119.315 206.137> 297 36<121.188 132> 478 33<212.792 321.474>
LayerCount: 2
Fore
SplineSet
300 144 m 1,0,1
 317 202 317 202 363 255 c 1,2,3
 355 279 355 279 323.5 279 c 128,-1,4
 292 279 292 279 257 234 c 128,-1,5
 222 189 222 189 222 154 c 128,-1,6
 222 119 222 119 243 119 c 0,7,8
 261 119 261 119 300 144 c 1,0,1
356 115 m 0,9,10
 411 115 411 115 444.5 167.5 c 128,-1,11
 478 220 478 220 478 268 c 128,-1,12
 478 316 478 316 437.5 346.5 c 128,-1,13
 397 377 397 377 347 377 c 0,14,15
 236 377 236 377 171.5 304 c 128,-1,16
 107 231 107 231 107 136 c 0,17,18
 107 79 107 79 144.5 42 c 128,-1,19
 182 5 182 5 232 5 c 0,20,21
 356 5 356 5 426 70 c 0,22,23
 442 84 442 84 449 84 c 128,-1,24
 456 84 456 84 456 83 c 2,25,-1
 445.5 72.5 l 2,26,27
 439 66 439 66 416 49 c 128,-1,28
 393 32 393 32 367 19 c 128,-1,29
 341 6 341 6 299.5 -4.5 c 128,-1,30
 258 -15 258 -15 207.5 -15 c 128,-1,31
 157 -15 157 -15 115.5 24.5 c 128,-1,32
 74 64 74 64 74 118 c 0,33,34
 74 198 74 198 120.5 263.5 c 128,-1,35
 167 329 167 329 235.5 363 c 128,-1,36
 304 397 304 397 365.5 397 c 128,-1,37
 427 397 427 397 469 366 c 128,-1,38
 511 335 511 335 511 283 c 0,39,40
 511 215 511 215 455.5 155 c 128,-1,41
 400 95 400 95 332 95 c 0,42,43
 316 95 316 95 306 103.5 c 128,-1,44
 296 112 296 112 296 119 c 128,-1,45
 296 126 296 126 296.5 128.5 c 128,-1,46
 297 131 297 131 297 132 c 1,47,48
 256 104 256 104 232 104 c 128,-1,49
 208 104 208 104 196.5 116 c 128,-1,50
 185 128 185 128 185 146 c 0,51,52
 185 195 185 195 230 239 c 128,-1,53
 275 283 275 283 319 283 c 128,-1,54
 363 283 363 283 371 262 c 1,55,56
 378 269 378 269 387.5 273 c 128,-1,57
 397 277 397 277 403.5 277 c 128,-1,58
 410 277 410 277 410 275 c 128,-1,59
 410 273 410 273 395 258 c 128,-1,60
 380 243 380 243 356.5 203.5 c 128,-1,61
 333 164 333 164 333 135 c 0,62,63
 333 127 333 127 339.5 121 c 128,-1,64
 346 115 346 115 356 115 c 0,9,10
EndSplineSet
EndChar

StartChar: A
Encoding: 65 65 34
Width: 490
GlyphClass: 2
Flags: W
HStem: -7 13<-24.2584 2.28894> -4 17<379.25 434.874> 143 16<264.727 350.898> 154 17<202 256.16> 431 20G<458.75 462.25>
VStem: 346 44<15.4612 148>
AnchorPoint: "Anchor-5" 470 500 basechar 0
AnchorPoint: "Anchor-4" 395 0 basechar 0
AnchorPoint: "Anchor-3" 178 -50 basechar 0
LayerCount: 2
Fore
SplineSet
202 171 m 1,0,-1
 219 171 l 2,1,2
 239 171 239 171 277.5 165 c 128,-1,3
 316 159 316 159 330.5 159 c 128,-1,4
 345 159 345 159 353 160 c 1,5,6
 367 261.5 367 261.5 399 385.5 c 2,7,-1
 403 401 l 2,8,9
 403 404 403 404 402 404 c 0,10,11
 398 404 398 404 388 390 c 1,12,-1
 202 171 l 1,0,-1
8 -3 m 1,13,-1
 -19 -7 l 2,14,15
 -25 -7 -25 -7 -25 -2.5 c 128,-1,16
 -25 2 -25 2 -11.5 6 c 128,-1,17
 2 10 2 10 15 22 c 0,18,19
 175 161 175 161 373 392 c 1,20,-1
 386.5 407.5 l 2,21,22
 392 414 392 414 397.5 418.5 c 128,-1,23
 403 423 403 423 405 425.5 c 128,-1,24
 407 428 407 428 412.5 431 c 128,-1,25
 418 434 418 434 419.5 434.5 c 128,-1,26
 421 435 421 435 428 438 c 128,-1,27
 435 441 435 441 437.5 442 c 128,-1,28
 440 443 440 443 448.5 447 c 128,-1,29
 457 451 457 451 460.5 451 c 128,-1,30
 464 451 464 451 464 447 c 2,31,-1
 464 446 l 2,32,33
 464 441 464 441 458.5 428.5 c 128,-1,34
 453 416 453 416 453 415 c 0,35,36
 416 317 416 317 396 166 c 1,37,38
 429.466 174.807 429.466 174.807 448.233 189.403 c 128,-1,39
 467 204 467 204 469 204 c 128,-1,40
 471 204 471 204 471 201 c 128,-1,41
 471 198 471 198 460 189.5 c 0,42,43
 428.913 165.478 428.913 165.478 395 157 c 1,44,45
 390 114 390 114 390 89 c 0,46,47
 390 13 390 13 422 13 c 0,48,49
 458 13 458 13 525 71 c 0,50,51
 558 100 558 100 567 113.5 c 128,-1,52
 576 127 576 127 578 127 c 128,-1,53
 580 127 580 127 580 125.5 c 128,-1,54
 580 124 580 124 579 122 c 0,55,56
 530 57 530 57 463 18 c 0,57,58
 425 -4 425 -4 394.5 -4 c 128,-1,59
 364 -4 364 -4 355 14.5 c 128,-1,60
 346 33 346 33 346 73 c 128,-1,61
 346 113 346 113 351 148 c 1,62,63
 306 143 306 143 288 143 c 128,-1,64
 270 143 270 143 237 148.5 c 128,-1,65
 204 154 204 154 196.5 154 c 128,-1,66
 189 154 189 154 186 153 c 1,67,68
 90 43 90 43 51 11 c 1,69,70
 36 -0 36 -0 8 -3 c 1,13,-1
EndSplineSet
EndChar

StartChar: B
Encoding: 66 66 35
Width: 450
GlyphClass: 2
Flags: W
HStem: -73 21G<20 41> -12 12<218.879 275.85> 221 17.5<278.6 311.795> 238 8<330.503 375.784> 421 22<360.079 417.5>
VStem: 133 35<29.7317 70.3125> 405 45<105.633 225.349> 417 46<330.37 412.463>
AnchorPoint: "Anchor-5" 434 500 basechar 0
AnchorPoint: "Anchor-3" 198 -50 basechar 0
LayerCount: 2
Fore
SplineSet
171 79 m 2,0,-1
 168 73 l 1,1,2
 168 45 168 45 192.5 22.5 c 128,-1,3
 217 0 217 0 251 0 c 0,4,5
 300 0 300 0 352.5 53.5 c 128,-1,6
 405 107 405 107 405 185 c 1,7,8
 404 208 404 208 391 223 c 128,-1,9
 378 238 378 238 355 238 c 128,-1,10
 332 238 332 238 312 229.5 c 128,-1,11
 292 221 292 221 288.5 221 c 0,12,13
 287 221 287 221 281.5 226.5 c 128,-1,14
 276 232 276 232 276 234.5 c 128,-1,15
 276 237 276 237 282 238.5 c 128,-1,16
 288 240 288 240 296.5 241 c 0,17,18
 337.387 245.81 337.387 245.81 377.194 292.905 c 128,-1,19
 417 340 417 340 417 381 c 0,20,21
 417 399 417 399 403.5 410 c 128,-1,22
 390 421 390 421 369 421 c 0,23,24
 287 421 287 421 142 129 c 0,25,26
 91 25 91 25 63 -55 c 0,27,28
 60.2222 -60.5556 60.2222 -60.5556 56.6111 -61.2778 c 128,-1,29
 53 -62 53 -62 41 -66 c 2,30,-1
 22 -73 l 1,31,32
 18 -73 18 -73 18 -69 c 128,-1,33
 18 -65 18 -65 119 130 c 0,34,35
 280 443 280 443 406 443 c 0,36,37
 429 443 429 443 446 432 c 128,-1,38
 463 421 463 421 463 398 c 0,39,40
 463 349 463 349 419.5 303 c 128,-1,41
 376 257 376 257 330 243 c 1,42,43
 360 246 360 246 368 246 c 0,44,45
 450 246 450 246 450 170 c 0,46,47
 450 110 450 110 371 43 c 0,48,49
 306 -12 306 -12 224 -12 c 0,50,51
 186 -12 186 -12 159.5 11 c 128,-1,52
 133 34 133 34 133 62 c 0,53,54
 133 64 133 64 136 65 c 128,-1,55
 139 66 139 66 144.5 68 c 128,-1,56
 150 70 150 70 154 72 c 128,-1,57
 158 74 158 74 161 76 c 128,-1,58
 164 78 164 78 165 79 c 0,59,60
 167 81 167 81 169 81 c 128,-1,61
 171 81 171 81 171 79 c 2,0,-1
EndSplineSet
EndChar

StartChar: C
Encoding: 67 67 36
Width: 430
GlyphClass: 2
Flags: W
HStem: -12 16<188.921 277.978> 421 22<351.785 432.727>
VStem: 80 48<44.4219 210.212> 395 22<83.625 117.864> 464 32<383.029 399.47>
AnchorPoint: "Anchor-5" 425 500 basechar 0
AnchorPoint: "Anchor-4" 207 0 basechar 0
LayerCount: 2
Fore
SplineSet
485.5 388.5 m 128,-1,1
 475 378 475 378 472 373 c 128,-1,2
 469 368 469 368 466.5 368 c 128,-1,3
 464 368 464 368 464 372 c 0,4,5
 464 389 464 389 441 405 c 128,-1,6
 418 421 418 421 392 421 c 0,7,8
 342 421 342 421 296 394 c 1,9,10
 226 348 226 348 177 272.5 c 128,-1,11
 128 197 128 197 128 114 c 0,12,13
 128 68 128 68 156.5 36 c 128,-1,14
 185 4 185 4 228 4 c 0,15,16
 362 4 362 4 395 108 c 0,17,18
 398 120 398 120 401 120 c 0,19,20
 406 120 406 120 411.5 111.5 c 128,-1,21
 417 103 417 103 417 93.5 c 128,-1,22
 417 84 417 84 395.5 60 c 128,-1,23
 374 36 374 36 323.5 12 c 128,-1,24
 273 -12 273 -12 214 -12 c 128,-1,25
 155 -12 155 -12 117.5 25 c 128,-1,26
 80 62 80 62 80 117 c 0,27,28
 80 195 80 195 140.5 275.5 c 128,-1,29
 201 356 201 356 289 405 c 1,30,31
 355 443 355 443 424 443 c 0,32,33
 447 443 447 443 465 434 c 128,-1,34
 483 425 483 425 489.5 416.5 c 128,-1,35
 496 408 496 408 496 403.5 c 128,-1,0
 496 399 496 399 485.5 388.5 c 128,-1,1
EndSplineSet
EndChar

StartChar: D
Encoding: 68 68 37
Width: 597
GlyphClass: 2
Flags: W
HStem: -10 13<355.916 434.024> -8 21<100.553 154.409> 148 28<168.5 227> 434 9<338.439 410.756> 503 12<350.791 401.168>
VStem: 65 28<18.6411 72.8369> 168 28<301 348.917> 420 40<442.206 497.573> 585 43<148.669 337.874>
AnchorPoint: "Anchor-5" 458 530 basechar 0
AnchorPoint: "Anchor-4" 358 0 basechar 0
AnchorPoint: "Anchor-3" 228 -50 basechar 0
LayerCount: 2
Fore
SplineSet
240 93 m 1,0,1
 225 113 225 113 219.5 121 c 128,-1,2
 214 129 214 129 202 138.5 c 128,-1,3
 190 148 190 148 180 148 c 0,4,5
 150 148 150 148 121.5 111 c 128,-1,6
 93 74 93 74 93 45 c 0,7,8
 93 13 93 13 133 13 c 0,9,10
 154 13 154 13 183 32.5 c 128,-1,11
 212 52 212 52 240 93 c 1,0,1
279 120 m 1,12,13
 284 111 284 111 293 91.5 c 128,-1,14
 302 72 302 72 309 59 c 128,-1,15
 316 46 316 46 327 32 c 0,16,17
 349.786 3.00001 349.786 3.00001 389 3 c 0,18,19
 473 3 473 3 529 84 c 128,-1,20
 585 165 585 165 585 258 c 0,21,22
 585 400 585 400 452 427 c 1,23,24
 346 214 346 214 279 120 c 1,12,13
249 81 m 1,25,26
 171.867 -8 171.867 -8 113 -8 c 0,27,28
 65 -8 65 -8 65 28 c 0,29,30
 65 70 65 70 118.5 123 c 128,-1,31
 172 176 172 176 214 176 c 0,32,33
 240 176 240 176 267 138 c 1,34,35
 360 304 360 304 411 433 c 1,36,37
 401 434 401 434 380 434 c 0,38,39
 316 434 316 434 256 393.5 c 128,-1,40
 196 353 196 353 196 307 c 0,41,42
 196 301 196 301 199 293 c 0,43,44
 199 291 199 291 195.5 291 c 128,-1,45
 192 291 192 291 186 297 c 2,46,-1
 178 305 l 2,47,48
 176 307 176 307 174 308 c 128,-1,49
 172 309 172 309 170.5 310.5 c 0,50,51
 168 313 168 313 168 318 c 0,52,53
 168 369 168 369 237.5 406 c 128,-1,54
 307 443 307 443 383 443 c 0,55,56
 405 443 405 443 415 442 c 1,57,58
 420 454 420 454 420 464 c 0,59,60
 420 503 420 503 370 503 c 0,61,62
 344 503 344 503 324 490 c 128,-1,63
 304 477 304 477 302 477 c 128,-1,64
 300 477 300 477 300 479.5 c 128,-1,65
 300 482 300 482 311 490 c 128,-1,66
 322 498 322 498 343.5 506.5 c 128,-1,67
 365 515 365 515 389.5 515 c 128,-1,68
 414 515 414 515 437 503.5 c 128,-1,69
 460 492 460 492 460 463 c 0,70,71
 460 452 460 452 455 437 c 1,72,73
 628 409 628 409 628 234 c 0,74,75
 628 137 628 137 557.5 63.5 c 128,-1,76
 487 -10 487 -10 390 -10 c 0,77,78
 363 -10 363 -10 344 -5 c 128,-1,79
 325 -0 325 -0 306 17 c 128,-1,80
 287 34 287 34 280 42 c 128,-1,81
 273 50 273 50 249 81 c 1,25,26
EndSplineSet
EndChar

StartChar: E
Encoding: 69 69 38
Width: 417
GlyphClass: 2
Flags: W
HStem: -12 21<185.944 284.728> 365 68<465.49 490.148> 431 12<337.737 417.65>
VStem: 79 50<42.4819 170.495> 242 34<318.859 386.184> 278 56<268.624 299.116> 389 20<88.7345 134.25>
AnchorPoint: "Anchor-5" 422 500 basechar 0
AnchorPoint: "Anchor-4" 216 0 basechar 0
AnchorPoint: "Anchor-3" 178 -50 basechar 0
LayerCount: 2
Fore
SplineSet
389 125 m 1,0,-1
 387 138 l 2,1,2
 387 141 387 141 389 141 c 1,3,-1
 401 133 l 2,4,5
 409 127 409 127 409 122 c 0,6,7
 409 85 409 85 353.5 36.5 c 128,-1,8
 298 -12 298 -12 215 -12 c 0,9,10
 165 -12 165 -12 122 18 c 128,-1,11
 79 48 79 48 79 92 c 128,-1,12
 79 136 79 136 99.5 168.5 c 128,-1,13
 120 201 120 201 149.5 219.5 c 128,-1,14
 179 238 179 238 208 250.5 c 128,-1,15
 237 263 237 263 257.5 269 c 128,-1,16
 278 275 278 275 278 277 c 0,17,18
 278 281 278 281 272 285 c 0,19,20
 242 305 242 305 242 341 c 128,-1,21
 242 377 242 377 282 410 c 128,-1,22
 322 443 322 443 391 443 c 0,23,24
 420 443 420 443 458.5 433 c 128,-1,25
 497 423 497 423 497 403 c 0,26,27
 497 398 497 398 491.5 389 c 128,-1,28
 486 380 486 380 482.5 372.5 c 128,-1,29
 479 365 479 365 477 365 c 128,-1,30
 475 365 475 365 473 371 c 0,31,32
 467 391 467 391 442.5 411 c 128,-1,33
 418 431 418 431 383 431 c 128,-1,34
 348 431 348 431 325.5 424.5 c 128,-1,35
 303 418 303 418 293.5 407 c 0,36,37
 276 386.737 276 386.737 276 367.868 c 128,-1,38
 276 349 276 349 286.5 329 c 128,-1,39
 297 309 297 309 314 300 c 1,40,41
 334 291 334 291 334 288 c 0,42,43
 334 270 334 270 313 268 c 0,44,45
 203.797 255.866 203.797 255.866 163.5 202.5 c 0,46,47
 129 156.811 129 156.811 129 105.905 c 128,-1,48
 129 55 129 55 163 32 c 128,-1,49
 197 9 197 9 237 9 c 0,50,51
 306 9 306 9 347.5 44.5 c 128,-1,52
 389 80 389 80 389 125 c 1,0,-1
EndSplineSet
EndChar

StartChar: F
Encoding: 70 70 39
Width: 384
GlyphClass: 2
Flags: W
HStem: -14 5<71.0308 80.2524> 201 20<155.417 217 271 347.609> 414 21<206.068 320 371 509.323> 533 10<263.959 308.26>
VStem: 334 42<436.435 524.602>
AnchorPoint: "Anchor-5" 374 530 basechar 0
LayerCount: 2
Fore
SplineSet
363 415 m 1,0,1
 339 349 339 349 271 222 c 1,2,-1
 366 226 l 2,3,4
 368 226 368 226 368 224 c 128,-1,5
 368 222 368 222 360 216 c 128,-1,6
 352 210 352 210 348 208 c 0,7,8
 336 202 336 202 260 202 c 1,9,10
 174 43 174 43 143 -1 c 0,11,12
 135 -11 135 -11 119 -12.5 c 128,-1,13
 103 -14 103 -14 78 -14 c 2,14,-1
 74 -14 l 2,15,16
 71 -14 71 -14 71 -11 c 0,17,18
 71 -10 71 -10 74.5 -9 c 0,19,20
 86.2564 -5.64103 86.2564 -5.64103 96 8 c 0,21,22
 152 86 152 86 217 201 c 1,23,24
 152 201 152 201 129.5 191 c 0,25,26
 125 189 125 189 123.5 189 c 128,-1,27
 122 189 122 189 122 190 c 0,28,29
 122 196 122 196 141 205 c 0,30,31
 171 221 171 221 228 221 c 1,32,33
 297 348 297 348 320 414 c 1,34,35
 269.143 414 269.143 414 229.071 408.5 c 128,-1,36
 189 403 189 403 177 398.5 c 128,-1,37
 165 394 165 394 158.5 390 c 128,-1,38
 152 386 152 386 149.5 383.5 c 128,-1,39
 147 381 147 381 145 381 c 128,-1,40
 143 381 143 381 143 384 c 128,-1,41
 143 387 143 387 159 403 c 128,-1,42
 175 419 175 419 213 426 c 128,-1,43
 251 433 251 433 327 435 c 1,44,45
 334 457 334 457 334 474 c 0,46,47
 334 533 334 533 285 533 c 0,48,49
 256 533 256 533 227 508 c 0,50,51
 220 501 220 501 218 501 c 128,-1,52
 216 501 216 501 216 503 c 128,-1,53
 216 505 216 505 224 513 c 0,54,55
 256 543 256 543 293 543 c 0,56,57
 376 543 376 543 376 469 c 0,58,59
 376 452 376 452 371 436 c 1,60,61
 458 438 458 438 505 443.5 c 128,-1,62
 552 449 552 449 561 449 c 2,63,-1
 565 449 l 2,64,65
 571 449 571 449 571 447.25 c 128,-1,66
 571 445.5 571 445.5 568 444 c 0,67,68
 544 428 544 428 496 422.5 c 128,-1,69
 448 417 448 417 363 415 c 1,0,1
EndSplineSet
EndChar

StartChar: G
Encoding: 71 71 40
Width: 555
GlyphClass: 2
Flags: W
HStem: -404 9<87.4411 143.123> -11 12<166.375 231.966> 433 9<436.502 491.183>
VStem: 7 38<-355.904 -208.387> 82 43.5<26.2024 172.101> 522 29<377.75 415.468>
AnchorPoint: "Anchor-5" 515 500 basechar 0
AnchorPoint: "Anchor-3" 60 -470 basechar 0
LayerCount: 2
Fore
SplineSet
367 -44 m 1,0,1
 243 -65 243 -65 196 -84 c 0,2,3
 118 -116 118 -116 81.5 -173.5 c 128,-1,4
 45 -231 45 -231 45 -298 c 0,5,6
 45 -395 45 -395 112 -395 c 0,7,8
 186 -395 186 -395 235 -310 c 0,9,10
 290 -214 290 -214 367 -44 c 1,0,1
522 362 m 2,11,-1
 523 379 l 1,12,13
 523 399 523 399 508.5 416 c 128,-1,14
 494 433 494 433 468 433 c 0,15,16
 425 433 425 433 356.5 394 c 128,-1,17
 288 355 288 355 239.5 306.5 c 128,-1,18
 191 258 191 258 158.5 196.5 c 128,-1,19
 126 135 126 135 125.5 91 c 128,-1,20
 125 47 125 47 144 24 c 128,-1,21
 163 1 163 1 194 1 c 0,22,23
 245 1 245 1 320 49 c 128,-1,24
 395 97 395 97 452 150 c 0,25,26
 470 168 470 168 509.5 236.5 c 128,-1,27
 549 305 549 305 566.5 345 c 128,-1,28
 584 385 584 385 589.5 385 c 128,-1,29
 595 385 595 385 610.5 376 c 128,-1,30
 626 367 626 367 626 355 c 128,-1,31
 626 343 626 343 607.5 309.5 c 128,-1,32
 589 276 589 276 571 255.5 c 128,-1,33
 553 235 553 235 542 217.5 c 128,-1,34
 531 200 531 200 525 189.5 c 128,-1,35
 519 179 519 179 507.5 155.5 c 128,-1,36
 496 132 496 132 493 127 c 2,37,-1
 414 -25 l 1,38,39
 510 2 510 2 590 71 c 0,40,41
 623 100 623 100 632 113.5 c 128,-1,42
 641 127 641 127 643 127 c 128,-1,43
 645 127 645 127 645 125.5 c 128,-1,44
 645 124 645 124 644 122 c 0,45,46
 595 57 595 57 529.5 19 c 128,-1,47
 464 -19 464 -19 408 -35 c 1,48,49
 401 -48 401 -48 367.5 -120.5 c 128,-1,50
 334 -193 334 -193 310 -232.5 c 128,-1,51
 286 -272 286 -272 271 -293 c 128,-1,52
 256 -314 256 -314 230 -343.5 c 0,53,54
 176.678 -404 176.678 -404 111 -404 c 0,55,56
 64 -404 64 -404 35.5 -370 c 128,-1,57
 7 -336 7 -336 7 -284 c 0,58,59
 8 -210 8 -210 68 -153.5 c 128,-1,60
 128 -97 128 -97 207 -70 c 0,61,62
 252 -55 252 -55 371 -34 c 1,63,64
 405 37 405 37 456 131 c 1,65,66
 395 81 395 81 319.5 35 c 128,-1,67
 244 -11 244 -11 195.5 -11 c 128,-1,68
 147 -11 147 -11 114.5 15.5 c 128,-1,69
 82 42 82 42 82 90 c 0,70,71
 82 170 82 170 142 248.5 c 128,-1,72
 202 327 202 327 297.5 384.5 c 128,-1,73
 393 442 393 442 480 442 c 0,74,75
 499 442 499 442 525 432.5 c 128,-1,76
 551 423 551 423 551 407 c 0,77,78
 551 405 551 405 549 401.5 c 2,79,-1
 544 392.5 l 2,80,81
 541 387 541 387 539 383 c 2,82,-1
 528 359 l 1,83,84
 522 359 522 359 522 362 c 2,11,-1
EndSplineSet
EndChar

StartChar: H
Encoding: 72 72 41
Width: 522
GlyphClass: 2
Flags: W
HStem: -12 24<364.25 453.52> 184 18<217 347.177> 219 20G<461 504.5> 429 14<183.299 233.427>
VStem: 248 39<334.264 421.022> 339 50<14.7188 106.389>
AnchorPoint: "Anchor-5" 419 500 basechar 0
AnchorPoint: "Anchor-4" 69 0 basechar 0
AnchorPoint: "Anchor-3" 198 -50 basechar 0
LayerCount: 2
Fore
SplineSet
461 227 m 1,0,-1
 503 239 l 2,1,2
 506 239 506 239 506 236 c 128,-1,3
 506 233 506 233 503.5 230 c 128,-1,4
 501 227 501 227 494.5 224.5 c 128,-1,5
 488 222 488 222 483.5 221 c 128,-1,6
 479 220 479 220 469 217.5 c 2,7,-1
 455 214 l 1,8,9
 389 84 389 84 389 51 c 0,10,11
 389 12 389 12 428 12 c 0,12,13
 463 12 463 12 495 29 c 1,14,15
 546 63 546 63 561 75.5 c 128,-1,16
 576 88 576 88 592 107.5 c 128,-1,17
 608 127 608 127 610 127 c 128,-1,18
 612 127 612 127 612 125.5 c 128,-1,19
 612 124 612 124 598 105.5 c 0,20,21
 564.393 61.0913 564.393 61.0913 492 18 c 0,22,23
 440 -12 440 -12 389.5 -12 c 128,-1,24
 339 -12 339 -12 339 36 c 0,25,26
 339 73 339 73 407 203 c 1,27,28
 309 184 309 184 228 184 c 0,29,30
 206 184 206 184 190 187 c 1,31,32
 117 50 117 50 96 5 c 0,33,34
 92.9474 -1.10527 92.9474 -1.10527 78.4737 -2.55264 c 128,-1,35
 64 -4 64 -4 58 -5.5 c 128,-1,36
 52 -7 52 -7 49 -8.5 c 128,-1,37
 46 -10 46 -10 43.5 -10 c 128,-1,38
 41 -10 41 -10 41 -7.5 c 128,-1,39
 41 -5 41 -5 74 53 c 2,40,-1
 161 205 l 1,41,42
 157 213 157 213 157 220 c 128,-1,43
 157 227 157 227 164.5 231.5 c 128,-1,44
 172 236 172 236 178 236 c 1,45,46
 248 360 248 360 248 391 c 0,47,48
 248 406 248 406 238.5 417.5 c 128,-1,49
 229 429 229 429 209 429 c 0,50,51
 165 429 165 429 127 391 c 2,52,-1
 116 380 l 1,53,54
 113 380 113 380 113 383.5 c 128,-1,55
 113 387 113 387 124 398 c 0,56,57
 168 443 168 443 227 443 c 0,58,59
 257 443 257 443 272 429 c 128,-1,60
 287 415 287 415 287 393 c 0,61,62
 287 374.3 287 374.3 275.5 350.15 c 2,63,-1
 249 296.5 l 1,64,-1
 223 248 l 2,65,66
 214 231 214 231 208 221 c 1,67,68
 246 202 246 202 297.5 202 c 128,-1,69
 349 202 349 202 414 216 c 1,70,-1
 527 421 l 2,71,72
 530 427 530 427 546.5 431 c 128,-1,73
 563 435 563 435 572.5 439 c 128,-1,74
 582 443 582 443 586.5 443 c 128,-1,75
 591 443 591 443 591 440 c 128,-1,76
 591 437 591 437 565 402 c 1,77,78
 526 344 526 344 461 227 c 1,0,-1
EndSplineSet
EndChar

StartChar: I
Encoding: 73 73 42
Width: 345
GlyphClass: 2
Flags: W
HStem: -6 9<104.56 159.312> 388 10<221.416 274> 475 12<246.059 305.75>
VStem: 38 35<32.5552 88.4683> 170 28<405.638 450.613> 301 23<426.685 466.019>
AnchorPoint: "Anchor-5" 403 500 basechar 0
AnchorPoint: "Anchor-4" 101 0 basechar 0
LayerCount: 2
Fore
SplineSet
282 398 m 1,0,1
 301 425 301 425 301 441 c 128,-1,2
 301 457 301 457 290 466 c 128,-1,3
 279 475 279 475 258.5 475 c 128,-1,4
 238 475 238 475 218 463 c 128,-1,5
 198 451 198 451 198 429.5 c 128,-1,6
 198 408 198 408 219.5 403 c 128,-1,7
 241 398 241 398 282 398 c 1,0,1
83 115 m 1,8,9
 73 103 73 103 73 78 c 128,-1,10
 73 53 73 53 94 28 c 128,-1,11
 115 3 115 3 141.5 3 c 128,-1,12
 168 3 168 3 189.5 28 c 128,-1,13
 211 53 211 53 235 104 c 0,14,15
 315 273 315 273 410 405 c 1,16,17
 363 391 363 391 288 388 c 1,18,19
 256 348 256 348 185 287 c 0,20,21
 177 279 177 279 174 279 c 128,-1,22
 171 279 171 279 171 282 c 128,-1,23
 171 285 171 285 182.5 294 c 128,-1,24
 194 303 194 303 226.5 336 c 128,-1,25
 259 369 259 369 274 388 c 1,26,27
 170 388 170 388 170 422 c 0,28,29
 170 449 170 449 210.5 468 c 128,-1,30
 251 487 251 487 287.5 487 c 128,-1,31
 324 487 324 487 324 459 c 0,32,33
 324 442 324 442 296 399 c 1,34,35
 364 403 364 403 398 415.5 c 128,-1,36
 432 428 432 428 469 428 c 0,37,38
 473 428 473 428 473 426 c 128,-1,39
 473 424 473 424 470.5 422 c 128,-1,40
 468 420 468 420 464.5 418 c 128,-1,41
 461 416 461 416 459 413 c 0,42,43
 367 281 367 281 284 112 c 0,44,45
 226 -6 226 -6 121 -6 c 0,46,47
 89 -6 89 -6 63.5 14.5 c 128,-1,48
 38 35 38 35 38 68 c 0,49,50
 38 71 38 71 47.5 80.5 c 128,-1,51
 57 90 57 90 64 98.5 c 2,52,-1
 75 112 l 2,53,54
 79 117 79 117 81 117 c 128,-1,55
 83 117 83 117 83 115 c 1,8,9
EndSplineSet
EndChar

StartChar: J
Encoding: 74 74 43
Width: 352
GlyphClass: 2
Flags: W
HStem: -424 14<-98.208 -52.6376> 388 10<218.416 271> 475 12<243.059 302.75>
VStem: -167 39<-389.923 -234.386> 167 28<405.638 450.613> 298 23<426.685 466.019>
AnchorPoint: "Anchor-5" 390 500 basechar 0
LayerCount: 2
Fore
SplineSet
176 -29 m 1,0,1
 100 -48 100 -48 61 -67 c 1,2,3
 -39 -119 -39 -119 -83 -176 c 128,-1,4
 -127 -233 -127 -233 -128 -321 c 0,5,6
 -128 -363 -128 -363 -114 -386.5 c 128,-1,7
 -100 -410 -100 -410 -75 -410 c 0,8,9
 -26 -410 -26 -410 23 -338 c 0,10,11
 92 -235 92 -235 168.065 -48.4892 c 0,12,13
 173 -35 173 -35 176 -29 c 1,0,1
293 399 m 1,14,15
 361 403 361 403 395 415.5 c 128,-1,16
 429 428 429 428 466 428 c 0,17,18
 470 428 470 428 470 426 c 128,-1,19
 470 424 470 424 467.5 422 c 128,-1,20
 465 420 465 420 461.5 417.5 c 128,-1,21
 458 415 458 415 450 405.5 c 128,-1,22
 442 396 442 396 428.5 377.5 c 2,23,24
 405.5 345.5 l 2,25,26
 396 332 396 332 383 309 c 2,27,-1
 364 276 l 2,28,29
 358 266 358 266 344 237 c 2,30,-1
 229 -5 l 1,31,32
 291 10 291 10 321 25.5 c 128,-1,33
 351 41 351 41 385.5 70.5 c 128,-1,34
 420 100 420 100 436 124 c 0,35,36
 438 127 438 127 440 127 c 128,-1,37
 442 127 442 127 442 125.5 c 128,-1,38
 442 124 442 124 441 122 c 0,39,40
 389 53 389 53 325 19 c 0,41,42
 287 -2 287 -2 222 -18 c 1,43,44
 119 -232 119 -232 46 -334 c 0,45,46
 -19 -424 -19 -424 -91 -424 c 0,47,48
 -167 -424 -167 -424 -167 -318 c 0,49,50
 -167 -246 -167 -246 -110.5 -174 c 128,-1,51
 -54 -102 -54 -102 59 -52 c 0,52,53
 109 -30 109 -30 182 -15 c 1,54,55
 208 50 208 50 235 104 c 1,56,57
 303 247 303 247 361 335 c 2,58,-1
 407 405 l 1,59,60
 360 391 360 391 285 388 c 1,61,62
 253 348 253 348 182 287 c 0,63,64
 174 279 174 279 171 279 c 128,-1,65
 168 279 168 279 168 282 c 128,-1,66
 168 285 168 285 179.5 294 c 128,-1,67
 191 303 191 303 223.5 336 c 128,-1,68
 256 369 256 369 271 388 c 1,69,70
 167 388 167 388 167 422 c 0,71,72
 167 449 167 449 207.5 468 c 128,-1,73
 248 487 248 487 284.5 487 c 128,-1,74
 321 487 321 487 321 459 c 0,75,76
 321 442 321 442 293 399 c 1,14,15
279 398 m 1,77,78
 298 425 298 425 298 441 c 128,-1,79
 298 457 298 457 287 466 c 128,-1,80
 276 475 276 475 255.5 475 c 128,-1,81
 235 475 235 475 215 463 c 128,-1,82
 195 451 195 451 195 429.5 c 128,-1,83
 195 408 195 408 216.5 403 c 128,-1,84
 238 398 238 398 279 398 c 1,77,78
EndSplineSet
EndChar

StartChar: K
Encoding: 75 75 44
Width: 407
GlyphClass: 2
Flags: W
HStem: -103 11<416.106 472.235> -74 20G<539.75 541.25> -14 21G<17.5 48> 223 21G<112 124> 429 14<183.299 233.29>
VStem: 250 41<319.855 424.625>
AnchorPoint: "Anchor-5" 378 500 basechar 0
AnchorPoint: "Anchor-3" 156 -50 basechar 0
LayerCount: 2
Fore
SplineSet
185 224 m 1,0,-1
 198 247 l 1,1,-1
 175 239 l 1,2,3
 178 232 178 232 185 224 c 1,0,-1
124 225 m 1,4,-1
 114 223 l 2,5,6
 110 223 110 223 110 227.5 c 128,-1,7
 110 232 110 232 207 264 c 1,8,9
 250 342 250 342 250 379 c 0,10,11
 250 429 250 429 209 429 c 0,12,13
 165 429 165 429 127 391 c 2,14,-1
 116 380 l 1,15,16
 113 380 113 380 113 383.5 c 128,-1,17
 113 387 113 387 124 398 c 0,18,19
 168 443 168 443 227 443 c 0,20,21
 257 443 257 443 274 428.5 c 128,-1,22
 291 414 291 414 291 385.5 c 128,-1,23
 291 357 291 357 253 283 c 1,24,25
 454 374 454 374 508 414 c 0,26,27
 541 438 541 438 554 438 c 0,28,29
 556 438 556 438 556 435 c 128,-1,30
 556 432 556 432 538.5 417 c 0,31,32
 486.416 372.356 486.416 372.356 424 347 c 1,33,-1
 245 267 l 1,34,-1
 204 192 l 1,35,36
 307.47 16.3735 307.47 16.3735 344.5 -33 c 0,37,38
 358 -51 358 -51 386 -71.5 c 128,-1,39
 414 -92 414 -92 452 -92 c 128,-1,40
 490 -92 490 -92 537 -56 c 0,41,42
 539 -54 539 -54 540.5 -54 c 128,-1,43
 542 -54 542 -54 542 -55 c 0,44,45
 542 -70 542 -70 505.5 -86.5 c 128,-1,46
 469 -103 469 -103 422.5 -103 c 128,-1,47
 376 -103 376 -103 343 -81.5 c 0,48,49
 289.768 -46.8187 289.768 -46.8187 181 150 c 1,50,51
 125 50 125 50 86 -1 c 0,52,53
 75 -14 75 -14 21 -14 c 0,54,55
 14 -14 14 -14 14 -12 c 128,-1,56
 14 -10 14 -10 17.5 -8.5 c 0,57,58
 30.7097 -2.83871 30.7097 -2.83871 40 8 c 0,59,60
 98 75 98 75 162 184 c 1,61,62
 137 225 137 225 124 225 c 1,4,-1
EndSplineSet
EndChar

StartChar: L
Encoding: 76 76 45
Width: 384
GlyphClass: 2
Flags: W
HStem: -152 25<440.216 557.392> -12 21<62.5 121.581> 128 27<146.722 187.031> 424 19<286.34 334.594>
VStem: 47 30<-2 51.9769> 340 39<330.894 423.293>
AnchorPoint: "Anchor-5" 367 500 basechar 0
AnchorPoint: "Anchor-3" 162 -50 basechar 0
AnchorPoint: "Anchor-1" 442 383 basechar 0
AnchorPoint: "Anchor-0" 385 200 basechar 0
LayerCount: 2
Fore
SplineSet
241 391 m 2,0,-1
 230 380 l 1,1,2
 227 380 227 380 227 383.5 c 128,-1,3
 227 387 227 387 238 398 c 0,4,5
 281 443 281 443 329 443 c 0,6,7
 349 443 349 443 364 432.5 c 128,-1,8
 379 422 379 422 379 398 c 0,9,10
 379 358 379 358 323 256 c 128,-1,11
 267 154 267 154 226 97 c 1,12,13
 255 10 255 10 341 -58.5 c 128,-1,14
 427 -127 427 -127 513 -127 c 0,15,16
 571 -127 571 -127 609 -91 c 0,17,18
 613 -87 613 -87 616.5 -81.5 c 128,-1,19
 620 -76 620 -76 622.5 -73.5 c 128,-1,20
 625 -71 625 -71 627 -71 c 128,-1,21
 629 -71 629 -71 629 -76.5 c 128,-1,22
 629 -82 629 -82 615 -99 c 0,23,24
 570 -152 570 -152 485 -152 c 0,25,26
 409.812 -152 409.812 -152 330.5 -105 c 0,27,28
 290 -81 290 -81 256.5 -36 c 128,-1,29
 223 9 223 9 204 69 c 1,30,31
 138 -12 138 -12 78 -12 c 0,32,33
 47 -12 47 -12 47 8 c 0,34,35
 47 44 47 44 98.5 99.5 c 128,-1,36
 150 155 150 155 184 155 c 0,37,38
 203 155 203 155 218 119 c 1,39,40
 277 212 277 212 308.5 286.5 c 128,-1,41
 340 361 340 361 340 392.5 c 128,-1,42
 340 424 340 424 314 424 c 0,43,44
 274 424 274 424 241 391 c 2,0,-1
198 89 m 1,45,46
 187 128 187 128 167 128 c 0,47,48
 139 128 139 128 108 93 c 128,-1,49
 77 58 77 58 77 28 c 0,50,51
 77 9 77 9 96 9 c 0,52,53
 124 9 124 9 147.5 30 c 128,-1,54
 171 51 171 51 198 89 c 1,45,46
EndSplineSet
EndChar

StartChar: M
Encoding: 77 77 46
Width: 585
GlyphClass: 2
Flags: W
HStem: -151 24<565.433 649.828> -76 20G<715 729> -14 21G<17.5 48.5> 408 24<348.617 390.379> 425 18<175.125 221.2> 426 24<557.703 605.077>
VStem: 232 43<335.065 422.715> 406 40<360 399.498> 461 41<-74.4739 105.872> 619 45<344.839 418.149>
AnchorPoint: "Anchor-5" 487 544 basechar 0
AnchorPoint: "Anchor-3" 271 -50 basechar 0
LayerCount: 2
Fore
SplineSet
268 353 m 1,0,1
 291 377 291 377 305.5 390 c 128,-1,2
 320 403 320 403 344 417.5 c 128,-1,3
 368 432 368 432 388 432 c 0,4,5
 446 432 446 432 446 360 c 1,6,7
 544 450 544 450 608 450 c 0,8,9
 631 450 631 450 647.5 438.5 c 128,-1,10
 664 427 664 427 664 403.5 c 128,-1,11
 664 380 664 380 638.5 337.5 c 128,-1,12
 613 295 613 295 583 253.5 c 128,-1,13
 553 212 553 212 527.5 147 c 128,-1,14
 502 82 502 82 502 13 c 128,-1,15
 502 -56 502 -56 534.5 -91.5 c 128,-1,16
 567 -127 567 -127 618.5 -127 c 128,-1,17
 670 -127 670 -127 715 -72 c 2,18,-1
 728 -56 l 1,19,20
 730 -56 730 -56 730 -58 c 0,21,22
 730 -78 730 -78 688.5 -114.5 c 128,-1,23
 647 -151 647 -151 592 -151 c 128,-1,24
 537 -151 537 -151 499 -113 c 128,-1,25
 461 -75 461 -75 461 -10 c 128,-1,26
 461 55 461 55 485.5 117.5 c 128,-1,27
 510 180 510 180 540 222.5 c 0,28,29
 619 334.417 619 334.417 619 386 c 0,30,31
 619 406 619 406 605.5 416 c 128,-1,32
 592 426 592 426 575 426 c 2,33,-1
 572 426 l 1,34,35
 530 425 530 425 440 335 c 1,36,37
 430 311 430 311 424 302.5 c 128,-1,38
 418 294 418 294 400.5 284.5 c 128,-1,39
 383 275 383 275 377.5 275 c 128,-1,40
 372 275 372 275 372 277 c 0,41,42
 372 286 372 286 402 316 c 1,43,44
 406 327 406 327 406 344 c 0,45,46
 406 408 406 408 361 408 c 0,47,48
 343 408 343 408 307.5 374.5 c 128,-1,49
 272 341 272 341 246 304 c 1,50,51
 205 238 205 238 151 129 c 128,-1,52
 97 20 97 20 83 -1 c 1,53,54
 76 -14 76 -14 21 -14 c 0,55,56
 14 -14 14 -14 14 -11 c 0,57,58
 14 -10 14 -10 17.5 -9 c 0,59,60
 28 -6 28 -6 43.5 13 c 128,-1,61
 59 32 59 32 90.5 91 c 2,62,-1
 183.5 262 l 1,63,-1
 208 310.5 l 2,64,65
 232 359.357 232 359.357 232 382.179 c 0,66,67
 232 425 232 425 198 425 c 0,68,69
 161 425 161 425 127 391 c 0,70,71
 117 381 117 381 115 381 c 128,-1,72
 113 381 113 381 113 384 c 128,-1,73
 113 387 113 387 124 398 c 0,74,75
 168 443 168 443 217 443 c 0,76,77
 275 443 275 443 275 393 c 0,78,79
 275 373 275 373 268 353 c 1,0,1
EndSplineSet
EndChar

StartChar: N
Encoding: 78 78 47
Width: 455
GlyphClass: 2
Flags: W
HStem: -16 25G<44.5 47.5 307 330> 404 32<282.825 332.5 552.641 601.728>
VStem: 85 35<124 146.992> 297 41<37 403.994>
AnchorPoint: "Anchor-5" 456 500 basechar 0
AnchorPoint: "Anchor-3" 163 -50 basechar 0
LayerCount: 2
Fore
SplineSet
77 147 m 1,0,-1
 64 142 l 2,1,2
 62 142 62 142 62 145 c 1,3,-1
 78 155 l 1,4,-1
 94 164 l 1,5,6
 109 164 109 164 114.5 149 c 128,-1,7
 120 134 120 134 120 124 c 1,8,-1
 274 407 l 1,9,10
 288 436 288 436 324 436 c 0,11,12
 341 436 341 436 341 406 c 2,13,-1
 338 37 l 1,14,15
 354 78 354 78 432 228.5 c 128,-1,16
 510 379 510 379 532 401 c 0,17,18
 560 429 560 429 572 433 c 128,-1,19
 584 437 584 437 592 437 c 128,-1,20
 600 437 600 437 607.5 433 c 128,-1,21
 615 429 615 429 615 425.5 c 128,-1,22
 615 422 615 422 596 404.5 c 128,-1,23
 577 387 577 387 575 387 c 128,-1,24
 573 387 573 387 573 390 c 0,25,26
 573 399 573 399 559.5 399 c 128,-1,27
 546 399 546 399 535 382 c 0,28,29
 496 324 496 324 436 198 c 128,-1,30
 376 72 376 72 355 18 c 0,31,32
 343 -12 343 -12 317 -12 c 0,33,34
 297 -12 297 -12 297 36 c 2,35,-1
 299 380 l 2,36,37
 299 404 299 404 296 404 c 0,38,39
 290 404 290 404 281 386 c 2,40,-1
 87 18 l 2,41,42
 79.6567 5.14925 79.6567 5.14925 70.8284 1.07463 c 128,-1,43
 62 -3 62 -3 58.5 -5 c 128,-1,44
 55 -7 55 -7 52 -11.5 c 128,-1,45
 49 -16 49 -16 46 -16 c 128,-1,46
 43 -16 43 -16 43 -14.5 c 128,-1,47
 43 -13 43 -13 46 -5.5 c 128,-1,48
 49 2 49 2 55 15 c 0,49,50
 85 80 85 80 85 113.5 c 128,-1,51
 85 147 85 147 77 147 c 1,0,-1
EndSplineSet
EndChar

StartChar: O
Encoding: 79 79 48
Width: 480
GlyphClass: 2
Flags: W
HStem: -12 30<178.074 296.417> 426 17<321.616 400.072>
VStem: 77 41<73.1976 217.215> 440 28<362.918 398.417> 504 31<226.601 378.001>
AnchorPoint: "Anchor-5" 420 500 basechar 0
AnchorPoint: "Anchor-4" 219 0 basechar 0
AnchorPoint: "Anchor-3" 194 -50 basechar 0
LayerCount: 2
Fore
SplineSet
523.5 399.5 m 128,-1,1
 535 355 535 355 535 303 c 128,-1,2
 535 251 535 251 503.5 189 c 128,-1,3
 472 127 472 127 425 84 c 128,-1,4
 378 41 378 41 323.5 14.5 c 128,-1,5
 269 -12 269 -12 216.5 -12 c 128,-1,6
 164 -12 164 -12 120.5 24.5 c 128,-1,7
 77 61 77 61 77 116.5 c 128,-1,8
 77 172 77 172 101.5 228.5 c 128,-1,9
 126 285 126 285 165 333 c 128,-1,10
 204 381 204 381 263 412 c 128,-1,11
 322 443 322 443 384 443 c 0,12,13
 411 443 411 443 439.5 425.5 c 128,-1,14
 468 408 468 408 468 389 c 0,15,16
 468 385.5 468 385.5 463.5 378.75 c 128,-1,17
 459 372 459 372 452.5 360 c 128,-1,18
 446 348 446 348 445 348 c 0,19,20
 440 348 440 348 440 353 c 0,21,22
 440 392 440 392 415 409 c 128,-1,23
 390 426 390 426 363 426 c 0,24,25
 251 426 251 426 178 317 c 0,26,27
 118 228 118 228 118 160.5 c 128,-1,28
 118 93 118 93 150.5 55.5 c 128,-1,29
 183 18 183 18 236 18 c 0,30,31
 335 18 335 18 419.5 104.5 c 128,-1,32
 504 191 504 191 504 297 c 0,33,34
 504 346 504 346 484 388.5 c 0,35,36
 480 397 480 397 477.5 403.5 c 128,-1,37
 475 410 475 410 471 417 c 1,38,39
 471 420 471 420 481.5 432 c 128,-1,40
 492 444 492 444 497 444 c 0,41,0
 512 444 512 444 523.5 399.5 c 128,-1,1
EndSplineSet
EndChar

StartChar: P
Encoding: 80 80 49
Width: 420
GlyphClass: 2
Flags: W
HStem: -16 21G<34.75 38.25> 317 20<186.24 202.998> 415 28<379.946 447.503>
VStem: 203 41<273.737 333.827> 465 42<322.94 401.077>
AnchorPoint: "Anchor-5" 461 500 basechar 0
LayerCount: 2
Fore
SplineSet
182 182 m 1,0,1
 255 201 255 201 315 223.5 c 128,-1,2
 375 246 375 246 420 285 c 128,-1,3
 465 324 465 324 465 360 c 0,4,5
 465 382 465 382 450.5 398.5 c 128,-1,6
 436 415 436 415 410 415 c 0,7,8
 308 415 308 415 182 182 c 1,0,1
203 310 m 0,9,10
 203 317 203 317 193 317 c 2,11,-1
 176 317 l 2,12,13
 171 317 171 317 171 320.5 c 128,-1,14
 171 324 171 324 200.5 330.5 c 128,-1,15
 230 337 230 337 237 337 c 128,-1,16
 244 337 244 337 244 332.5 c 128,-1,17
 244 328 244 328 209 258 c 1,18,19
 257.935 350.718 257.935 350.718 344.5 409 c 0,20,21
 395 443 395 443 432 443 c 128,-1,22
 469 443 469 443 488 426.5 c 128,-1,23
 507 410 507 410 507 376.5 c 128,-1,24
 507 343 507 343 473 307 c 128,-1,25
 439 271 439 271 402 250.5 c 128,-1,26
 365 230 365 230 320 212.5 c 128,-1,27
 275 195 275 195 178 166 c 1,28,29
 116 42 116 42 100 2 c 0,30,31
 97.2 -5.00001 97.2 -5.00001 79.6 -5 c 128,-1,32
 62 -5 62 -5 54.5 -8 c 128,-1,33
 47 -11 47 -11 43.5 -13.5 c 128,-1,34
 40 -16 40 -16 36.5 -16 c 128,-1,35
 33 -16 33 -16 33 -13 c 1,36,-1
 50 17 l 1,37,38
 98 95 98 95 131 156 c 1,39,40
 203 294 203 294 203 310 c 0,9,10
EndSplineSet
EndChar

StartChar: Q
Encoding: 81 81 50
Width: 480
GlyphClass: 2
Flags: W
HStem: -186 26<436.323 548.277> -78 20G<653.5 659.5> -12 30<177.689 284.508> 426 17<321.616 400.072>
VStem: 77 41<73.1976 217.215> 263 38<37.2324 199.949> 440 28<362.918 398.417> 504 31<223.837 377.652> 649 14<-82.0662 -58.0022>
AnchorPoint: "Anchor-5" 420 500 basechar 0
AnchorPoint: "Anchor-4" 219 0 basechar 0
AnchorPoint: "Anchor-3" 194 -50 basechar 0
LayerCount: 2
Fore
SplineSet
477 -186 m 0,0,1
 354 -186 354 -186 292 1 c 1,2,3
 253 -12 253 -12 223 -12 c 0,4,5
 164 -12 164 -12 120.5 24.5 c 128,-1,6
 77 61 77 61 77 116.5 c 128,-1,7
 77 172 77 172 101.5 228.5 c 128,-1,8
 126 285 126 285 165 333 c 128,-1,9
 204 381 204 381 263 412 c 128,-1,10
 322 443 322 443 384 443 c 0,11,12
 411 443 411 443 439.5 425.5 c 128,-1,13
 468 408 468 408 468 389 c 0,14,15
 468 385.5 468 385.5 463.5 378.75 c 128,-1,16
 459 372 459 372 452.5 360 c 128,-1,17
 446 348 446 348 445 348 c 0,18,19
 440 348 440 348 440 353 c 0,20,21
 440 392 440 392 415 409 c 128,-1,22
 390 426 390 426 363 426 c 0,23,24
 251 426 251 426 178 317 c 0,25,26
 118 228 118 228 118 160.5 c 128,-1,27
 118 93 118 93 150.5 55.5 c 128,-1,28
 183 18 183 18 236 18 c 0,29,30
 261 18 261 18 285 24 c 1,31,32
 263 109 263 109 263 186 c 0,33,34
 263 189 263 189 277.5 197.5 c 128,-1,35
 292 206 292 206 296.5 206 c 128,-1,36
 301 206 301 206 301 204 c 0,37,38
 298 172.5 298 172.5 298 128.25 c 128,-1,39
 298 84 298 84 309 32 c 1,40,41
 389 61 389 61 446.5 136.5 c 128,-1,42
 504 212 504 212 504 297 c 0,43,44
 504 346 504 346 484 388.5 c 0,45,46
 480 397 480 397 477.5 403.5 c 128,-1,47
 475 410 475 410 471 417 c 1,48,49
 471 420 471 420 481.5 432 c 128,-1,50
 492 444 492 444 497 444 c 0,51,52
 512 444 512 444 523.5 399.5 c 128,-1,53
 535 355 535 355 535 315 c 0,54,55
 535 217 535 217 469 132.5 c 128,-1,56
 403 48 403 48 315 10 c 1,57,58
 333 -62 333 -62 383 -111 c 128,-1,59
 433 -160 433 -160 495.5 -160 c 128,-1,60
 558 -160 558 -160 600.5 -127.5 c 128,-1,61
 643 -95 643 -95 649 -67 c 0,62,63
 651 -58 651 -58 656 -58 c 0,64,65
 663 -58 663 -58 663 -64 c 0,66,67
 663 -75.9667 663 -75.9667 641.5 -102.483 c 128,-1,68
 620 -129 620 -129 599.5 -145.5 c 128,-1,69
 579 -162 579 -162 546.5 -174 c 128,-1,70
 514 -186 514 -186 477 -186 c 0,0,1
EndSplineSet
EndChar

StartChar: R
Encoding: 82 82 51
Width: 390
GlyphClass: 2
Flags: W
HStem: -133 11<388.274 443.382> -16 21G<42.75 46.25> 423 20<366.152 437.5>
VStem: 447 37<339.027 407.393>
AnchorPoint: "Anchor-5" 451 500 basechar 0
AnchorPoint: "Anchor-3" 154 -50 basechar 0
LayerCount: 2
Fore
SplineSet
158 207 m 1,0,-1
 163 217 l 1,1,-1
 153 215 l 1,2,-1
 158 207 l 1,0,-1
215 239 m 1,3,4
 447 290.556 447 290.556 447 369 c 0,5,6
 447 390 447 390 431.5 406.5 c 128,-1,7
 416 423 416 423 389 423 c 0,8,9
 339 423 339 423 302 378.5 c 128,-1,10
 265 334 265 334 215 239 c 1,3,4
51.5 -13.5 m 128,-1,12
 48 -16 48 -16 44.5 -16 c 128,-1,13
 41 -16 41 -16 41 -14 c 128,-1,14
 41 -12 41 -12 45 -5.5 c 128,-1,15
 49 1 49 1 54.5 8.5 c 128,-1,16
 60 16 60 16 77.5 48.5 c 2,17,-1
 149 189 l 1,18,19
 135 217 135 217 135 222 c 0,20,21
 135 224 135 224 170 230 c 1,22,23
 204 295 204 295 226 327 c 1,24,25
 259 380 259 380 317 411.5 c 128,-1,26
 375 443 375 443 424 443 c 0,27,28
 451 443 451 443 467.5 429 c 128,-1,29
 484 415 484 415 484 389 c 0,30,31
 484 285 484 285 208 226 c 1,32,-1
 180 172 l 1,33,-1
 291 -11 l 1,34,35
 323 -69 323 -69 352.5 -95.5 c 128,-1,36
 382 -122 382 -122 421 -122 c 0,37,38
 475 -122 475 -122 505 -79 c 1,39,40
 512 -72 512 -72 520 -72 c 128,-1,41
 528 -72 528 -72 528 -76 c 2,42,-1
 528 -79 l 1,43,44
 470 -133 470 -133 401.5 -133 c 128,-1,45
 333 -133 333 -133 297 -79 c 0,46,47
 275 -46 275 -46 227.5 43 c 2,48,-1
 169 152 l 1,49,-1
 145 97 l 2,50,51
 132 66 132 66 121.5 38 c 2,52,-1
 108 2 l 2,53,54
 105.2 -5.00001 105.2 -5.00001 87.6 -5 c 128,-1,55
 70 -5 70 -5 62.5 -8 c 128,-1,11
 55 -11 55 -11 51.5 -13.5 c 128,-1,12
EndSplineSet
EndChar

StartChar: S
Encoding: 83 83 52
Width: 376
GlyphClass: 2
Flags: W
HStem: -17 21<130.871 212.577> 421 22<314.268 387.163>
VStem: 38 36<40.2088 97.5> 209 35<291.853 370.556> 312 41<79.8505 176.923> 415 35<379.859 403.161>
AnchorPoint: "Anchor-5" 394 500 basechar 0
AnchorPoint: "Anchor-4" 150 0 basechar 0
AnchorPoint: "Anchor-3" 128 -50 basechar 0
LayerCount: 2
Fore
SplineSet
83 115 m 1,0,1
 74 100 74 100 74 95 c 0,2,3
 74 47 74 47 109 25.5 c 128,-1,4
 144 4 144 4 182 4 c 0,5,6
 240 4 240 4 276 40.5 c 128,-1,7
 312 77 312 77 312 108.5 c 128,-1,8
 312 140 312 140 296 169.5 c 128,-1,9
 280 199 280 199 260.5 220 c 128,-1,10
 241 241 241 241 225 268.5 c 128,-1,11
 209 296 209 296 209 319 c 0,12,13
 209 368 209 368 263.5 405.5 c 128,-1,14
 318 443 318 443 373 443 c 0,15,16
 398 443 398 443 417 431.5 c 128,-1,17
 436 420 436 420 443 409.5 c 128,-1,18
 450 399 450 399 450 396 c 128,-1,19
 450 393 450 393 446.5 390 c 128,-1,20
 443 387 443 387 436.5 382.5 c 2,21,-1
 427 376 l 2,22,23
 419 370 419 370 417 370 c 128,-1,24
 415 370 415 370 415 373 c 0,25,26
 415 391 415 391 394 406 c 128,-1,27
 373 421 373 421 334.5 421 c 128,-1,28
 296 421 296 421 270 396 c 128,-1,29
 244 371 244 371 244 344.5 c 128,-1,30
 244 318 244 318 261 292 c 128,-1,31
 278 266 278 266 298.5 245 c 128,-1,32
 319 224 319 224 336 196 c 128,-1,33
 353 168 353 168 353 143 c 0,34,35
 353 82 353 82 285 32.5 c 128,-1,36
 217 -17 217 -17 154.5 -17 c 128,-1,37
 92 -17 92 -17 65 10 c 128,-1,38
 38 37 38 37 38 68 c 0,39,40
 38 71 38 71 47.5 80.5 c 128,-1,41
 57 90 57 90 64 98.5 c 2,42,-1
 75 112 l 2,43,44
 79 117 79 117 81 117 c 128,-1,45
 83 117 83 117 83 115 c 1,0,1
EndSplineSet
EndChar

StartChar: T
Encoding: 84 84 53
Width: 364
GlyphClass: 2
Flags: W
HStem: -14 21G<74.5 105> 414 21<178.306 318 370 488.292> 444 5<544.104 545.308> 544 8<247.371 300.505>
VStem: 333 43<436.735 525.53>
AnchorPoint: "Anchor-5" 374 530 basechar 0
AnchorPoint: "Anchor-4" 113 0 basechar 0
AnchorPoint: "Anchor-3" 85 -50 basechar 0
LayerCount: 2
Fore
SplineSet
143 -1 m 1,0,1
 132 -14 132 -14 78 -14 c 0,2,3
 71 -14 71 -14 71 -11 c 0,4,5
 71 -10 71 -10 74.5 -9 c 0,6,7
 86.2564 -5.64103 86.2564 -5.64103 96 8 c 0,8,9
 148 77 148 77 218.5 202.5 c 128,-1,10
 289 328 289 328 318 414 c 1,11,12
 150 414 150 414 119.5 383.5 c 0,13,14
 117 381 117 381 115 381 c 128,-1,15
 113 381 113 381 113 384 c 128,-1,16
 113 387 113 387 129 403 c 128,-1,17
 145 419 145 419 183 426 c 128,-1,18
 221 433 221 433 325 435 c 1,19,20
 333 465 333 465 333 483 c 0,21,22
 333 544 333 544 275 544 c 0,23,24
 248 544 248 544 221 531 c 0,25,26
 220 531 220 531 210 523.5 c 128,-1,27
 200 516 200 516 195.5 516 c 128,-1,28
 191 516 191 516 191 519 c 0,29,30
 191 526 191 526 219.5 539 c 128,-1,31
 248 552 248 552 287.5 552 c 128,-1,32
 327 552 327 552 351.5 529 c 128,-1,33
 376 506 376 506 376 466 c 0,34,35
 376 455.5 376 455.5 370 436 c 1,36,37
 515 439.333 515 439.333 542.5 448.5 c 0,38,39
 544 449 544 449 545 449 c 0,40,41
 555 449 555 449 548 444 c 0,42,43
 524 428 524 428 476 422.5 c 128,-1,44
 428 417 428 417 363 415 c 1,45,46
 333 335 333 335 251.5 187 c 128,-1,47
 170 39 170 39 143 -1 c 1,0,1
EndSplineSet
EndChar

StartChar: U
Encoding: 85 85 54
Width: 508
GlyphClass: 2
Flags: W
HStem: -8 24<168.836 237.717 379.718 439.259> 429 14<183.443 234.63>
VStem: 101 47<29.974 142.754> 249 42<339.312 425.442> 360 38<16.1274 100.094>
AnchorPoint: "Anchor-5" 421 500 basechar 0
AnchorPoint: "Anchor-4" 191 0 basechar 0
AnchorPoint: "Anchor-3" 188 -50 basechar 0
LayerCount: 2
Fore
SplineSet
274 429 m 128,-1,1
 291 415 291 415 291 389.5 c 128,-1,2
 291 364 291 364 219.5 241 c 128,-1,3
 148 118 148 118 148 83 c 128,-1,4
 148 48 148 48 164 32 c 128,-1,5
 180 16 180 16 206 16 c 0,6,7
 287 16 287 16 399 151 c 1,8,9
 450 261 450 261 477 308.5 c 128,-1,10
 504 356 504 356 539 400 c 0,11,12
 563 429 563 429 580 429 c 0,13,14
 586 429 586 429 586 425 c 0,15,16
 586 404 586 404 474 232 c 0,17,18
 452 198 452 198 425 133.5 c 128,-1,19
 398 69 398 69 398 36 c 0,20,21
 398 15 398 15 428 15 c 0,22,23
 470 15 470 15 539 71 c 0,24,25
 578 103 578 103 592 124 c 0,26,27
 594 127 594 127 596 127 c 128,-1,28
 598 127 598 127 598 125.5 c 128,-1,29
 598 124 598 124 597 122 c 0,30,31
 544 57 544 57 472 18 c 0,32,33
 431 -4 431 -4 395.5 -4 c 128,-1,34
 360 -4 360 -4 360 32 c 0,35,36
 360 58 360 58 383 110 c 1,37,38
 344 73 344 73 320.5 53 c 128,-1,39
 297 33 297 33 257.5 12.5 c 128,-1,40
 218 -8 218 -8 182 -8 c 128,-1,41
 146 -8 146 -8 123.5 13 c 128,-1,42
 101 34 101 34 101 68.5 c 128,-1,43
 101 103 101 103 138 174.5 c 128,-1,44
 175 246 175 246 212 310 c 128,-1,45
 249 374 249 374 249 390 c 0,46,47
 249 429 249 429 207 429 c 128,-1,48
 165 429 165 429 127 391 c 0,49,50
 117 381 117 381 115 381 c 128,-1,51
 113 381 113 381 113 384 c 128,-1,52
 113 387 113 387 124 398 c 0,53,54
 168 443 168 443 227 443 c 0,55,0
 257 443 257 443 274 429 c 128,-1,1
EndSplineSet
EndChar

StartChar: V
Encoding: 86 86 55
Width: 419
GlyphClass: 2
Flags: W
HStem: -17 21G<95.5 102.5> 425 18<175.125 219.829>
VStem: 231 44<267.626 422.568>
AnchorPoint: "Anchor-5" 393 500 basechar 0
AnchorPoint: "Anchor-3" 92 -50 basechar 0
LayerCount: 2
Fore
SplineSet
181 81 m 1,0,1
 280 217 280 217 424 338 c 0,2,3
 517 417 517 417 579 443 c 0,4,5
 589 447 589 447 593 447 c 128,-1,6
 597 447 597 447 597 444 c 0,7,8
 597 443 597 443 581 435 c 0,9,10
 506 395 506 395 428 325 c 0,11,12
 285 197 285 197 186 59 c 0,13,14
 163 26 163 26 153 9 c 0,15,16
 151 5 151 5 127 -8 c 1,17,18
 106 -17 106 -17 99 -17 c 128,-1,19
 92 -17 92 -17 92 -10 c 128,-1,20
 92 -3 92 -3 100.5 14 c 128,-1,21
 109 31 109 31 122 54.5 c 2,22,-1
 139 85 l 1,23,24
 231 277 231 277 231 376 c 0,25,26
 231 425 231 425 198 425 c 0,27,28
 161 425 161 425 127 391 c 0,29,30
 117 381 117 381 115 381 c 128,-1,31
 113 381 113 381 113 384 c 128,-1,32
 113 387 113 387 124 398 c 0,33,34
 168 443 168 443 217 443 c 0,35,36
 246 443 246 443 260.5 422.5 c 128,-1,37
 275 402 275 402 275 375 c 0,38,39
 275 290 275 290 181 81 c 1,0,1
EndSplineSet
EndChar

StartChar: W
Encoding: 87 87 56
Width: 601
GlyphClass: 2
Flags: W
HStem: -28 10<417.514 471.442> -12 21G<38 53> 135 27<264.973 330.833> 425 19<175.804 226.959 368.892 409.287> 437 10<399.966 473.468>
VStem: 239 45<323.306 417.594> 590 35<117.54 314.621>
AnchorPoint: "Anchor-5" 418 500 basechar 0
AnchorPoint: "Anchor-3" 234 -50 basechar 0
LayerCount: 2
Fore
SplineSet
221 444 m 0,0,1
 284 444 284 444 284 388 c 0,2,3
 284 364.632 284 364.632 271.5 338.316 c 2,4,5
 250 294.5 l 2,6,7
 241 277 241 277 222 244 c 2,8,-1
 90 20 l 1,9,10
 137 66 137 66 205 114 c 128,-1,11
 273 162 273 162 317 162 c 0,12,13
 344.667 162 344.667 162 351.333 150 c 0,14,15
 361.885 131.006 361.885 131.006 370.943 91.0032 c 128,-1,16
 380 51 380 51 384 37 c 128,-1,17
 388 23 388 23 394.5 8.5 c 0,18,19
 406.379 -18 406.379 -18 444.19 -18 c 128,-1,20
 482 -18 482 -18 513.5 10 c 128,-1,21
 545 38 545 38 560.5 78.5 c 0,22,23
 590 155.581 590 155.581 590 198.29 c 128,-1,24
 590 241 590 241 583 276 c 128,-1,25
 576 311 576 311 560 349 c 128,-1,26
 544 387 544 387 512 412 c 128,-1,27
 480 437 480 437 440.5 437 c 128,-1,28
 401 437 401 437 379 423 c 0,29,30
 372 419 372 419 365 419 c 128,-1,31
 358 419 358 419 358 424 c 1,32,33
 356 429 356 429 367 434 c 0,34,35
 397 447 397 447 444.5 447 c 128,-1,36
 492 447 492 447 530.5 426 c 128,-1,37
 569 405 569 405 588.5 371 c 0,38,39
 625 307.359 625 307.359 625 237.179 c 128,-1,40
 625 167 625 167 605.5 111 c 128,-1,41
 586 55 586 55 540 13.5 c 128,-1,42
 494 -28 494 -28 429 -28 c 0,43,44
 381.348 -28 381.348 -28 361 -8.5 c 0,45,46
 349 3 349 3 342 11 c 128,-1,47
 335 19 335 19 329 41 c 128,-1,48
 323 63 323 63 321 72.5 c 2,49,-1
 313 110 l 2,50,51
 308 135 308 135 293 135 c 0,52,53
 258.609 135 258.609 135 171 70 c 1,54,-1
 108.5 21.5 l 2,55,56
 77 -4 77 -4 71 -8 c 128,-1,57
 65 -12 65 -12 41 -12 c 0,58,59
 35 -12 35 -12 35 -4 c 128,-1,60
 35 4.09278 35 4.09278 94 106.546 c 2,61,-1
 200 290.5 l 1,62,63
 239 361.536 239 361.536 239 390 c 0,64,65
 239 404 239 404 228.5 414.5 c 128,-1,66
 218 425 218 425 198 425 c 0,67,68
 161 425 161 425 127 391 c 0,69,70
 117 381 117 381 115 381 c 128,-1,71
 113 381 113 381 113 384 c 128,-1,72
 113 387 113 387 124 398 c 0,73,74
 169 444 169 444 221 444 c 0,0,1
EndSplineSet
EndChar

StartChar: X
Encoding: 88 88 57
Width: 445
GlyphClass: 2
Flags: W
HStem: -53 24<390.271 454.627> -26 20G<491.5 494.5> -4 25<9.98474 85.2273> 417 26<205.918 248.816 528.745 588.395>
VStem: 563 42<400.375 423.403>
AnchorPoint: "Anchor-5" 418 500 basechar 0
AnchorPoint: "Anchor-3" 214 -50 basechar 0
LayerCount: 2
Fore
SplineSet
21 38.5 m 128,-1,1
 24 41 24 41 25.5 41 c 128,-1,2
 27 41 27 41 30 36 c 0,3,4
 39 21 39 21 67.5 21 c 128,-1,5
 96 21 96 21 110 32 c 1,6,7
 139 49 139 49 176.5 86.5 c 128,-1,8
 214 124 214 124 287 206 c 1,9,10
 286 214 286 214 284 239.5 c 128,-1,11
 282 265 282 265 280 282.5 c 128,-1,12
 278 300 278 300 274.5 326.5 c 128,-1,13
 271 353 271 353 267 365.5 c 128,-1,14
 263 378 263 378 256.5 392 c 0,15,16
 244.893 417 244.893 417 220.946 417 c 128,-1,17
 197 417 197 417 171 391 c 0,18,19
 161 381 161 381 159 381 c 128,-1,20
 157 381 157 381 157 384 c 128,-1,21
 157 387 157 387 168 398 c 0,22,23
 210 443 210 443 246 443 c 0,24,25
 288.597 443 288.597 443 304.5 385 c 0,26,27
 315.503 344.873 315.503 344.873 325 248 c 1,28,29
 436 369 436 369 494 411 c 1,30,31
 545 443 545 443 574 443 c 0,32,33
 596.429 443 596.429 443 603 431.5 c 0,34,35
 605 428 605 428 605 425.5 c 128,-1,36
 605 423 605 423 596.5 416 c 128,-1,37
 588 409 588 409 582 402.5 c 128,-1,38
 576 396 576 396 571.5 392 c 128,-1,39
 567 388 567 388 565 388 c 128,-1,40
 563 388 563 388 563 389.5 c 128,-1,41
 563 391 563 391 565 393.5 c 128,-1,42
 567 396 567 396 567 402 c 128,-1,43
 567 408 567 408 559 413.5 c 128,-1,44
 551 419 551 419 537 419 c 128,-1,45
 523 419 523 419 499 399 c 0,46,47
 445 355 445 355 327 224 c 1,48,49
 341 68 341 68 357 27 c 0,50,51
 378 -29 378 -29 434 -29 c 0,52,53
 467 -29 467 -29 483 -13 c 0,54,55
 490 -6 490 -6 493 -6 c 128,-1,56
 496 -6 496 -6 496 -10.5 c 128,-1,57
 496 -15 496 -15 483.5 -25 c 128,-1,58
 471 -35 471 -35 447.5 -44 c 128,-1,59
 424 -53 424 -53 400 -53 c 0,60,61
 335 -53 335 -53 313 21 c 0,62,63
 300 67 300 67 289 181 c 1,64,65
 185 63 185 63 114 22 c 1,66,67
 66 -4 66 -4 29 -4 c 0,68,69
 12 -4 12 -4 1 2 c 128,-1,70
 -10 8 -10 8 -10 10 c 128,-1,71
 -10 12 -10 12 -0.5 19.5 c 128,-1,72
 9 27 9 27 13.5 31.5 c 128,-1,0
 18 36 18 36 21 38.5 c 128,-1,1
EndSplineSet
EndChar

StartChar: Y
Encoding: 89 89 58
Width: 508
GlyphClass: 2
Flags: W
HStem: -483 15<-45.5604 12.4052> -8 24<172.691 246.485> 429 14<183.572 235.483>
VStem: -112 49<-463.273 -343.533> 107 47<25.2524 144.076> 250 40<341.323 424.803>
AnchorPoint: "Anchor-5" 421 500 basechar 0
AnchorPoint: "Anchor-4" 197 0 basechar 0
LayerCount: 2
Fore
SplineSet
291 -84 m 1,0,1
 -63 -258 -63 -258 -63 -419 c 0,2,3
 -63 -468 -63 -468 -17 -468 c 0,4,5
 85 -468 85 -468 174 -303 c 1,6,7
 257 -154 257 -154 291 -84 c 1,0,1
530.5 334.5 m 128,-1,9
 491 262 491 262 468 224.5 c 128,-1,10
 445 187 445 187 402 89.5 c 128,-1,11
 359 -8 359 -8 338 -48 c 1,12,13
 455 7 455 7 539 71 c 1,14,15
 578 103 578 103 592 124 c 0,16,17
 594 127 594 127 596 127 c 128,-1,18
 598 127 598 127 598 125.5 c 128,-1,19
 598 124 598 124 597 122 c 0,20,21
 567 84 567 84 538 61 c 0,22,23
 470 5 470 5 329 -65 c 1,24,25
 288 -148 288 -148 198 -299 c 0,26,27
 173 -341 173 -341 142.5 -378 c 128,-1,28
 112 -415 112 -415 63.5 -449 c 128,-1,29
 15 -483 15 -483 -28.5 -483 c 128,-1,30
 -72 -483 -72 -483 -92 -464.5 c 128,-1,31
 -112 -446 -112 -446 -112 -415 c 0,32,33
 -112 -257 -112 -257 300 -65 c 1,34,-1
 383 110 l 1,35,36
 310.082 40.9195 310.082 40.9195 270.929 16.4597 c 128,-1,37
 231.777 -8 231.777 -8 191.888 -8 c 128,-1,38
 152 -8 152 -8 129.5 12 c 128,-1,39
 107 32 107 32 107 67 c 128,-1,40
 107 102 107 102 142.5 173.5 c 128,-1,41
 178 245 178 245 214 309.5 c 128,-1,42
 250 374 250 374 250 390 c 0,43,44
 250 429 250 429 207.5 429 c 128,-1,45
 165 429 165 429 127 391 c 2,46,-1
 116 380 l 1,47,48
 113 380 113 380 113 383.5 c 128,-1,49
 113 387 113 387 124 398 c 0,50,51
 168 443 168 443 227 443 c 0,52,53
 257 443 257 443 273.5 428.5 c 128,-1,54
 290 414 290 414 290 395 c 128,-1,55
 290 376 290 376 256 314 c 128,-1,56
 222 252 222 252 188 182.5 c 128,-1,57
 154 113 154 113 154 77 c 0,58,59
 154 16 154 16 212 16 c 0,60,61
 287 16 287 16 399 151 c 1,62,-1
 467.5 297 l 2,63,64
 479 321 479 321 485 332 c 2,65,-1
 500 359 l 2,66,67
 539.375 429 539.375 429 564 429 c 0,68,69
 570 429 570 429 570 425 c 0,70,8
 570 407 570 407 530.5 334.5 c 128,-1,9
EndSplineSet
EndChar

StartChar: Z
Encoding: 90 90 59
Width: 417
GlyphClass: 2
Flags: W
HStem: -89 24<424.095 526.271> -30 20G<569.25 571.75> -2 21G<58 62> 15 30<110.828 222.359> 391 18<337.171 449.031> 410 21<215.361 315.055>
AnchorPoint: "Anchor-5" 381 500 basechar 0
AnchorPoint: "Anchor-3" 162 -50 basechar 0
LayerCount: 2
Fore
SplineSet
327.5 420 m 128,-1,1
 374 409 374 409 409 409 c 128,-1,2
 444 409 444 409 467.5 416.5 c 128,-1,3
 491 424 491 424 496.5 424 c 128,-1,4
 502 424 502 424 508.5 420 c 128,-1,5
 515 416 515 416 515 414 c 2,6,7
 515 411 l 2,8,9
 515 408 515 408 511 406 c 128,-1,10
 507 404 507 404 503.5 401.5 c 128,-1,11
 500 399 500 399 496.5 396 c 2,12,13
 474 377 l 1,14,-1
 110 42 l 1,15,16
 136 45 136 45 151 45 c 0,17,18
 196 45 196 45 251 17.5 c 2,19,20
 361.5 -37.5 l 2,21,22
 417 -65 417 -65 462.5 -65 c 128,-1,23
 508 -65 508 -65 538 -47 c 128,-1,24
 568 -29 568 -29 568 -15 c 0,25,26
 568 -10 568 -10 570.5 -10 c 128,-1,27
 573 -10 573 -10 578 -20 c 128,-1,28
 583 -30 583 -30 582 -34.5 c 128,-1,29
 581 -39 581 -39 575.5 -48.5 c 128,-1,30
 570 -58 570 -58 548.5 -73.5 c 128,-1,31
 527 -89 527 -89 488 -89 c 128,-1,32
 449 -89 449 -89 385 -63 c 2,33,-1
 261 -11 l 2,34,35
 201 15 201 15 162 15 c 128,-1,36
 123 15 123 15 93.5 6.5 c 128,-1,37
 64 -2 64 -2 60 -2 c 128,-1,38
 56 -2 56 -2 46.5 2.5 c 128,-1,39
 37 7 37 7 32.5 8 c 128,-1,40
 28 9 28 9 27 9.5 c 128,-1,41
 26 10 26 10 26 12 c 128,-1,42
 26 14 26 14 35 23 c 2,43,-1
 450 398 l 1,44,45
 416 391 416 391 382.5 391 c 128,-1,46
 349 391 349 391 311.5 400.5 c 128,-1,47
 274 410 274 410 240 410 c 128,-1,48
 206 410 206 410 191 395.5 c 128,-1,49
 176 381 176 381 174 381 c 128,-1,50
 172 381 172 381 172 384 c 128,-1,51
 172 387 172 387 183 398 c 0,52,53
 215 431 215 431 269 431 c 0,54,0
 281 431 281 431 327.5 420 c 128,-1,1
EndSplineSet
EndChar

StartChar: bracketleft
Encoding: 91 91 60
Width: 270
GlyphClass: 2
Flags: W
HStem: -71 8<121.8 191.995> 499 8<399.608 466.725>
LayerCount: 2
Fore
SplineSet
129.5 -60 m 128,-1,1
 155 -63 155 -63 173.5 -63 c 128,-1,2
 192 -63 192 -63 192 -67 c 128,-1,3
 192 -71 192 -71 182 -71 c 2,4,-1
 27 -71 l 2,5,6
 22 -71 22 -71 22 -67 c 1,7,-1
 46 -19 l 1,8,-1
 309 481 l 1,9,10
 321 507 321 507 329 507 c 2,11,-1
 462 507 l 2,12,13
 467 507 467 507 467 504 c 0,14,15
 467 499 467 499 445.5 499 c 128,-1,16
 424 499 424 499 389 493.5 c 128,-1,17
 354 488 354 488 349 479 c 2,18,-1
 84 -23 l 2,19,20
 75 -41 75 -41 75 -45 c 128,-1,21
 75 -49 75 -49 89.5 -53 c 128,-1,0
 104 -57 104 -57 129.5 -60 c 128,-1,1
EndSplineSet
EndChar

StartChar: backslash
Encoding: 92 92 61
Width: 178
GlyphClass: 2
Flags: W
HStem: -69 21G<219 221>
VStem: 24 212
LayerCount: 2
Fore
SplineSet
24 532 m 2,0,1
 24 534 24 534 30.5 538 c 128,-1,2
 37 542 37 542 41 542 c 2,3,-1
 42 542 l 1,4,-1
 236 -58 l 2,5,6
 236 -60 236 -60 229 -64.5 c 128,-1,7
 222 -69 222 -69 220 -69 c 1,8,-1
 219 -68 l 1,9,-1
 24 532 l 2,0,1
EndSplineSet
EndChar

StartChar: bracketright
Encoding: 93 93 62
Width: 270
GlyphClass: 2
Flags: W
HStem: -71 8<-53.7253 13.3921> 499 8<221.005 291.2>
LayerCount: 2
Fore
SplineSet
283.5 496 m 128,-1,1
 258 499 258 499 239.5 499 c 128,-1,2
 221 499 221 499 221 503 c 128,-1,3
 221 507 221 507 231 507 c 2,4,-1
 386 507 l 2,5,6
 391 507 391 507 391 503 c 1,7,-1
 367 455 l 1,8,-1
 104 -45 l 1,9,10
 92 -71 92 -71 84 -71 c 2,11,-1
 -49 -71 l 2,12,13
 -54 -71 -54 -71 -54 -68 c 0,14,15
 -54 -63 -54 -63 -32.5 -63 c 128,-1,16
 -11 -63 -11 -63 24 -57.5 c 128,-1,17
 59 -52 59 -52 64 -43 c 2,18,-1
 329 459 l 2,19,20
 338 477 338 477 338 481 c 128,-1,21
 338 485 338 485 323.5 489 c 128,-1,0
 309 493 309 493 283.5 496 c 128,-1,1
EndSplineSet
EndChar

StartChar: asciicircum
Encoding: 94 94 63
Width: 253
GlyphClass: 2
Flags: W
HStem: 272 172
VStem: 109 227
LayerCount: 2
Fore
SplineSet
218 428 m 0,0,1
 221 433 221 433 231.5 438.5 c 128,-1,2
 242 444 242 444 243.5 444 c 128,-1,3
 245 444 245 444 255 420 c 128,-1,4
 265 396 265 396 287.5 359 c 128,-1,5
 310 322 310 322 323 305.5 c 128,-1,6
 336 289 336 289 336 286.5 c 128,-1,7
 336 284 336 284 324.5 278 c 128,-1,8
 313 272 313 272 308 272 c 1,9,10
 257 343 257 343 225 414 c 1,11,12
 175 351 175 351 136 290 c 0,13,14
 135 287 135 287 124 281 c 128,-1,15
 113 275 113 275 111 275 c 128,-1,16
 109 275 109 275 109 276 c 2,17,-1
 110.119 277.457 l 1,18,19
 134.601 302.068 134.601 302.068 218 428 c 0,0,1
EndSplineSet
EndChar

StartChar: underscore
Encoding: 95 95 64
Width: 317
GlyphClass: 2
Flags: W
HStem: -50 20<-13.3423 323.564>
LayerCount: 2
Fore
SplineSet
301 -50 m 2,0,-1
 -16 -50 l 2,1,2
 -20 -50 -20 -50 -20 -48 c 1,3,4
 -15 -43 -15 -43 -12.5 -38.5 c 0,5,6
 -7.77778 -30 -7.77778 -30 5 -30 c 2,7,-1
 322 -30 l 2,8,9
 325 -30 325 -30 325 -35.5 c 128,-1,10
 325 -41 325 -41 317.5 -45.5 c 128,-1,11
 310 -50 310 -50 301 -50 c 2,0,-1
EndSplineSet
EndChar

StartChar: grave
Encoding: 96 96 65
Width: 126
GlyphClass: 2
Flags: W
HStem: 273 121
VStem: 141 65
LayerCount: 2
Fore
SplineSet
201 285 m 1,0,-1
 206 274 l 2,1,2
 206 273 206 273 203 273 c 128,-1,3
 200 273 200 273 198 277 c 2,4,-1
 142 369 l 2,5,6
 141 370 141 370 141 375 c 0,7,8
 141 394 141 394 151 394 c 0,9,10
 156 394 156 394 158 389 c 2,11,-1
 201 285 l 1,0,-1
EndSplineSet
EndChar

StartChar: a
Encoding: 97 97 66
Width: 306
GlyphClass: 2
Flags: W
HStem: 0 17<52 112.859 183 259.612> 219 12<177.384 230.506>
VStem: 31 39<18.1247 119.418> 165 38<14.8931 49.3536> 268 13<140.436 172.5>
AnchorPoint: "Anchor-5" 240 274 basechar 0
AnchorPoint: "Anchor-4" 214 -1 basechar 0
AnchorPoint: "Anchor-3" 84 -50 basechar 0
LayerCount: 2
Fore
SplineSet
217 84 m 1,0,1
 268 135 268 135 268 152 c 0,2,3
 268 156 268 156 264 156 c 0,4,5
 254 156 254 156 217 84 c 1,0,1
207 219 m 0,6,7
 159 219 159 219 114.5 161.5 c 128,-1,8
 70 104 70 104 70 52 c 0,9,10
 70 17 70 17 98 17 c 0,11,12
 129 17 129 17 167 45 c 1,13,14
 178 82 178 82 209 125 c 128,-1,15
 240 168 240 168 260 176 c 1,16,17
 243 219 243 219 207 219 c 0,6,7
205 231 m 0,18,19
 253 231 253 231 268 178 c 1,20,21
 281 178 281 178 281 167 c 0,22,23
 281 151.429 281 151.429 276.5 143.714 c 128,-1,24
 272 136 272 136 270 132 c 128,-1,25
 268 128 268 128 262.5 121.5 c 2,26,-1
 254.5 112 l 2,27,28
 252 109 252 109 245 102 c 2,29,30
 211 69 l 1,31,32
 203 43 203 43 203 34 c 0,33,34
 203 13 203 13 238.5 13 c 128,-1,35
 274 13 274 13 341 71 c 0,36,37
 374 100 374 100 383 113.5 c 128,-1,38
 392 127 392 127 394 127 c 128,-1,39
 396 127 396 127 396 125.5 c 128,-1,40
 396 124 396 124 395 122 c 0,41,42
 346 57 346 57 279 18 c 0,43,44
 237 -6 237 -6 201 -6 c 128,-1,45
 165 -6 165 -6 165 26 c 0,46,47
 165 28 165 28 165.5 31 c 128,-1,48
 166 34 166 34 166 35 c 1,49,50
 109 0 109 0 73 0 c 0,51,52
 31 0 31 0 31 54.5 c 128,-1,53
 31 109 31 109 88.5 170 c 128,-1,54
 146 231 146 231 205 231 c 0,18,19
EndSplineSet
EndChar

StartChar: b
Encoding: 98 98 67
Width: 331
GlyphClass: 2
Flags: W
HStem: -10 20<131.017 181.708> 229 20<240.632 302> 690 24<451.191 499.5>
VStem: 68 37<26.6946 130.631> 305 34<139.425 219.635> 468 40<605.003 702.957>
AnchorPoint: "Anchor-5" 325 274 basechar 0
AnchorPoint: "Anchor-3" 88 -50 basechar 0
LayerCount: 2
Fore
SplineSet
141 175 m 1,0,1
 105 115 105 115 105 72 c 0,2,3
 105 47 105 47 121.5 28.5 c 128,-1,4
 138 10 138 10 160 10 c 0,5,6
 206 10 206 10 255.5 68 c 128,-1,7
 305 126 305 126 305 186 c 0,8,9
 305 209 305 209 290.5 219 c 128,-1,10
 276 229 276 229 260 229 c 0,11,12
 216 229 216 229 141 175 c 1,0,1
60 198 m 128,-1,14
 60 200 60 200 106.5 234 c 2,15,-1
 171 282 l 1,16,-1
 281 490.5 l 2,17,18
 298 523 298 523 306 537 c 2,19,-1
 330.5 578 l 2,20,21
 374.34 649.738 374.34 649.738 429 688 c 1,22,23
 464 714 464 714 491 714 c 0,24,25
 508 714 508 714 508 692 c 0,26,27
 508 581.989 508 581.989 373.5 449 c 0,28,29
 329 405 329 405 296.5 377 c 2,30,-1
 213 308 l 1,31,-1
 149 190 l 1,32,33
 234 249 234 249 292 249 c 0,34,35
 312 249 312 249 325.5 236.5 c 128,-1,36
 339 224 339 224 339 204 c 0,37,38
 339 140 339 140 268.5 65 c 128,-1,39
 198 -10 198 -10 136 -10 c 0,40,41
 106 -10 106 -10 87 9 c 128,-1,42
 68 28 68 28 68 60 c 128,-1,43
 68 92 68 92 84 126 c 128,-1,44
 100 160 100 160 164 269 c 1,45,-1
 67 199 l 1,46,-1
 62 196 l 1,47,13
 60 196 60 196 60 198 c 128,-1,14
221 324 m 1,48,49
 333 417 333 417 400.5 501 c 128,-1,50
 468 585 468 585 468 670 c 0,51,52
 468 690 468 690 455 690 c 0,53,54
 432 690 432 690 387.5 625.5 c 128,-1,55
 343 561 343 561 294 466 c 2,56,-1
 221 324 l 1,48,49
EndSplineSet
EndChar

StartChar: c
Encoding: 99 99 68
Width: 234
GlyphClass: 2
Flags: W
HStem: -11 12<96.0362 150.031> 214 20<165.847 217>
VStem: 34 38<13.6603 113.799> 197 33<186.278 212.668>
AnchorPoint: "Anchor-5" 204 274 basechar 0
AnchorPoint: "Anchor-4" 102 0 basechar 0
AnchorPoint: "Anchor-3" 76 -50 basechar 0
LayerCount: 2
Fore
SplineSet
197 175 m 0,0,1
 195 175 195 175 196 178.5 c 128,-1,2
 197 182 197 182 197 191 c 128,-1,3
 197 200 197 200 189.5 207 c 128,-1,4
 182 214 182 214 174 214 c 0,5,6
 144 214 144 214 108 157.5 c 128,-1,7
 72 101 72 101 72 66.5 c 128,-1,8
 72 32 72 32 84 16.5 c 128,-1,9
 96 1 96 1 127 1 c 128,-1,10
 158 1 158 1 197.5 22 c 128,-1,11
 237 43 237 43 269.5 71.5 c 128,-1,12
 302 100 302 100 311 113.5 c 128,-1,13
 320 127 320 127 322 127 c 128,-1,14
 324 127 324 127 324 125.5 c 128,-1,15
 324 124 324 124 313 108.5 c 128,-1,16
 302 93 302 93 273 68 c 0,17,18
 185 -11 185 -11 108 -11 c 0,19,20
 77 -11 77 -11 55.5 3 c 128,-1,21
 34 17 34 17 34 45 c 0,22,23
 35 111 35 111 97 172.5 c 128,-1,24
 159 234 159 234 204 234 c 0,25,26
 230 234 230 234 230 205 c 0,27,28
 230 196 230 196 227 191.5 c 128,-1,29
 224 187 224 187 212.5 181 c 128,-1,30
 201 175 201 175 197 175 c 0,0,1
EndSplineSet
EndChar

StartChar: d
Encoding: 100 100 69
Width: 341
GlyphClass: 2
Flags: W
HStem: 0 17<52 113.464 227.73 285.811> 219 12<177.384 231.157> 651 14<548.757 580>
VStem: 31 39<18.1247 119.418> 189 33<17.1957 72.4695> 567 22<590.124 650.967>
AnchorPoint: "Anchor-5" 225 274 basechar 0
AnchorPoint: "Anchor-4" 112 0 basechar 0
AnchorPoint: "Anchor-3" 100 -50 basechar 0
AnchorPoint: "Anchor-1" 622 583 basechar 0
LayerCount: 2
Fore
SplineSet
265 163 m 1,0,-1
 238 107 l 1,1,2
 289 163 289 163 361 255.5 c 128,-1,3
 433 348 433 348 465.5 402.5 c 128,-1,4
 498 457 498 457 532.5 532 c 128,-1,5
 567 607 567 607 567 637 c 0,6,7
 567 651 567 651 558 651 c 0,8,9
 535 651 535 651 497 600 c 0,10,11
 439.454 522.767 439.454 522.767 386 411 c 2,12,-1
 270 172 l 1,13,14
 271 168 271 168 271 164 c 128,-1,15
 271 160 271 160 268.75 160 c 128,-1,16
 266.5 160 266.5 160 265 163 c 1,0,-1
251 194 m 1,17,18
 235 219 235 219 207 219 c 0,19,20
 159 219 159 219 114.5 161.5 c 128,-1,21
 70 104 70 104 70 52 c 0,22,23
 70 17 70 17 98 17 c 0,24,25
 135 17 135 17 193 65 c 1,26,27
 202 95 202 95 251 194 c 1,17,18
256 205 m 1,28,29
 372.994 440.219 372.994 440.219 386.997 466.609 c 128,-1,30
 401 493 401 493 427 535 c 0,31,32
 476.238 614.538 476.238 614.538 543 655 c 0,33,34
 560 665 560 665 571 665 c 0,35,36
 589 665 589 665 589 640 c 0,37,38
 589 543 589 543 480 386 c 0,39,40
 446 337 446 337 361 235.5 c 128,-1,41
 276 134 276 134 232 90 c 1,42,43
 222 64 222 64 222 45 c 0,44,45
 222 13 222 13 260.5 13 c 128,-1,46
 299 13 299 13 366 71 c 0,47,48
 399 100 399 100 408 113.5 c 128,-1,49
 417 127 417 127 419 127 c 128,-1,50
 421 127 421 127 421 125.5 c 128,-1,51
 421 124 421 124 420 122 c 0,52,53
 371 57 371 57 304 18 c 0,54,55
 266 -4 266 -4 240 -4 c 0,56,57
 189 -4 189 -4 189 39 c 0,58,59
 189 48 189 48 191 56 c 1,60,61
 123 0 123 0 73 0 c 0,62,63
 31 0 31 0 31 54.5 c 128,-1,64
 31 109 31 109 88.5 170 c 128,-1,65
 146 231 146 231 205 231 c 0,66,67
 238 231 238 231 256 205 c 1,28,29
EndSplineSet
EndChar

StartChar: e
Encoding: 101 101 70
Width: 217
GlyphClass: 2
Flags: W
HStem: -8 13<89.7344 141.191> 219 14<169.997 209>
VStem: 30 39<12.334 78.8301> 191 32<186.378 218.879>
AnchorPoint: "Anchor-5" 207 274 basechar 0
AnchorPoint: "Anchor-4" 105 0 basechar 0
AnchorPoint: "Anchor-3" 79 -50 basechar 0
LayerCount: 2
Fore
SplineSet
78 95 m 1,0,1
 69 70 69 70 69 50 c 0,2,3
 69 5 69 5 122 5 c 128,-1,4
 175 5 175 5 252 71 c 0,5,6
 285 100 285 100 294 113.5 c 128,-1,7
 303 127 303 127 305 127 c 128,-1,8
 307 127 307 127 307 125.5 c 128,-1,9
 307 124 307 124 306 122 c 0,10,11
 251 50 251 50 172 10 c 1,12,13
 134 -8 134 -8 98 -8 c 0,14,15
 30 -8 30 -8 30 39 c 0,16,17
 30 46 30 46 34 64 c 1,18,19
 31 62 31 62 26 58 c 2,20,-1
 14 48 l 2,21,22
 13 48 13 48 13 50 c 0,23,24
 13 53.75 13 53.75 36 71 c 1,25,26
 58 139 58 139 112.5 186 c 128,-1,27
 167 233 167 233 195 233 c 128,-1,28
 223 233 223 233 223 213 c 0,29,30
 223 198.724 223 198.724 203 182.862 c 128,-1,31
 183 167 183 167 169.5 157.5 c 2,32,-1
 78 95 l 1,0,1
82 104 m 1,33,34
 141 147 141 147 166 170 c 128,-1,35
 191 193 191 193 191 206 c 128,-1,36
 191 219 191 219 180 219 c 0,37,38
 155 219 155 219 127 184 c 128,-1,39
 99 149 99 149 82 104 c 1,33,34
EndSplineSet
EndChar

StartChar: f
Encoding: 102 102 71
Width: 200
GlyphClass: 2
Flags: W
HStem: -598 25<-380.996 -340.328> 734 20<481.365 543.5>
VStem: -442 32<-536.961 -384.651> 542 34<642.831 720.985>
AnchorPoint: "Anchor-5" 537 788 basechar 0
LayerCount: 2
Fore
SplineSet
38 33 m 1,0,1
 -410 -296 -410 -296 -410 -448 c 0,2,3
 -410 -484 -410 -484 -397 -528.5 c 128,-1,4
 -384 -573 -384 -573 -356 -573 c 0,5,6
 -334 -573 -334 -573 -293 -541.5 c 128,-1,7
 -252 -510 -252 -510 -233 -480 c 0,8,9
 -192 -416 -192 -416 -98 -229 c 128,-1,10
 -4 -42 -4 -42 38 33 c 1,0,1
263 202 m 1,11,-1
 268 205 l 1,12,13
 270 205 270 205 270 203 c 128,-1,14
 270 201 270 201 252 189.5 c 128,-1,15
 234 178 234 178 98 79 c 1,16,17
 -189 -454 -189 -454 -225 -497 c 128,-1,18
 -261 -540 -261 -540 -310 -569 c 128,-1,19
 -359 -598 -359 -598 -379 -598 c 0,20,21
 -413 -598 -413 -598 -427.5 -549.5 c 128,-1,22
 -442 -501 -442 -501 -442 -458.5 c 128,-1,23
 -442 -416 -442 -416 -425 -380 c 128,-1,24
 -408 -344 -408 -344 -384 -311.5 c 128,-1,25
 -360 -279 -360 -279 -318.5 -238.5 c 1,26,-1
 -244.5 -169 l 1,27,28
 -212 -140 -212 -140 -160.5 -100 c 2,29,30
 -81.5 -40 l 1,31,-1
 -7 14 l 2,32,33
 40 48 40 48 49 54 c 1,34,-1
 84 124 l 1,35,-1
 224 391 l 2,36,37
 303 540 303 540 354 617 c 128,-1,38
 405 694 405 694 445 724 c 128,-1,39
 485 754 485 754 532 754 c 0,40,41
 555 754 555 754 565.5 735 c 128,-1,42
 576 716 576 716 576 692.5 c 128,-1,43
 576 669 576 669 554 634 c 0,44,45
 550 626 550 626 534.607 619.214 c 128,-1,46
 519.214 612.429 519.214 612.429 522 618 c 0,47,48
 542 650 542 650 542 676.5 c 128,-1,49
 542 703 542 703 530 718.5 c 128,-1,50
 518 734 518 734 502 734 c 0,51,52
 455 734 455 734 407 664.5 c 128,-1,53
 359 595 359 595 248 377 c 1,54,-1
 106 95 l 1,55,-1
 263 202 l 1,11,-1
EndSplineSet
EndChar

StartChar: g
Encoding: 103 103 72
Width: 290
GlyphClass: 2
Flags: W
HStem: -533 19<-285.347 -190.758> -53 13<36.0682 64.7731> 0 17<51 114.84> 219 13<169.3 222.432>
VStem: -411 34<-440.957 -313.862> 31 38<19.2644 117.632>
AnchorPoint: "Anchor-5" 239 274 basechar 0
LayerCount: 2
Fore
SplineSet
272 161 m 1,0,1
 240 219 240 219 194 219 c 0,2,3
 158 219 158 219 113.5 161 c 128,-1,4
 69 103 69 103 69 46 c 0,5,6
 69 35 69 35 77.5 26 c 128,-1,7
 86 17 86 17 98 17 c 0,8,9
 149 17 149 17 237 105 c 0,10,11
 249 117 249 117 272 161 c 1,0,1
-259 -533 m 0,12,13
 -317 -533 -317 -533 -364 -495 c 128,-1,14
 -411 -457 -411 -457 -411 -394 c 128,-1,15
 -411 -331.176 -411 -331.176 -371 -270 c 0,16,17
 -344.195 -229.004 -344.195 -229.004 -269 -175.5 c 0,18,19
 -243 -157 -243 -157 -203.5 -138 c 2,20,21
 -137 -107 l 2,22,23
 -110 -95 -110 -95 -68 -80.5 c 0,24,25
 5.72973 -55.527 5.72973 -55.527 29.8649 -47.7635 c 128,-1,26
 54 -40 54 -40 59.5 -40 c 128,-1,27
 65 -40 65 -40 65 -45 c 128,-1,28
 65 -50 65 -50 56 -53 c 128,-1,29
 47 -56 47 -56 9.5 -67.5 c 128,-1,30
 -28 -79 -28 -79 -44.5 -84.5 c 2,31,-1
 -99.5 -103.5 l 2,32,33
 -150.818 -121.495 -150.818 -121.495 -198.909 -146.247 c 128,-1,34
 -247 -171 -247 -171 -266 -186 c 128,-1,35
 -285 -201 -285 -201 -309.5 -222.5 c 128,-1,36
 -334 -244 -334 -244 -346.5 -266 c 0,37,38
 -377 -319.68 -377 -319.68 -377 -376.34 c 128,-1,39
 -377 -433 -377 -433 -334.5 -473.5 c 128,-1,40
 -292 -514 -292 -514 -234.5 -514 c 128,-1,41
 -177 -514 -177 -514 -115.5 -459 c 128,-1,42
 -54 -404 -54 -404 -5 -317 c 1,43,-1
 230 89 l 1,44,45
 196 52 196 52 152 26 c 128,-1,46
 108 0 108 0 71 0 c 0,47,48
 31 0 31 0 31 53 c 128,-1,49
 31 106 31 106 86.5 169 c 128,-1,50
 142 232 142 232 193.5 232 c 128,-1,51
 245 232 245 232 275 166 c 1,52,53
 283.733 183.467 283.733 183.467 292 184.5 c 0,54,55
 296 185 296 185 298 186.5 c 128,-1,56
 300 188 300 188 301.5 188 c 128,-1,57
 303 188 303 188 303 185 c 128,-1,58
 303 182 303 182 301 180 c 128,-1,59
 299 178 299 178 282 149 c 1,60,61
 285 143 285 143 285 139.5 c 128,-1,62
 285 136 285 136 283 136 c 1,63,-1
 279 144 l 1,64,-1
 33 -313 l 2,65,66
 -16 -403 -16 -403 -90 -468 c 128,-1,67
 -164 -533 -164 -533 -259 -533 c 0,12,13
EndSplineSet
EndChar

StartChar: h
Encoding: 104 104 73
Width: 335
GlyphClass: 2
Flags: W
HStem: -4 17<235.161 282.836> 234 20<246.211 295> 690 24<450.457 499.5>
VStem: 26 41<-2.47412 49.9763> 214 41<13.2843 97.1835> 288 35<166.195 230.096> 468 40<605.003 702.957>
AnchorPoint: "Anchor-5" 499 760 basechar 0
AnchorPoint: "Anchor-4" 41 0 basechar 0
AnchorPoint: "Anchor-3" 113 -50 basechar 0
LayerCount: 2
Fore
SplineSet
221 324 m 1,0,1
 333 417 333 417 400.5 501 c 128,-1,2
 468 585 468 585 468 670 c 0,3,4
 468 690 468 690 455 690 c 0,5,6
 432 690 432 690 387.5 625.5 c 128,-1,7
 343 561 343 561 294 466 c 2,8,-1
 221 324 l 1,0,1
59 -1 m 2,9,-1
 35 -4 l 1,10,11
 26 -4 26 -4 26 6 c 128,-1,12
 26 16 26 16 86 124 c 1,13,14
 147 239 147 239 164 269 c 1,15,-1
 67 199 l 1,16,-1
 62 196 l 1,17,18
 60 196 60 196 60 198 c 128,-1,19
 60 200 60 200 106.5 234 c 2,20,-1
 171 282 l 1,21,-1
 258 447 l 2,22,23
 263 456 263 456 277.5 484.5 c 128,-1,24
 292 513 292 513 298.5 524.5 c 2,25,-1
 319 560 l 2,26,27
 333 584 333 584 343 597.5 c 2,28,-1
 367 629.5 l 2,29,30
 390.939 661.133 390.939 661.133 427.469 687.567 c 128,-1,31
 464 714 464 714 491 714 c 0,32,33
 508 714 508 714 508 692 c 0,34,35
 508 581.989 508 581.989 373.5 449 c 0,36,37
 329 405 329 405 296.5 377 c 2,38,-1
 213 308 l 1,39,-1
 142 165 l 2,40,41
 143 166 143 166 153.5 175.5 c 2,42,-1
 173.5 193.5 l 2,43,44
 241.118 254 241.118 254 287 254 c 0,45,46
 303 254 303 254 313 242.5 c 128,-1,47
 323 231 323 231 323 209.5 c 128,-1,48
 323 188 323 188 289 125 c 128,-1,49
 255 62 255 62 255 30 c 0,50,51
 255 13 255 13 270 13 c 0,52,53
 287 13 287 13 317 31 c 128,-1,54
 347 49 347 49 376 74.5 c 128,-1,55
 405 100 405 100 414 113.5 c 128,-1,56
 423 127 423 127 425 127 c 128,-1,57
 427 127 427 127 427 125.5 c 128,-1,58
 427 124 427 124 426 122 c 0,59,60
 377 57 377 57 310 18 c 0,61,62
 272 -4 272 -4 248 -4 c 0,63,64
 214 -4 214 -4 214 30 c 128,-1,65
 214 64 214 64 251 130 c 128,-1,66
 288 196 288 196 288 208 c 128,-1,67
 288 220 288 220 282 227 c 128,-1,68
 276 234 276 234 266 234 c 0,69,70
 239 234 239 234 193.5 194 c 128,-1,71
 148 154 148 154 131 128 c 0,72,73
 75 46 75 46 67 3 c 0,74,75
 66 -1 66 -1 59 -1 c 2,9,-1
EndSplineSet
EndChar

StartChar: i
Encoding: 105 105 74
Width: 187
GlyphClass: 2
Flags: W
HStem: -4 17<90.7014 130.322> 213 11<92.8464 135> 315 53<182.516 220.358>
VStem: 44 40<14.778 92.9483> 118 34<156.802 212.742> 179 46<316.485 355.765>
AnchorPoint: "Anchor-4" 81 0 basechar 0
AnchorPoint: "Anchor-3" 58 -50 basechar 0
LayerCount: 2
Fore
SplineSet
179 333 m 0,0,1
 179 344 179 344 189 356 c 128,-1,2
 199 368 199 368 207.5 368 c 128,-1,3
 216 368 216 368 220.5 362.5 c 128,-1,4
 225 357 225 357 225 347.5 c 128,-1,5
 225 338 225 338 216 326.5 c 128,-1,6
 207 315 207 315 195 315 c 0,7,8
 179 315 179 315 179 333 c 0,0,1
81 122.5 m 128,-1,10
 118 182 118 182 118 197.5 c 128,-1,11
 118 213 118 213 104.167 213 c 128,-1,12
 90.3333 213 90.3333 213 62 196 c 1,13,14
 60 196 60 196 60 198 c 128,-1,15
 60 200 60 200 63 202 c 0,16,17
 95 224 95 224 118 224 c 0,18,19
 152 224 152 224 152 193 c 0,20,21
 152 181 152 181 118 121.5 c 128,-1,22
 84 62 84 62 84 39 c 0,23,24
 84 13 84 13 118.5 13 c 128,-1,25
 153 13 153 13 217 66 c 1,26,27
 255 99 255 99 271 124 c 0,28,29
 273 127 273 127 275 127 c 128,-1,30
 277 127 277 127 277 125.5 c 128,-1,31
 277 124 277 124 264 106.5 c 128,-1,32
 251 89 251 89 230.5 70.5 c 128,-1,33
 210 52 210 52 192.5 38.5 c 128,-1,34
 175 25 175 25 144.5 10.5 c 128,-1,35
 114 -4 114 -4 91.5 -4 c 128,-1,36
 69 -4 69 -4 56.5 6 c 128,-1,37
 44 16 44 16 44 39.5 c 128,-1,9
 44 63 44 63 81 122.5 c 128,-1,10
EndSplineSet
EndChar

StartChar: j
Encoding: 106 106 75
Width: 174
GlyphClass: 2
Flags: W
HStem: -500 14<-395.689 -331.247> 210 13<95.8506 155> 315 53<182.516 220.358>
VStem: -513 40<-431.154 -276.646> 116 45<160.009 217.878> 179 46<316.485 355.765>
LayerCount: 2
Fore
SplineSet
179 333 m 0,0,1
 179 344 179 344 189 356 c 128,-1,2
 199 368 199 368 207.5 368 c 128,-1,3
 216 368 216 368 220.5 362.5 c 128,-1,4
 225 357 225 357 225 347.5 c 128,-1,5
 225 338 225 338 216 326.5 c 128,-1,6
 207 315 207 315 195 315 c 0,7,8
 179 315 179 315 179 333 c 0,0,1
10 -21 m 1,9,-1
 -49 -31 l 2,10,11
 -136 -45.5 -136 -45.5 -183 -61.25 c 128,-1,12
 -230 -77 -230 -77 -280.5 -104.5 c 128,-1,13
 -331 -132 -331 -132 -375.5 -169 c 128,-1,14
 -420 -206 -420 -206 -446.5 -255.5 c 128,-1,15
 -473 -305 -473 -305 -473 -358 c 128,-1,16
 -473 -411 -473 -411 -440.5 -448.5 c 128,-1,17
 -408 -486 -408 -486 -352.5 -486 c 128,-1,18
 -297 -486 -297 -486 -240.5 -429 c 128,-1,19
 -184 -372 -184 -372 -146 -303 c 2,20,-1
 10 -21 l 1,9,-1
116 203 m 0,21,22
 116 210 116 210 100.667 210 c 128,-1,23
 85.3333 210 85.3333 210 62 196 c 1,24,25
 60 196 60 196 60 198 c 128,-1,26
 60 200 60 200 63 202 c 0,27,28
 94 223 94 223 149 223 c 0,29,30
 161 223 161 223 161 213 c 0,31,32
 161 201 161 201 120.5 121.5 c 128,-1,33
 80 42 80 42 53 -4 c 1,34,35
 145 17 145 17 210 73 c 0,36,37
 243 102 243 102 251.5 114.5 c 128,-1,38
 260 127 260 127 262 127 c 128,-1,39
 264 127 264 127 264 125.5 c 128,-1,40
 264 124 264 124 251 106.5 c 128,-1,41
 238 89 238 89 213 67 c 0,42,43
 150 11.5 150 11.5 48 -14 c 1,44,-1
 -120 -299 l 2,45,46
 -238 -500 -238 -500 -381 -500 c 0,47,48
 -436 -500 -436 -500 -474.5 -463.5 c 128,-1,49
 -513 -427 -513 -427 -513 -373 c 128,-1,50
 -513 -319 -513 -319 -491 -271.5 c 128,-1,51
 -469 -224 -469 -224 -435.5 -190 c 128,-1,52
 -402 -156 -402 -156 -356 -127 c 0,53,54
 -250.99 -60.798 -250.99 -60.798 -114.5 -33.5 c 0,55,56
 -82 -27 -82 -27 -42.5 -21 c 128,-1,57
 -3 -15 -3 -15 15 -12 c 1,58,59
 116 178 116 178 116 203 c 0,21,22
EndSplineSet
EndChar

StartChar: k
Encoding: 107 107 76
Width: 287
GlyphClass: 2
Flags: W
HStem: -9 17<155.769 222.193> 203 22<245.314 302.068> 690 24<450.457 499.5>
VStem: 91 34<27.0901 72> 468 40<605.003 702.957>
AnchorPoint: "Anchor-5" 499 760 basechar 0
AnchorPoint: "Anchor-3" 73 -50 basechar 0
LayerCount: 2
Fore
SplineSet
221 324 m 1,0,1
 333 417 333 417 400.5 501 c 128,-1,2
 468 585 468 585 468 670 c 0,3,4
 468 690 468 690 455 690 c 0,5,6
 432 690 432 690 387.5 625.5 c 128,-1,7
 343 561 343 561 294 466 c 2,8,-1
 221 324 l 1,0,1
278 203 m 1,9,10
 270 205 270 205 264 205 c 0,11,12
 222 205 222 205 173.5 166 c 128,-1,13
 125 127 125 127 125 82 c 0,14,15
 125 8 125 8 192 8 c 0,16,17
 250 8 250 8 322 71 c 0,18,19
 355 100 355 100 364 113.5 c 128,-1,20
 373 127 373 127 375 127 c 128,-1,21
 377 127 377 127 377 125.5 c 128,-1,22
 377 124 377 124 365 107.5 c 128,-1,23
 353 91 353 91 328 69 c 1,24,25
 250 -9 250 -9 170.5 -9 c 128,-1,26
 91 -9 91 -9 91 64 c 1,27,-1
 92 72 l 1,28,-1
 65.5 23 l 2,29,30
 60 13 60 13 58 7 c 0,31,32
 56 4 56 4 41 -0.5 c 128,-1,33
 26 -5 26 -5 21.5 -5 c 128,-1,34
 17 -5 17 -5 17 -2.5 c 128,-1,35
 17 0 17 0 35 36 c 1,36,-1
 84 124 l 2,37,38
 89 131 89 131 164 269 c 1,39,-1
 67 199 l 1,40,-1
 62 196 l 1,41,42
 60 196 60 196 60 198 c 128,-1,43
 60 200 60 200 106.5 234 c 2,44,-1
 171 282 l 1,45,-1
 258 447 l 2,46,47
 263 456 263 456 277.5 484.5 c 128,-1,48
 292 513 292 513 298.5 524.5 c 2,49,-1
 319 560 l 2,50,51
 333 584 333 584 343 597.5 c 2,52,-1
 367 629.5 l 2,53,54
 390.939 661.133 390.939 661.133 427.469 687.567 c 128,-1,55
 464 714 464 714 491 714 c 0,56,57
 508 714 508 714 508 692 c 0,58,59
 508 581.989 508 581.989 373.5 449 c 0,60,61
 329 405 329 405 296.5 377 c 2,62,-1
 213 308 l 1,63,-1
 127 137 l 1,64,65
 165 177 165 177 215 201 c 128,-1,66
 265 225 265 225 287.5 225 c 128,-1,67
 310 225 310 225 310 222 c 128,-1,68
 310 219 310 219 298 211 c 128,-1,69
 286 203 286 203 278 203 c 1,9,10
EndSplineSet
EndChar

StartChar: l
Encoding: 108 108 77
Width: 218
GlyphClass: 2
Flags: W
HStem: -11 14<70.5 138.283> 690 24<448.191 496.5>
VStem: 47 38<8.64893 87.5732> 465 40<605.003 702.957>
AnchorPoint: "Anchor-5" 499 760 basechar 0
AnchorPoint: "Anchor-3" 48 -50 basechar 0
AnchorPoint: "Anchor-1" 542 603 basechar 0
AnchorPoint: "Anchor-0" 228 200 basechar 0
LayerCount: 2
Fore
SplineSet
218 324 m 1,0,1
 330 417 330 417 397.5 501 c 128,-1,2
 465 585 465 585 465 670 c 0,3,4
 465 690 465 690 452 690 c 0,5,6
 429 690 429 690 384.5 625.5 c 128,-1,7
 340 561 340 561 291 466 c 2,8,-1
 218 324 l 1,0,1
161 269 m 1,9,-1
 67 199 l 1,10,-1
 62 196 l 1,11,12
 60 196 60 196 60 198 c 128,-1,13
 60 200 60 200 92 223 c 128,-1,14
 124 246 124 246 168 282 c 1,15,-1
 301 537.5 l 2,16,17
 327.903 589.384 327.903 589.384 347.451 612.692 c 0,18,19
 391.098 664.732 391.098 664.732 426 688 c 1,20,21
 461 714 461 714 488 714 c 0,22,23
 505 714 505 714 505 692 c 0,24,25
 505 581.989 505 581.989 370.5 449 c 0,26,27
 326 405 326 405 293.5 377 c 2,28,-1
 210 308 l 1,29,-1
 142 175 l 2,30,31
 85 63 85 63 85 34 c 0,32,33
 85 21 85 21 93 12 c 128,-1,34
 101 3 101 3 114 3 c 0,35,36
 175 3 175 3 254 71 c 0,37,38
 287 100 287 100 296 113.5 c 128,-1,39
 305 127 305 127 307 127 c 128,-1,40
 309 127 309 127 309 125.5 c 128,-1,41
 309 124 309 124 308 122 c 0,42,43
 259 57 259 57 200 23 c 128,-1,44
 141 -11 141 -11 94 -11 c 128,-1,45
 47 -11 47 -11 47 30 c 0,46,47
 47 55 47 55 84 124 c 2,48,-1
 161 269 l 1,9,-1
EndSplineSet
EndChar

StartChar: m
Encoding: 109 109 78
Width: 368
GlyphClass: 2
Flags: W
HStem: -182 11<315.276 367.755> -81 20G<508 510> -7 21G<10.75 14.25> 189 23<188.226 221.184 307.111 353.998> 216 14<96.6577 137.5>
VStem: 119 33<156.276 215.979> 205 33<133.058 198.997> 234 33<-134.713 10.0297> 331 46<145.291 203.475>
AnchorPoint: "Anchor-5" 268 274 basechar 0
AnchorPoint: "Anchor-3" 124 -50 basechar 0
LayerCount: 2
Fore
SplineSet
104 216 m 0,0,1
 94 216 94 216 79 206 c 128,-1,2
 64 196 64 196 62 196 c 128,-1,3
 60 196 60 196 60 198 c 128,-1,4
 60 200 60 200 82.5 215 c 128,-1,5
 105 230 105 230 123 230 c 0,6,7
 152 230 152 230 152 207 c 0,8,9
 152 188 152 188 130 151 c 1,10,11
 148.071 168.286 148.071 168.286 153.536 173.143 c 2,12,13
 167 185 l 2,14,15
 197.857 212 197.857 212 222 212 c 0,16,17
 238 212 238 212 238 186 c 0,18,19
 238 168 238 168 225 142 c 1,20,-1
 248 162 l 2,21,22
 262 174 262 174 296 194.5 c 128,-1,23
 330 215 330 215 353.5 215 c 128,-1,24
 377 215 377 215 377 192 c 0,25,26
 377 178 377 178 349.5 136.5 c 0,27,28
 267 12 267 12 267 -71 c 0,29,30
 267 -110 267 -110 286.5 -140.5 c 128,-1,31
 306 -171 306 -171 343.5 -171 c 128,-1,32
 381 -171 381 -171 430.5 -135.5 c 128,-1,33
 480 -100 480 -100 505 -64 c 0,34,35
 507 -61 507 -61 509 -61 c 128,-1,36
 511 -61 511 -61 511 -62.5 c 128,-1,37
 511 -64 511 -64 510 -66 c 0,38,39
 475 -113 475 -113 425.5 -147.5 c 128,-1,40
 376 -182 376 -182 332.5 -182 c 128,-1,41
 289 -182 289 -182 261.5 -152.5 c 128,-1,42
 234 -123 234 -123 234 -78.5 c 128,-1,43
 234 -34 234 -34 249 10.5 c 128,-1,44
 264 55 264 55 282.5 84.5 c 128,-1,45
 301 114 301 114 316 140.5 c 128,-1,46
 331 167 331 167 331 178 c 128,-1,47
 331 189 331 189 315.5 189 c 128,-1,48
 300 189 300 189 270 167 c 128,-1,49
 240 145 240 145 220 121 c 128,-1,50
 200 97 200 97 178 97 c 0,51,52
 175 97 175 97 175 101 c 128,-1,53
 175 105 175 105 176.5 107 c 128,-1,54
 178 109 178 109 181 110.5 c 128,-1,55
 184 112 184 112 185 113 c 0,56,57
 205 156 205 156 205 170.5 c 128,-1,58
 205 185 205 185 197 185 c 0,59,60
 176 185 176 185 127 132 c 0,61,62
 115 118 115 118 85.5 68 c 128,-1,63
 56 18 56 18 54 15 c 128,-1,64
 52 12 52 12 48.5 10 c 128,-1,65
 45 8 45 8 40 6 c 128,-1,66
 35 4 35 4 25.5 -1.5 c 128,-1,67
 16 -7 16 -7 12.5 -7 c 128,-1,68
 9 -7 9 -7 9 -3 c 128,-1,69
 9 1 9 1 13.5 6.5 c 128,-1,70
 18 12 18 12 68.5 98.5 c 128,-1,71
 119 185 119 185 119 200.5 c 128,-1,72
 119 216 119 216 104 216 c 0,0,1
EndSplineSet
EndChar

StartChar: n
Encoding: 110 110 79
Width: 314
GlyphClass: 2
Flags: W
HStem: -10 20<196 253.236> 207 21<223.306 268.097> 214 14<95.3575 132>
VStem: 119 34<162.643 213.967> 183 36<10.1097 69.0217> 251 36<141.131 206.79>
AnchorPoint: "Anchor-5" 228 274 basechar 0
AnchorPoint: "Anchor-3" 102 -50 basechar 0
LayerCount: 2
Fore
SplineSet
38 43 m 0,0,1
 119 179.688 119 179.688 119 202 c 0,2,3
 119 214 119 214 105.5 214 c 128,-1,4
 92 214 92 214 62 196 c 1,5,6
 60 196 60 196 60 198 c 128,-1,7
 60 200 60 200 63 202 c 0,8,9
 98 228 98 228 126 228 c 0,10,11
 138 228 138 228 145.5 221 c 128,-1,12
 153 214 153 214 153 203.5 c 128,-1,13
 153 193 153 193 133 157 c 1,14,15
 214 226 214 226 258 226 c 0,16,17
 287 226 287 226 287 190 c 0,18,19
 287 172 287 172 253 109.5 c 128,-1,20
 219 47 219 47 219 28.5 c 128,-1,21
 219 10 219 10 235 10 c 0,22,23
 280 10 280 10 344 66 c 0,24,25
 383 100 383 100 398 124 c 0,26,27
 400 127 400 127 402 127 c 128,-1,28
 404 127 404 127 404 125.5 c 0,29,30
 404 117 404 117 350 63 c 1,31,32
 312 27 312 27 273.5 8.5 c 128,-1,33
 235 -10 235 -10 209 -10 c 128,-1,34
 183 -10 183 -10 183 13 c 0,35,36
 183 39 183 39 217 101.5 c 128,-1,37
 251 164 251 164 251 185.5 c 128,-1,38
 251 207 251 207 232.5 207 c 128,-1,39
 214 207 214 207 171 176 c 128,-1,40
 128 145 128 145 124 137 c 2,41,-1
 51 4 l 2,42,43
 49.4286 0.85714 49.4286 0.85714 41.7143 -1.07143 c 128,-1,44
 34 -3 34 -3 27 -5.5 c 128,-1,45
 20 -8 20 -8 18 -8 c 0,46,47
 12 -8 12 -8 12 -4.5 c 128,-1,48
 12 -1 12 -1 38 43 c 0,0,1
EndSplineSet
EndChar

StartChar: o
Encoding: 111 111 80
Width: 268
GlyphClass: 2
Flags: W
HStem: -9 13<81.1865 125.16> 200 16<222 230.822> 210 11<168.634 195> 236 22<222.553 239.274>
VStem: 31 37<11.4984 113.611> 195 27<179.211 201> 250.5 10.5<169.251 213.317>
AnchorPoint: "Anchor-5" 239 274 basechar 0
AnchorPoint: "Anchor-4" 91 0 basechar 0
AnchorPoint: "Anchor-3" 66 -50 basechar 0
LayerCount: 2
Fore
SplineSet
228.5 202 m 128,-1,1
 226 200 226 200 225.5 200 c 128,-1,2
 225 200 225 200 222 201 c 1,3,4
 222 191 222 191 230.5 181.5 c 128,-1,5
 239 172 239 172 250 169 c 1,6,7
 251 177 251 177 250.5 191 c 128,-1,8
 250 205 250 205 242 220.5 c 128,-1,9
 234 236 234 236 229 236 c 0,10,11
 222 236 222 236 222 216 c 1,12,13
 231 214 231 214 231 206 c 0,14,0
 231 204 231 204 228.5 202 c 128,-1,1
248 160 m 1,15,16
 228 161 228 161 212 175.5 c 128,-1,17
 196 190 196 190 195 210 c 1,18,19
 150 210 150 210 109 153 c 128,-1,20
 68 96 68 96 68 41 c 0,21,22
 68 27 68 27 76 15.5 c 128,-1,23
 84 4 84 4 100 4 c 0,24,25
 145 4 145 4 190.5 54 c 128,-1,26
 236 104 236 104 248 160 c 1,15,16
338 203 m 128,-1,28
 338 201 338 201 336 199.5 c 128,-1,29
 334 198 334 198 319.5 188 c 128,-1,30
 305 178 305 178 299 174.5 c 0,31,32
 277.123 161.738 277.123 161.738 258 160 c 1,33,34
 246 96 246 96 194.5 43.5 c 128,-1,35
 143 -9 143 -9 87 -9 c 128,-1,36
 31 -9 31 -9 31 42 c 0,37,38
 31 105 31 105 83.5 163 c 128,-1,39
 136 221 136 221 195 221 c 1,40,41
 196 234 196 234 202.5 246 c 128,-1,42
 209 258 209 258 224 258 c 128,-1,43
 239 258 239 258 250 239.5 c 128,-1,44
 261 221 261 221 261 202.5 c 128,-1,45
 261 184 261 184 259 168 c 1,46,47
 282 168 282 168 331 202 c 1,48,-1
 336 205 l 1,49,27
 338 205 338 205 338 203 c 128,-1,28
EndSplineSet
EndChar

StartChar: p
Encoding: 112 112 81
Width: 262
GlyphClass: 2
Flags: W
HStem: -533 12.5<-316.923 -296.149> -25 20<59.7318 155.623> 209 25<215.686 271>
VStem: 73 33<116.479 204.862> 245 39<149.343 208.885>
AnchorPoint: "Anchor-5" 220 274 basechar 0
LayerCount: 2
Fore
SplineSet
74 88 m 1,0,-1
 37 19 l 1,1,2
 114 34 114 34 179.5 91 c 128,-1,3
 245 148 245 148 245 178.5 c 128,-1,4
 245 209 245 209 223 209 c 0,5,6
 204 209 204 209 155.5 168.5 c 128,-1,7
 107 128 107 128 74 88 c 1,0,-1
78 -25 m 0,8,9
 47 -25 47 -25 19 -11 c 1,10,11
 -32 -105 -32 -105 -100 -243.5 c 128,-1,12
 -168 -382 -168 -382 -219 -474 c 0,13,14
 -232 -497 -232 -497 -255.5 -512 c 128,-1,15
 -279 -527 -279 -527 -292.5 -530 c 128,-1,16
 -306 -533 -306 -533 -312 -533 c 128,-1,17
 -318 -533 -318 -533 -318 -530 c 128,-1,18
 -318 -527 -318 -527 -315.5 -525.5 c 128,-1,19
 -313 -524 -313 -524 -306 -520.5 c 128,-1,20
 -299 -517 -299 -517 -289.5 -509.5 c 128,-1,21
 -280 -502 -280 -502 -264.5 -480 c 128,-1,22
 -249 -458 -249 -458 -181 -340 c 1,23,-1
 6 -2 l 1,24,25
 3 1 3 1 3 3 c 128,-1,26
 3 5 3 5 7.5 8.5 c 128,-1,27
 12 12 12 12 14 12 c 1,28,29
 73 120 73 120 73 155 c 128,-1,30
 73 190 73 190 63 193 c 0,31,32
 59 194 59 194 59 197 c 1,33,-1
 68 204 l 2,34,35
 71 206 71 206 75 210 c 128,-1,36
 79 214 79 214 80.5 215 c 0,37,38
 83.5 217 83.5 217 88 217 c 0,39,40
 96 217 96 217 101 202.5 c 128,-1,41
 106 188 106 188 106 170 c 128,-1,42
 106 152 106 152 94 126 c 1,43,44
 204 234 204 234 258 234 c 0,45,46
 284 234 284 234 284 200 c 0,47,48
 284 155 284 155 211 94 c 128,-1,49
 138 33 138 33 49 10 c 1,50,51
 77 -5 77 -5 108 -5 c 0,52,53
 205 -5 205 -5 292 67 c 1,54,55
 329 99 329 99 346 124 c 0,56,57
 348 127 348 127 350 127 c 128,-1,58
 352 127 352 127 352 125.5 c 128,-1,59
 352 124 352 124 338.75 105.75 c 128,-1,60
 325.5 87.5 325.5 87.5 297 62 c 0,61,62
 200 -25 200 -25 78 -25 c 0,8,9
EndSplineSet
EndChar

StartChar: q
Encoding: 113 113 82
Width: 316
GlyphClass: 2
Flags: W
HStem: -513 21G<-107.75 -103.25> -1 18<78.453 120.61> 221 11<180.197 221.553>
VStem: 33 37<22.392 115.943> 222 20<151.916 184.933> 234 8<178.868 209.323> 244.5 54.5<128.429 166.995>
LayerCount: 2
Fore
SplineSet
400 124 m 2,0,1
 402 127 402 127 404 127 c 128,-1,2
 406 127 406 127 406 125.5 c 0,3,4
 406 120.37 406 120.37 355.5 67.6852 c 2,5,-1
 129 -166 l 1,6,-1
 84 -215.5 l 2,7,8
 67 -235 67 -235 56 -251.5 c 128,-1,9
 45 -268 45 -268 5 -335.5 c 2,10,-1
 -68 -458 l 2,11,12
 -101 -513 -101 -513 -105.5 -513 c 128,-1,13
 -110 -513 -110 -513 -116 -506 c 128,-1,14
 -122 -499 -122 -499 -122 -494 c 0,15,16
 -122 -473 -122 -473 -92 -427.5 c 128,-1,17
 -62 -382 -62 -382 -24.5 -337 c 128,-1,18
 13 -292 13 -292 33 -254.5 c 128,-1,19
 53 -217 53 -217 135.5 -74.5 c 128,-1,20
 218 68 218 68 238 105 c 1,21,22
 219 77 219 77 170 38 c 128,-1,23
 121 -1 121 -1 80 -1 c 0,24,25
 60 -1 60 -1 46.5 13 c 128,-1,26
 33 27 33 27 33 49 c 0,27,28
 33 107 33 107 89.5 169.5 c 128,-1,29
 146 232 146 232 194 232 c 128,-1,30
 242 232 242 232 242 188 c 0,31,32
 242 174 242 174 236 157 c 0,33,34
 234 151 234 151 228 151 c 128,-1,35
 222 151 222 151 222 155 c 128,-1,36
 222 159 222 159 228 173.5 c 128,-1,37
 234 188 234 188 234 198 c 128,-1,38
 234 208 234 208 224.5 214.5 c 128,-1,39
 215 221 215 221 203 221 c 0,40,41
 166 221 166 221 118 162 c 128,-1,42
 70 103 70 103 70 46 c 0,43,44
 70 34 70 34 78.5 25.5 c 128,-1,45
 87 17 87 17 100 17 c 0,46,47
 132 17 132 17 174.5 52 c 128,-1,48
 217 87 217 87 240 136 c 0,49,50
 242 140 242 140 244.5 148 c 0,51,52
 250.438 167 250.438 167 252 167 c 0,53,54
 260 171 260 171 279.5 171 c 128,-1,55
 299 171 299 171 299 160 c 0,56,57
 299 157 299 157 288.5 143 c 2,58,-1
 262 108 l 2,59,60
 246 87 246 87 237 71 c 2,61,-1
 90 -186 l 1,62,63
 145 -127 145 -127 355 79 c 1,64,-1
 400 124 l 2,0,1
EndSplineSet
EndChar

StartChar: r
Encoding: 114 114 83
Width: 220
GlyphClass: 2
Flags: W
HStem: -9 21G<32.5 38.6875> 173 12<217.25 252.823> 212 12<90.5559 130> 224 20G<281.75 283.25>
VStem: 115 32<150.537 211.969> 206 33<179.184 210.511>
AnchorPoint: "Anchor-5" 197 274 basechar 0
AnchorPoint: "Anchor-3" 5 -50 basechar 0
LayerCount: 2
Fore
SplineSet
100 212 m 0,0,1
 88.6667 212 88.6667 212 62 196 c 1,2,3
 60 196 60 196 60 198 c 128,-1,4
 60 200 60 200 63 202 c 0,5,6
 95 224 95 224 113 224 c 0,7,8
 147 224 147 224 147 196 c 0,9,10
 147 186.111 147 186.111 138.5 170.056 c 2,11,-1
 125 144.5 l 2,12,13
 120 135 120 135 119 134 c 1,14,15
 182.175 205.598 182.175 205.598 275 242 c 0,16,17
 281 244 281 244 282.5 244 c 128,-1,18
 284 244 284 244 284 242 c 1,19,-1
 280 238 l 1,20,21
 265.364 230.682 265.364 230.682 252.182 216.841 c 128,-1,22
 239 203 239 203 239 194 c 128,-1,23
 239 185 239 185 249.5 185 c 128,-1,24
 260 185 260 185 283 202 c 1,25,-1
 288 205 l 1,26,27
 290 205 290 205 290 203 c 128,-1,28
 290 201 290 201 287 199 c 0,29,30
 251 173 251 173 228.5 173 c 128,-1,31
 206 173 206 173 206 188 c 0,32,33
 206 196 206 196 212 204 c 1,34,35
 158 173 158 173 96 90 c 1,36,37
 42.375 -9 42.375 -9 35 -9 c 0,38,39
 30 -9 30 -9 27.5 -4 c 128,-1,40
 25 1 25 1 21 7 c 128,-1,41
 17 13 17 13 17 16.5 c 128,-1,42
 17 20 17 20 24 31 c 128,-1,43
 31 42 31 42 40.5 52 c 128,-1,44
 50 62 50 62 56 71 c 1,45,46
 97 148 97 148 106 166.5 c 128,-1,47
 115 185 115 185 115 196 c 0,48,49
 115 212 115 212 100 212 c 0,0,1
EndSplineSet
EndChar

StartChar: s
Encoding: 115 115 84
Width: 252
GlyphClass: 2
Flags: W
HStem: -14 8<63.3941 103.755> 215 13<186.617 217.97>
VStem: 9 31<8.43896 42.6274> 229 38<105.352 211.595>
AnchorPoint: "Anchor-5" 231 274 basechar 0
AnchorPoint: "Anchor-4" 82 -10 basechar 0
AnchorPoint: "Anchor-3" 56 -50 basechar 0
LayerCount: 2
Fore
SplineSet
41 55 m 2,0,-1
 40 42 l 1,1,2
 40 22 40 22 51 8 c 128,-1,3
 62 -6 62 -6 82 -6 c 0,4,5
 124 -6 124 -6 176.5 53.5 c 128,-1,6
 229 113 229 113 229 164 c 128,-1,7
 229 215 229 215 203 215 c 0,8,9
 184 215 184 215 156.5 193 c 128,-1,10
 129 171 129 171 114 153 c 2,11,-1
 89 122 l 2,12,13
 87 119 87 119 85 119 c 128,-1,14
 83 119 83 119 83 120.5 c 128,-1,15
 83 122 83 122 84 124 c 0,16,17
 159 228 159 228 216 228 c 0,18,19
 239 228 239 228 253 210 c 128,-1,20
 267 192 267 192 267 167 c 0,21,22
 267 110 267 110 200 48 c 128,-1,23
 133 -14 133 -14 77 -14 c 0,24,25
 57 -14 57 -14 33.5 -6 c 128,-1,26
 10 2 10 2 9 15 c 0,27,28
 9 22 9 22 22 39.5 c 128,-1,29
 35 57 35 57 40 57 c 0,30,31
 41 57 41 57 41 55 c 2,0,-1
EndSplineSet
EndChar

StartChar: t
Encoding: 116 116 85
Width: 230
GlyphClass: 2
Flags: W
HStem: -9 11<111.21 161.656> 234 13<228.286 266.422>
VStem: 55 38<10.4421 101.486>
AnchorPoint: "Anchor-5" 271 461 basechar 0
AnchorPoint: "Anchor-4" 96 0 basechar 0
AnchorPoint: "Anchor-3" 86 -50 basechar 0
AnchorPoint: "Anchor-1" 302 343 basechar 0
LayerCount: 2
Fore
SplineSet
63 202 m 2,0,-1
 78 213 l 2,1,2
 85 218 85 218 140 227 c 1,3,-1
 221 377 l 1,4,5
 237 409 237 409 260 410 c 0,6,7
 268 410 268 410 268 406 c 128,-1,8
 268 402 268 402 243 359.5 c 128,-1,9
 218 317 218 317 174 232 c 1,10,-1
 268 247 l 2,11,12
 271 247 271 247 271 246 c 0,13,14
 271 243 271 243 263.5 238.5 c 128,-1,15
 256 234 256 234 252.5 234 c 128,-1,16
 249 234 249 234 168 221 c 1,17,-1
 120 121 l 1,18,19
 93 61 93 61 93 43 c 128,-1,20
 93 25 93 25 103.5 13.5 c 128,-1,21
 114 2 114 2 135.5 2 c 128,-1,22
 157 2 157 2 180 10.5 c 128,-1,23
 203 19 203 19 217.5 30 c 0,24,25
 287.024 82.7421 287.024 82.7421 314 124 c 0,26,27
 316 127 316 127 318 127 c 128,-1,28
 320 127 320 127 320 125.5 c 128,-1,29
 320 124 320 124 307.5 107.5 c 128,-1,30
 295 91 295 91 262 59 c 128,-1,31
 229 27 229 27 195.5 9 c 128,-1,32
 162 -9 162 -9 112 -9 c 0,33,34
 89 -9 89 -9 72 4 c 128,-1,35
 55 17 55 17 55 45 c 128,-1,36
 55 73 55 73 84 124 c 1,37,-1
 132 213 l 1,38,39
 69 200 69 200 67 199 c 2,40,-1
 62 196 l 1,41,42
 60 196 60 196 60 198 c 128,-1,43
 60 200 60 200 63 202 c 2,0,-1
EndSplineSet
EndChar

StartChar: u
Encoding: 117 117 86
Width: 321
GlyphClass: 2
Flags: W
HStem: -10 20<66 113.336 205 267.063> 212 12<91.7526 134.5>
VStem: 37 38<12.5262 73.9414> 117 34<156.471 211.754> 192 34<10.1102 60.3398>
AnchorPoint: "Anchor-5" 225 274 basechar 0
AnchorPoint: "Anchor-4" 219 0 basechar 0
AnchorPoint: "Anchor-3" 119 -50 basechar 0
LayerCount: 2
Fore
SplineSet
117 199 m 0,0,1
 117 212 117 212 102.833 212 c 128,-1,2
 88.6667 212 88.6667 212 62 196 c 1,3,4
 60 196 60 196 60 198 c 128,-1,5
 60 200 60 200 63 202 c 0,6,7
 95 224 95 224 118 224 c 0,8,9
 151 224 151 224 151 195 c 0,10,11
 151 180 151 180 113 113 c 128,-1,12
 75 46 75 46 75 33 c 0,13,14
 75 12 75 12 101.5 12 c 128,-1,15
 128 12 128 12 159.5 32 c 128,-1,16
 191 52 191 52 208 71 c 1,17,18
 219 95 219 95 247 145 c 128,-1,19
 275 195 275 195 282 204 c 1,20,21
 300 223 300 223 314 223 c 0,22,23
 318 223 318 223 318 217 c 128,-1,24
 318 211 318 211 295 170 c 128,-1,25
 272 129 272 129 243 92 c 1,26,27
 226 55 226 55 226 32.5 c 128,-1,28
 226 10 226 10 242 10 c 0,29,30
 289 10 289 10 335 49 c 128,-1,31
 381 88 381 88 405 124 c 0,32,33
 407 127 407 127 409 127 c 128,-1,34
 411 127 411 127 411 125.5 c 128,-1,35
 411 124 411 124 410 122 c 0,36,37
 380 75 380 75 323.5 32.5 c 128,-1,38
 267 -10 267 -10 218 -10 c 0,39,40
 192 -10 192 -10 192 13 c 0,41,42
 192 28 192 28 200 49 c 1,43,44
 124 -8 124 -8 72 -8 c 0,45,46
 60 -8 60 -8 48.5 -0.5 c 128,-1,47
 37 7 37 7 37 25 c 128,-1,48
 37 43 37 43 77 113.5 c 128,-1,49
 117 184 117 184 117 199 c 0,0,1
EndSplineSet
EndChar

StartChar: v
Encoding: 118 118 87
Width: 213
GlyphClass: 2
Flags: W
HStem: -12 21G<49.5 57.5> 213 13<92.8859 134>
VStem: 111 35<148.799 212.881>
AnchorPoint: "Anchor-5" 199 274 basechar 0
AnchorPoint: "Anchor-3" 38 -50 basechar 0
LayerCount: 2
Fore
SplineSet
84 124 m 1,0,1
 111 190 111 190 111 201.5 c 128,-1,2
 111 213 111 213 100.667 213 c 128,-1,3
 90.3333 213 90.3333 213 62 196 c 1,4,5
 60 196 60 196 60 198 c 128,-1,6
 60 200 60 200 63 202 c 0,7,8
 95 226 95 226 122 226 c 0,9,10
 146 226 146 226 146 198 c 0,11,12
 146 175.281 146 175.281 119.5 118.141 c 128,-1,13
 93 61 93 61 87 45 c 1,14,15
 89 48 89 48 104 67 c 0,16,17
 156.161 132.032 156.161 132.032 163.081 140.016 c 2,18,-1
 184.5 164.5 l 2,19,20
 199 181 199 181 208 189.5 c 2,21,-1
 231 211.5 l 2,22,23
 245 225 245 225 257 234 c 2,24,-1
 283 253 l 2,25,26
 327.8 285 327.8 285 341 285 c 0,27,28
 343 285 343 285 343 282 c 1,29,-1
 315 265 l 1,30,31
 260 230 260 230 203 167.5 c 128,-1,32
 146 105 146 105 107 49.5 c 2,33,-1
 68 -6 l 1,34,35
 62 -12 62 -12 53 -12 c 0,36,37
 46 -12 46 -12 46 12.5 c 128,-1,38
 46 37 46 37 84 124 c 1,0,1
EndSplineSet
EndChar

StartChar: w
Encoding: 119 119 88
Width: 379
GlyphClass: 2
Flags: W
HStem: -12 13<236.018 263.893> -2 21G<31.75 39.25> 111 23<170.224 213> 158 15<342.993 383.234> 221 15<106.885 151>
VStem: 131 35<176.744 220.751> 194 32<2.95642 109.775> 266 54<192.622 236.748> 306 29<45.9008 160.466>
AnchorPoint: "Anchor-5" 226 274 basechar 0
AnchorPoint: "Anchor-3" 121 -50 basechar 0
LayerCount: 2
Fore
SplineSet
446 199 m 0,0,1
 383 158 383 158 350 158 c 0,2,3
 340 158 340 158 330 161 c 1,4,5
 335 138 335 138 335 116 c 0,6,7
 335 50 335 50 300 19 c 128,-1,8
 265 -12 265 -12 237 -12 c 128,-1,9
 209 -12 209 -12 201.5 2.5 c 128,-1,10
 194 17 194 17 194 45 c 0,11,12
 194 111 194 111 181 111 c 0,13,14
 172 111 172 111 135.5 81.5 c 128,-1,15
 99 52 99 52 87 41 c 128,-1,16
 75 30 75 30 69 24 c 2,17,-1
 59 14 l 2,18,19
 43 -2 43 -2 35.5 -2 c 128,-1,20
 28 -2 28 -2 28 10 c 0,21,22
 28 44.6667 28 44.6667 98 152 c 0,23,24
 131 202.6 131 202.6 131 208.3 c 128,-1,25
 131 214 131 214 127.5 217.5 c 128,-1,26
 124 221 124 221 120 221 c 0,27,28
 100 221 100 221 67 199 c 1,29,-1
 62 196 l 1,30,31
 60 196 60 196 60 198 c 128,-1,32
 60 200 60 200 62.5 202 c 128,-1,33
 65 204 65 204 75.5 211.5 c 128,-1,34
 86 219 86 219 104.5 227.5 c 128,-1,35
 123 236 123 236 136 236 c 0,36,37
 166 236 166 236 166 206 c 0,38,39
 166 194 166 194 151 171 c 2,40,-1
 110 108.5 l 2,41,42
 84 69 84 69 66 34 c 1,43,44
 93 62 93 62 136.5 98 c 128,-1,45
 180 134 180 134 200 134 c 0,46,47
 226 134 226 134 226 53 c 0,48,49
 226 1 226 1 249 1 c 0,50,51
 276 1 276 1 291 30.5 c 128,-1,52
 306 60 306 60 306 101.5 c 128,-1,53
 306 143 306 143 286 192 c 1,54,55
 266 212 266 212 266 219 c 128,-1,56
 266 226 266 226 278.5 232.5 c 128,-1,57
 291 239 291 239 295 239 c 0,58,59
 304 239 304 239 320 198 c 1,60,61
 345 173 345 173 371 173 c 128,-1,62
 397 173 397 173 442 202 c 0,63,64
 446 205 446 205 447.5 205 c 128,-1,65
 449 205 449 205 449 203 c 128,-1,66
 449 201 449 201 446 199 c 0,0,1
EndSplineSet
EndChar

StartChar: x
Encoding: 120 120 89
Width: 224
GlyphClass: 2
Flags: W
HStem: -3 21<157.104 192.769> 210 20G<93 95>
AnchorPoint: "Anchor-5" 165 274 basechar 0
LayerCount: 2
Fore
SplineSet
308 124 m 0,0,1
 310 127 310 127 312 127 c 128,-1,2
 314 127 314 127 314 125.5 c 128,-1,3
 314 124 314 124 313 122 c 0,4,5
 287 85 287 85 237.5 41 c 128,-1,6
 188 -3 188 -3 163 -3 c 0,7,8
 148.667 -3 148.667 -3 144.333 3.5 c 128,-1,9
 140 10 140 10 138 12 c 128,-1,10
 136 14 136 14 134 18 c 128,-1,11
 132 22 132 22 130.5 24.5 c 128,-1,12
 129 27 129 27 126 31.5 c 128,-1,13
 123 36 123 36 122 39 c 1,14,15
 -6.9215 -113.362 -6.9215 -113.362 -124 -203 c 0,16,17
 -132.571 -208.714 -132.571 -208.714 -140.286 -209.357 c 128,-1,18
 -148 -210 -148 -210 -160 -212 c 128,-1,19
 -172 -214 -172 -214 -173.5 -214 c 128,-1,20
 -175 -214 -175 -214 -175 -212.5 c 128,-1,21
 -175 -211 -175 -211 -166 -205 c 0,22,23
 -54 -129 -54 -129 13 -62 c 1,24,25
 75 -2 75 -2 116 49 c 1,26,27
 95 88 95 88 77 136 c 128,-1,28
 59 184 59 184 59 202 c 0,29,30
 59 203 59 203 71 211.5 c 128,-1,31
 83 220 83 220 86 223.5 c 128,-1,32
 89 227 89 227 90.5 228.5 c 128,-1,33
 92 230 92 230 94 230 c 128,-1,34
 96 230 96 230 102 185 c 128,-1,35
 108 140 108 140 132 72 c 1,36,-1
 205 187 l 2,37,38
 207 191 207 191 210.5 197 c 2,39,-1
 216 206.5 l 2,40,41
 219.714 213 219.714 213 230.857 213 c 128,-1,42
 242 213 242 213 242 211 c 1,43,44
 233.394 202.394 233.394 202.394 203.697 155.197 c 128,-1,45
 174 108 174 108 138 60 c 1,46,47
 156 18 156 18 178 18 c 0,48,49
 196 18 196 18 248 61 c 1,50,51
 289 97 289 97 308 124 c 0,0,1
EndSplineSet
EndChar

StartChar: y
Encoding: 121 121 90
Width: 302
GlyphClass: 2
Flags: W
HStem: -505 20<-205.115 -146.086> -8 20<70 123.252> 213 11<94.0279 136.25>
VStem: -282 34<-454.787 -351.331> 41 38<12.946 79.3984> 116 34<154.864 212.958>
AnchorPoint: "Anchor-5" 225 274 basechar 0
LayerCount: 2
Fore
SplineSet
122 -83 m 1,0,1
 -44 -178.5 l 1,2,3
 -136.824 -233.837 -136.824 -233.837 -162.912 -257.919 c 128,-1,4
 -189 -282 -189 -282 -210 -306 c 0,5,6
 -248 -349.429 -248 -349.429 -248 -406 c 0,7,8
 -248 -442 -248 -442 -222.5 -463.5 c 128,-1,9
 -197 -485 -197 -485 -163 -485 c 0,10,11
 -115 -485 -115 -485 -60.5 -405 c 128,-1,12
 -6 -325 -6 -325 122 -83 c 1,0,1
116 199 m 128,-1,14
 116 213 116 213 103.167 213 c 128,-1,15
 90.3333 213 90.3333 213 62 196 c 1,16,17
 60 196 60 196 60 198 c 128,-1,18
 60 200 60 200 63 202 c 0,19,20
 95 224 95 224 122.5 224 c 128,-1,21
 150 224 150 224 150 197 c 0,22,23
 150 186 150 186 114.5 115 c 128,-1,24
 79 44 79 44 79 28 c 128,-1,25
 79 12 79 12 111 12 c 128,-1,26
 143 12 143 12 197 57 c 1,27,-1
 252 161 l 2,28,29
 256 170 256 170 260.5 182 c 128,-1,30
 265 194 265 194 267 198.5 c 0,31,32
 273.444 213 273.444 213 308 213 c 0,33,34
 311 213 311 213 311 211 c 128,-1,35
 311 209 311 209 303.5 198 c 2,36,-1
 285 170.5 l 2,37,38
 274 154 274 154 268 142 c 2,39,-1
 166 -47 l 1,40,-1
 246 4 l 2,41,42
 347 69 347 69 386 124 c 0,43,44
 388 127 388 127 390 127 c 128,-1,45
 392 127 392 127 392 125.5 c 128,-1,46
 392 124 392 124 383.5 112 c 128,-1,47
 375 100 375 100 365 88.5 c 0,48,49
 334.56 53.4945 334.56 53.4945 250 -1 c 2,50,-1
 158 -61 l 1,51,52
 52 -258.5 l 2,53,54
 31 -296 31 -296 17.5 -318 c 2,55,56
 -15.5 -369.5 l 2,57,58
 -43.7087 -412.175 -43.7087 -412.175 -72.8544 -442.087 c 128,-1,59
 -102 -472 -102 -472 -119 -482 c 0,60,61
 -158.1 -505 -158.1 -505 -197.05 -505 c 128,-1,62
 -236 -505 -236 -505 -259 -479.5 c 128,-1,63
 -282 -454 -282 -454 -282 -420 c 128,-1,64
 -282 -386 -282 -386 -265.5 -351.5 c 128,-1,65
 -249 -317 -249 -317 -226.5 -292 c 128,-1,66
 -204 -267 -204 -267 -158 -235.5 c 128,-1,67
 -112 -204 -112 -204 -77 -184 c 2,68,-1
 130 -68 l 1,69,-1
 189 42 l 1,70,71
 127 -8 127 -8 76 -8 c 0,72,73
 64 -8 64 -8 52.5 -0.5 c 128,-1,74
 41 7 41 7 41 20.5 c 128,-1,75
 41 34 41 34 45.5 46.5 c 128,-1,76
 50 59 50 59 54.5 68.5 c 128,-1,77
 59 78 59 78 69 96.5 c 2,78,-1
 84 124 l 1,79,13
 116 185 116 185 116 199 c 128,-1,14
EndSplineSet
EndChar

StartChar: z
Encoding: 122 122 91
Width: 239
GlyphClass: 2
Flags: W
HStem: -374 12<-202.177 -146.131> 70 6<114 129.509> 170 22<99.5231 175.383> 204 20G<97.5 99>
VStem: -258 37<-352.209 -252.33> 58 35<196.82 213.062> 152 37<4.50049 65.5732>
AnchorPoint: "Anchor-5" 181 274 basechar 0
AnchorPoint: "Anchor-3" -227 -424 basechar 0
LayerCount: 2
Fore
SplineSet
137 -17 m 1,0,1
 129 -20 129 -20 104.5 -26.5 c 0,2,3
 -46.4244 -66.5412 -46.4244 -66.5412 -149.5 -172.5 c 0,4,5
 -221 -246 -221 -246 -221 -317 c 0,6,7
 -221 -336 -221 -336 -210 -349 c 128,-1,8
 -199 -362 -199 -362 -183 -362 c 0,9,10
 -129 -362 -129 -362 -75.5 -324 c 128,-1,11
 -22 -286 -22 -286 20.5 -224 c 0,12,13
 91.4823 -120.449 91.4823 -120.449 137 -17 c 1,0,1
258 219 m 0,14,15
 258 194.4 258 194.4 114 76 c 1,16,17
 189 76 189 76 189 36 c 0,18,19
 189 24 189 24 186 12 c 1,20,21
 230 32 230 32 268.5 66 c 128,-1,22
 307 100 307 100 323 124 c 0,23,24
 325 127 325 127 327 127 c 128,-1,25
 329 127 329 127 329 125.5 c 128,-1,26
 329 124 329 124 328 122 c 0,27,28
 297 83 297 83 266 55 c 128,-1,29
 235 27 235 27 182 1 c 1,30,31
 143.94 -108.951 143.94 -108.951 41 -235 c 0,32,33
 -8 -295 -8 -295 -70 -334.5 c 128,-1,34
 -132 -374 -132 -374 -191 -374 c 0,35,36
 -217 -374 -217 -374 -237.5 -360 c 128,-1,37
 -258 -346 -258 -346 -258 -320 c 0,38,39
 -258 -266 -258 -266 -210.5 -207.5 c 0,40,41
 -127.514 -105.296 -127.514 -105.296 -3 -53 c 0,42,43
 20 -43 20 -43 143 -4 c 1,44,45
 152 16 152 16 152 40 c 0,46,47
 152 70 152 70 108 70 c 1,48,49
 75 40 75 40 57 40 c 0,50,51
 52 40 52 40 52 43 c 0,52,53
 52 53 52 53 68.5 62 c 128,-1,54
 85 71 85 71 99 74 c 1,55,56
 105 80 105 80 128.5 100 c 128,-1,57
 152 120 152 120 166 133 c 0,58,59
 206.684 170.778 206.684 170.778 216 195 c 1,60,61
 151 170 151 170 119 170 c 128,-1,62
 87 170 87 170 72.5 179.5 c 128,-1,63
 58 189 58 189 58 197 c 0,64,65
 58 199 58 199 70.5 207 c 2,66,-1
 86 217 l 2,67,68
 89 219 89 219 91 220 c 128,-1,69
 93 221 93 221 94.5 222 c 128,-1,70
 96 223 96 223 96.5 223.5 c 128,-1,71
 97 224 97 224 98 224 c 2,72,-1
 99 223 l 2,73,74
 99 222 99 222 96 219 c 128,-1,75
 93 216 93 216 93 212.5 c 128,-1,76
 93 209 93 209 97.5 204.5 c 0,77,78
 110 192 110 192 148 192 c 0,79,80
 196 192 196 192 251 219.5 c 0,81,82
 254 221 254 221 256 221 c 128,-1,83
 258 221 258 221 258 219 c 0,14,15
EndSplineSet
EndChar

StartChar: braceleft
Encoding: 123 123 92
Width: 270
GlyphClass: 2
Flags: W
HStem: -71 8<156.979 191.998> 205 28<91.6934 127> 499 8<408.883 466.878>
VStem: 61 35<-35.1733 46.6758> 150 32<140.579 205.045>
LayerCount: 2
Fore
SplineSet
121 233 m 2,0,-1
 153 229 l 2,1,2
 161 229 161 229 177 240 c 128,-1,3
 193 251 193 251 209.5 271.5 c 128,-1,4
 226 292 226 292 242 335.5 c 128,-1,5
 258 379 258 379 278 416 c 128,-1,6
 298 453 298 453 338 479 c 1,7,8
 384 507 384 507 462 507 c 0,9,10
 467 507 467 507 467 504 c 0,11,12
 467 499 467 499 457 499 c 0,13,14
 386 499 386 499 351.5 474.5 c 128,-1,15
 317 450 317 450 287 366.5 c 128,-1,16
 257 283 257 283 218 254 c 0,17,18
 203 243 203 243 165 224 c 1,19,20
 182 213 182 213 182 187 c 128,-1,21
 182 161 182 161 160.5 132.5 c 128,-1,22
 139 104 139 104 117.5 71 c 128,-1,23
 96 38 96 38 96 7 c 128,-1,24
 96 -24 96 -24 123 -43.5 c 128,-1,25
 150 -63 150 -63 182 -63 c 0,26,27
 192 -63 192 -63 192 -67 c 128,-1,28
 192 -71 192 -71 182 -71 c 0,29,30
 61 -71 61 -71 61 -10 c 0,31,32
 61 24 61 24 83.5 54.5 c 2,33,-1
 128 114 l 2,34,35
 150 143 150 143 150 174 c 0,36,37
 150 183 150 183 142 195.5 c 128,-1,38
 134 208 134 208 127 208 c 2,39,-1
 96 205 l 2,40,41
 90 205 90 205 90 214 c 0,42,43
 90 221 90 221 102 227 c 128,-1,44
 114 233 114 233 121 233 c 2,0,-1
EndSplineSet
EndChar

StartChar: bar
Encoding: 124 124 93
Width: 262
GlyphClass: 2
Flags: W
HStem: -52 21G<162.5 163.5>
VStem: 162 19<-46.4448 486.688>
LayerCount: 2
Fore
SplineSet
162 -50 m 2,0,-1
 162 481 l 2,1,2
 162 483 162 483 168.5 485.5 c 128,-1,3
 175 488 175 488 176.5 489.5 c 0,4,5
 179 492 179 492 180 492 c 128,-1,6
 181 492 181 492 181 490 c 2,7,-1
 181 -41 l 2,8,9
 181 -42 181 -42 173.5 -45.5 c 128,-1,10
 166 -49 166 -49 165 -50.5 c 128,-1,11
 164 -52 164 -52 163 -52 c 128,-1,12
 162 -52 162 -52 162 -50 c 2,0,-1
EndSplineSet
EndChar

StartChar: braceright
Encoding: 125 125 94
Width: 270
GlyphClass: 2
Flags: W
HStem: -71 8<-53.8779 4.11719> 203 28<286 321.307> 499 8<221.002 256.021>
VStem: 231 32<230.955 295.443> 317 35<387.081 471.173>
LayerCount: 2
Fore
SplineSet
292 203 m 2,0,-1
 260 207 l 2,1,2
 252 207 252 207 236 196 c 128,-1,3
 220 185 220 185 203.5 164.5 c 128,-1,4
 187 144 187 144 171 100.5 c 128,-1,5
 155 57 155 57 135 20 c 128,-1,6
 115 -17 115 -17 75 -43 c 1,7,8
 29 -71 29 -71 -49 -71 c 0,9,10
 -54 -71 -54 -71 -54 -68 c 0,11,12
 -54 -63 -54 -63 -44 -63 c 0,13,14
 27 -63 27 -63 61.5 -38.5 c 128,-1,15
 96 -14 96 -14 126 69.5 c 128,-1,16
 156 153 156 153 195 182 c 0,17,18
 210 193 210 193 248 212 c 1,19,20
 231 223 231 223 231 249 c 128,-1,21
 231 275 231 275 252.5 303.5 c 128,-1,22
 274 332 274 332 295.5 365 c 128,-1,23
 317 398 317 398 317 429 c 128,-1,24
 317 460 317 460 290 479.5 c 128,-1,25
 263 499 263 499 231 499 c 0,26,27
 221 499 221 499 221 503 c 128,-1,28
 221 507 221 507 231 507 c 0,29,30
 352 507 352 507 352 446 c 0,31,32
 352 397.848 352 397.848 307.5 352 c 128,-1,33
 263 306.152 263 306.152 263 262 c 0,34,35
 263 253 263 253 271 240.5 c 128,-1,36
 279 228 279 228 286 228 c 2,37,-1
 317 231 l 2,38,39
 323 231 323 231 323 222 c 0,40,41
 323 215 323 215 311 209 c 128,-1,42
 299 203 299 203 292 203 c 2,0,-1
EndSplineSet
EndChar

StartChar: asciitilde
Encoding: 126 126 95
Width: 320
GlyphClass: 2
Flags: W
HStem: 130 14<253.703 284.468> 195 16<143.025 184>
VStem: 312 26<172.561 207.069>
LayerCount: 2
Fore
SplineSet
103 150 m 1,0,-1
 89 143 l 2,1,2
 87 142 87 142 83.5 139 c 128,-1,3
 80 136 80 136 79 136 c 128,-1,4
 78 136 78 136 78 138 c 128,-1,5
 78 140 78 140 90.5 157.5 c 128,-1,6
 103 175 103 175 127 193 c 128,-1,7
 151 211 151 211 173 211 c 128,-1,8
 195 211 195 211 224.5 177.5 c 128,-1,9
 254 144 254 144 273 144 c 128,-1,10
 292 144 292 144 302 160.5 c 128,-1,11
 312 177 312 177 312 196 c 0,12,13
 312 200 312 200 321 205 c 128,-1,14
 330 210 330 210 334 210 c 128,-1,15
 338 210 338 210 338 207 c 0,16,17
 336 179 336 179 309.5 154.5 c 128,-1,18
 283 130 283 130 255.5 130 c 128,-1,19
 228 130 228 130 200 162.5 c 128,-1,20
 172 195 172 195 150 195 c 0,21,22
 124 195 124 195 103 150 c 1,0,-1
EndSplineSet
EndChar

StartChar: exclamdown
Encoding: 161 161 96
Width: 218
GlyphClass: 2
Flags: W
HStem: -170 16<-60.0684 -30.6328> 177 64<156.562 199.76>
VStem: 147 61<184.416 231.832>
LayerCount: 2
Fore
SplineSet
-59 -154 m 0,0,1
 -55 -155 -55 -155 -53 -155 c 0,2,3
 -8 -155 -8 -155 93 14 c 0,4,5
 131 79 131 79 144 131 c 0,6,7
 146 138 146 138 154.5 138 c 128,-1,8
 163 138 163 138 163 132 c 128,-1,9
 163 126 163 126 143.5 79 c 0,10,11
 79.2296 -75.9082 79.2296 -75.9082 1 -161 c 0,12,13
 -8 -170 -8 -170 -34.5 -170 c 128,-1,14
 -61 -170 -61 -170 -61 -158 c 0,15,16
 -61 -154 -61 -154 -59 -154 c 0,0,1
188 241 m 0,17,18
 208 241 208 241 208 224 c 128,-1,19
 208 207 208 207 194.5 192 c 128,-1,20
 181 177 181 177 164 177 c 128,-1,21
 147 177 147 177 147 195 c 0,22,23
 147 210 147 210 162 225.5 c 128,-1,24
 177 241 177 241 188 241 c 0,17,18
EndSplineSet
EndChar

StartChar: cent
Encoding: 162 162 97
Width: 309
GlyphClass: 2
Flags: W
HStem: 42 16<157.345 210.428> 344 15<264.285 303.78>
VStem: 67 50<71.8801 198.205> 342 38<299.367 334.699>
LayerCount: 2
Fore
SplineSet
147 66 m 1,0,-1
 304 342 l 1,1,2
 297 344 297 344 283 344 c 0,3,4
 245 344 245 344 205.5 305 c 128,-1,5
 166 266 166 266 141.5 214.5 c 128,-1,6
 117 163 117 163 117 135 c 0,7,8
 117 82.1538 117 82.1538 147 66 c 1,0,-1
337 290 m 1,9,10
 342 301 342 301 342 310 c 0,11,12
 342 328 342 328 316 338 c 1,13,14
 235 205 235 205 157 62 c 1,15,16
 168 58 168 58 185 58 c 0,17,18
 242 58 242 58 296 103 c 0,19,20
 318.6 122.123 318.6 122.123 332.8 145.062 c 128,-1,21
 347 168 347 168 348 168 c 0,22,23
 351 168 351 168 351 162.5 c 128,-1,24
 351 157 351 157 333 132.5 c 0,25,26
 267.494 43.3388 267.494 43.3388 147 42 c 1,27,-1
 49 -136 l 1,28,29
 44 -148 44 -148 37 -148 c 0,30,31
 36 -148 36 -148 36 -145 c 0,32,33
 36 -128.655 36 -128.655 134 42 c 1,34,35
 108 44 108 44 87.5 64 c 128,-1,36
 67 84 67 84 67 113 c 0,37,38
 67 195 67 195 145.5 276.5 c 128,-1,39
 224 358 224 358 314 359 c 1,40,-1
 356 432 l 2,41,42
 391 494 391 494 421 494 c 0,43,44
 423 494 423 494 423 492.5 c 128,-1,45
 423 491 423 491 415.5 482 c 2,46,-1
 396 459.5 l 2,47,48
 384 446 384 446 376 434 c 2,49,-1
 328 358 l 1,50,51
 348 354 348 354 364 341 c 128,-1,52
 380 328 380 328 380 318.5 c 128,-1,53
 380 309 380 309 379 306.5 c 128,-1,54
 378 304 378 304 377 303 c 0,55,56
 375 301 375 301 367 298 c 128,-1,57
 359 295 359 295 354 292 c 128,-1,58
 349 289 349 289 346 287.5 c 128,-1,59
 343 286 343 286 340 286 c 128,-1,60
 337 286 337 286 337 290 c 1,9,10
EndSplineSet
EndChar

StartChar: sterling
Encoding: 163 163 98
Width: 452
GlyphClass: 2
Flags: W
HStem: -152 25<441.957 558.501> -12 21<62.5 119.458> 128 27<146.722 186.88> 222 16<214.544 286.581> 229 23<340.518 464.498> 229 11<330 410.143> 418 24<442.626 494.204>
VStem: 47 30<-2 51.9769> 512 39<380.322 407.664>
LayerCount: 2
Fore
SplineSet
517 370 m 128,-1,1
 514 368 514 368 512.5 368 c 128,-1,2
 511 368 511 368 511.5 372 c 128,-1,3
 512 376 512 376 512 378 c 0,4,5
 512 391 512 391 496.5 404.5 c 128,-1,6
 481 418 481 418 462.5 418 c 128,-1,7
 444 418 444 418 431.5 412.5 c 128,-1,8
 419 407 419 407 407 389.5 c 128,-1,9
 395 372 395 372 387 357 c 128,-1,10
 379 342 379 342 361.5 304.5 c 128,-1,11
 344 267 344 267 330 240 c 1,12,13
 397 243 397 243 472 252 c 0,14,15
 474 252 474 252 474 249.5 c 128,-1,16
 474 247 474 247 464.5 240.5 c 128,-1,17
 455 234 455 234 446 233 c 2,18,-1
 324 229 l 1,19,20
 283 153 283 153 229 89 c 1,21,22
 261 4 261 4 345.5 -61.5 c 128,-1,23
 430 -127 430 -127 513 -127 c 0,24,25
 571 -127 571 -127 609 -91 c 0,26,27
 613 -87 613 -87 616.5 -81.5 c 128,-1,28
 620 -76 620 -76 622.5 -73.5 c 128,-1,29
 625 -71 625 -71 627 -71 c 128,-1,30
 629 -71 629 -71 629 -76.5 c 128,-1,31
 629 -82 629 -82 615 -99 c 0,32,33
 570 -152 570 -152 487.5 -152 c 128,-1,34
 405 -152 405 -152 324 -100.5 c 128,-1,35
 243 -49 243 -49 206 63 c 1,36,37
 131 -12 131 -12 78 -12 c 0,38,39
 47 -12 47 -12 47 8 c 0,40,41
 47 44 47 44 98.5 99.5 c 128,-1,42
 150 155 150 155 184 155 c 0,43,44
 206 155 206 155 223 107 c 1,45,46
 255 152 255 152 289 227 c 1,47,48
 211 222 211 222 209 222 c 128,-1,49
 207 222 207 222 207 225 c 0,50,51
 207 226 207 226 218 232 c 128,-1,52
 229 238 229 238 231 238 c 0,53,54
 272 238 272 238 294 239 c 1,55,-1
 299 250.5 l 2,56,57
 304 262 304 262 308 270 c 2,58,-1
 320 294 l 2,59,60
 345.2 344.4 345.2 344.4 366.1 367.2 c 128,-1,61
 387 390 387 390 401.5 403 c 128,-1,62
 416 416 416 416 430.5 424 c 0,63,64
 463.125 442 463.125 442 492.062 442 c 128,-1,65
 521 442 521 442 536 426 c 128,-1,66
 551 410 551 410 551 393 c 0,67,68
 551 389.2 551 389.2 547 387.6 c 0,69,70
 532.183 381.476 532.183 381.476 526.091 376.738 c 128,-1,0
 520 372 520 372 517 370 c 128,-1,1
167 128 m 0,71,72
 139 128 139 128 108 93 c 128,-1,73
 77 58 77 58 77 28 c 0,74,75
 77 9 77 9 96 9 c 0,76,77
 111 9 111 9 143.5 30 c 128,-1,78
 176 51 176 51 201 79 c 1,79,80
 189 128 189 128 167 128 c 0,71,72
EndSplineSet
EndChar

StartChar: currency
Encoding: 164 164 99
Width: 440
GlyphClass: 2
Flags: W
HStem: 82 17<265.092 334.865> 371 20<256.99 333.482>
VStem: 142 34<176.472 295.738> 419 34<176.014 296.367>
LayerCount: 2
Fore
SplineSet
204 333.5 m 128,-1,1
 176 296 176 296 176 242 c 128,-1,2
 176 188 176 188 215.5 143.5 c 128,-1,3
 255 99 255 99 307.5 99 c 128,-1,4
 360 99 360 99 389.5 136 c 128,-1,5
 419 173 419 173 419 229 c 128,-1,6
 419 285 419 285 380 328 c 128,-1,7
 341 371 341 371 284 371 c 2,8,-1
 282 371 l 2,9,0
 232 371 232 371 204 333.5 c 128,-1,1
456 380 m 1,10,11
 456 376.652 456 376.652 440 364.826 c 128,-1,12
 424 353 424 353 414 343 c 1,13,14
 453 301 453 301 453 244.5 c 128,-1,15
 453 188 453 188 414 144 c 1,16,17
 455 101.481 455 101.481 455 97.2407 c 128,-1,18
 455 93 455 93 446.5 87.5 c 128,-1,19
 438 82 438 82 431.5 82 c 128,-1,20
 425 82 425 82 391 122 c 1,21,22
 341 82 341 82 285 82 c 128,-1,23
 229 82 229 82 192 115 c 1,24,25
 183 108 183 108 173.5 99 c 2,26,-1
 159 85 l 2,27,28
 154 80 154 80 151 80 c 128,-1,29
 148 80 148 80 148 84 c 128,-1,30
 148 88 148 88 162.5 101.5 c 128,-1,31
 177 115 177 115 185 121 c 1,32,33
 142 164 142 164 142 223.5 c 128,-1,34
 142 283 142 283 180 328 c 1,35,36
 172 338 172 338 161.5 349 c 2,37,-1
 145 366 l 2,38,39
 139 372 139 372 139 373.5 c 128,-1,40
 139 375 139 375 149.5 383.5 c 128,-1,41
 160 392 160 392 164.5 392 c 128,-1,42
 169 392 169 392 173 387 c 128,-1,43
 177 382 177 382 185.5 370.5 c 128,-1,44
 194 359 194 359 203 350 c 1,45,46
 254 391 254 391 309 391 c 128,-1,47
 364 391 364 391 408 350 c 1,48,-1
 422.5 363 l 1,49,-1
 439 379 l 2,50,51
 444 384 444 384 446.667 384 c 128,-1,52
 449.333 384 449.333 384 456 380 c 1,10,11
EndSplineSet
EndChar

StartChar: yen
Encoding: 165 165 100
Width: 388
GlyphClass: 2
Flags: W
HStem: -16 21G<122.75 126.25> 174 14<124.001 232 289 414> 235 15<142.484 259 299 310 328 329.114 342 445.78> 424 19<172.636 235.796 536.391 574.528>
VStem: 279 36<251.575 395.015>
LayerCount: 2
Fore
SplineSet
310 235 m 1,0,-1
 294 235 l 1,1,2
 288 216 288 216 281 200 c 1,3,-1
 310 235 l 1,0,-1
158 253 m 2,4,-1
 264 250 l 1,5,6
 279 295 279 295 279 338.5 c 128,-1,7
 279 382 279 382 253.5 403 c 128,-1,8
 228 424 228 424 194 424 c 128,-1,9
 160 424 160 424 127 391 c 0,10,11
 117 381 117 381 115 381 c 128,-1,12
 113 381 113 381 113 384 c 128,-1,13
 113 387 113 387 124 398 c 0,14,15
 168 443 168 443 213 443 c 128,-1,16
 258 443 258 443 286.5 416.5 c 128,-1,17
 315 390 315 390 315 335 c 0,18,19
 315 306 315 306 299 250 c 1,20,-1
 323 250 l 1,21,22
 388 324 388 324 462 385.5 c 128,-1,23
 536 447 536 447 582 447 c 0,24,25
 599 447 599 447 599 444 c 0,26,27
 599 443 599 443 588 439 c 128,-1,28
 577 435 577 435 554 424 c 128,-1,29
 531 413 531 413 501.5 394.5 c 0,30,31
 429.334 349.244 429.334 349.244 342 250 c 1,32,-1
 444 251 l 2,33,34
 447 251 447 251 447 248 c 0,35,36
 447 233 447 233 421.5 233 c 128,-1,37
 396 233 396 233 328 235 c 1,38,-1
 289 188 l 1,39,-1
 415 189 l 2,40,41
 419 189 419 189 419 186 c 1,42,-1
 411 178 l 2,43,44
 404 171 404 171 391 171 c 2,45,-1
 278 174 l 1,46,47
 258 148 258 148 250 135 c 1,48,49
 183.6 2.20001 183.6 2.20001 172.5 -1.5 c 0,50,51
 168 -3 168 -3 158.5 -4 c 128,-1,52
 149 -5 149 -5 142 -8 c 128,-1,53
 135 -11 135 -11 131.5 -13.5 c 128,-1,54
 128 -16 128 -16 124.5 -16 c 128,-1,55
 121 -16 121 -16 121 -14 c 128,-1,56
 121 -12 121 -12 124.5 -7 c 128,-1,57
 128 -2 128 -2 134.5 5.5 c 128,-1,58
 141 13 141 13 171 62 c 128,-1,59
 201 111 201 111 232 174 c 1,60,61
 134 172 134 172 129 172 c 128,-1,62
 124 172 124 172 124 174.011 c 128,-1,63
 124 176.022 124 176.022 122.766 183.011 c 128,-1,64
 121.533 190 121.533 190 126 190 c 2,65,-1
 193 188 l 1,66,-1
 239 188 l 1,67,68
 254 221 254 221 259 236 c 1,69,-1
 223 236 l 1,70,-1
 139 234 l 2,71,72
 135 234 135 234 135 235.5 c 128,-1,73
 135 237 135 237 137.5 238.5 c 128,-1,74
 140 240 140 240 141.5 241.5 c 128,-1,75
 143 243 143 243 144.5 245 c 128,-1,76
 146 247 146 247 146.5 248.5 c 128,-1,77
 147 250 147 250 148.5 251 c 0,78,79
 151.5 253 151.5 253 158 253 c 2,4,-1
EndSplineSet
EndChar

StartChar: brokenbar
Encoding: 166 166 101
Width: 262
GlyphClass: 2
Flags: W
HStem: -52 21G<162.5 163.5> 249 21G<162.5 163.5>
VStem: 162 19<-46.4448 192.688 254.555 486.688>
LayerCount: 2
Fore
SplineSet
162 251 m 2,0,-1
 162 481 l 2,1,2
 162 483 162 483 168.5 485.5 c 128,-1,3
 175 488 175 488 176.5 489.5 c 0,4,5
 179 492 179 492 180 492 c 128,-1,6
 181 492 181 492 181 490 c 2,7,-1
 181 260 l 2,8,9
 181 259 181 259 173.5 255.5 c 128,-1,10
 166 252 166 252 165 250.5 c 128,-1,11
 164 249 164 249 163 249 c 128,-1,12
 162 249 162 249 162 251 c 2,0,-1
162 187 m 2,13,14
 162 189 162 189 168.5 191.5 c 128,-1,15
 175 194 175 194 176.5 195.5 c 0,16,17
 179 198 179 198 180 198 c 128,-1,18
 181 198 181 198 181 196 c 2,19,-1
 181 -41 l 2,20,21
 181 -42 181 -42 173.5 -45.5 c 128,-1,22
 166 -49 166 -49 165 -50.5 c 128,-1,23
 164 -52 164 -52 163 -52 c 128,-1,24
 162 -52 162 -52 162 -50 c 2,25,-1
 162 187 l 2,13,14
EndSplineSet
EndChar

StartChar: section
Encoding: 167 167 102
Width: 288
GlyphClass: 2
Flags: W
HStem: -12 20<105.733 170.784> 426 16<270.291 324.063>
VStem: 22 34<43.2048 80.5> 138 28<228.001 281.551> 190 23<317.193 375.535> 223 30<66.4778 133.391> 279 20<156.036 210.714> 368 27<365.862 392.729>
LayerCount: 2
Fore
SplineSet
253 120 m 1,0,1
 279 140 279 140 279 182 c 0,2,3
 279 207 279 207 240 247 c 128,-1,4
 201 287 201 287 193 312 c 1,5,6
 166 296 166 296 166 271.5 c 128,-1,7
 166 247 166 247 179 229 c 128,-1,8
 192 211 192 211 207.5 199.5 c 128,-1,9
 223 188 223 188 237 167 c 128,-1,10
 251 146 251 146 253 120 c 1,0,1
64 94 m 1,11,12
 56 84 56 84 56 77 c 0,13,14
 56 57 56 57 83.5 32.5 c 128,-1,15
 111 8 111 8 149 8 c 128,-1,16
 187 8 187 8 205 35.5 c 128,-1,17
 223 63 223 63 223 90 c 128,-1,18
 223 117 223 117 201.5 145 c 128,-1,19
 180 173 180 173 159 197 c 128,-1,20
 138 221 138 221 138 242.5 c 128,-1,21
 138 264 138 264 154 284.5 c 128,-1,22
 170 305 170 305 192 318 c 1,23,24
 190 328 190 328 190 334 c 0,25,26
 190 373 190 373 226.5 407.5 c 128,-1,27
 263 442 263 442 319 442 c 0,28,29
 346 442 346 442 370.5 425 c 128,-1,30
 395 408 395 408 395 385 c 0,31,32
 395 381 395 381 384.5 369 c 128,-1,33
 374 357 374 357 370 357 c 0,34,35
 368 357 368 357 368 360 c 0,36,37
 368 382 368 382 344.5 404 c 128,-1,38
 321 426 321 426 289.5 426 c 128,-1,39
 258 426 258 426 235.5 404 c 128,-1,40
 213 382 213 382 213 354 c 128,-1,41
 213 326 213 326 234.5 302.5 c 128,-1,42
 256 279 256 279 277.5 251.5 c 128,-1,43
 299 224 299 224 299 194 c 0,44,45
 299 152 299 152 253 112 c 1,46,47
 253 78 253 78 214.5 33 c 128,-1,48
 176 -12 176 -12 127.5 -12 c 128,-1,49
 79 -12 79 -12 50.5 10.5 c 128,-1,50
 22 33 22 33 22 54 c 0,51,52
 22 60 22 60 28 65 c 128,-1,53
 34 70 34 70 42.5 78.5 c 2,54,-1
 61 97 l 1,55,56
 64 97 64 97 64 94 c 1,11,12
EndSplineSet
EndChar

StartChar: dieresis
Encoding: 168 168 103
Width: 176
GlyphClass: 4
Flags: W
HStem: 283 53<143.516 181.358 219.516 257.358>
VStem: 140 46<284.485 323.765> 216 46<284.485 323.765>
AnchorPoint: "Anchor-5" 182 274 mark 0
LayerCount: 2
Fore
SplineSet
140 301 m 0,0,1
 140 312 140 312 150 324 c 128,-1,2
 160 336 160 336 168.5 336 c 128,-1,3
 177 336 177 336 181.5 330.5 c 128,-1,4
 186 325 186 325 186 315.5 c 128,-1,5
 186 306 186 306 177 294.5 c 128,-1,6
 168 283 168 283 156 283 c 0,7,8
 140 283 140 283 140 301 c 0,0,1
216 301 m 0,9,10
 216 312 216 312 226 324 c 128,-1,11
 236 336 236 336 244.5 336 c 128,-1,12
 253 336 253 336 257.5 330.5 c 128,-1,13
 262 325 262 325 262 315.5 c 128,-1,14
 262 306 262 306 253 294.5 c 128,-1,15
 244 283 244 283 232 283 c 0,16,17
 216 283 216 283 216 301 c 0,9,10
EndSplineSet
EndChar

StartChar: copyright
Encoding: 169 169 104
Width: 536
GlyphClass: 2
Flags: W
HStem: -12 16<244.627 345.048> 72 11<280.365 332.701> 338 18<337.939 407.954> 430 13<339.035 433.785>
VStem: 103 42<79.7065 256.234> 198 33<115.646 235.818> 443 25<298.828 314.547> 537 41<174.878 355.717>
LayerCount: 2
Fore
SplineSet
145 164 m 0,0,1
 145 98 145 98 185.5 51 c 128,-1,2
 226 4 226 4 298 4 c 0,3,4
 395 4 395 4 466 80.5 c 128,-1,5
 537 157 537 157 537 261 c 0,6,7
 537 340 537 340 497 385 c 128,-1,8
 457 430 457 430 383 430 c 0,9,10
 287 430 287 430 216.5 347.5 c 128,-1,11
 146 265 146 265 145 164 c 0,0,1
398 443 m 0,12,13
 478 443 478 443 528 395.5 c 128,-1,14
 578 348 578 348 578 274 c 0,15,16
 578 162 578 162 486.5 75 c 128,-1,17
 395 -12 395 -12 278 -12 c 0,18,19
 198 -12 198 -12 150.5 35.5 c 128,-1,20
 103 83 103 83 103 158 c 0,21,22
 103 266 103 266 193 354.5 c 128,-1,23
 283 443 283 443 398 443 c 0,12,13
367 338 m 0,24,25
 314 338 314 338 272.5 285 c 128,-1,26
 231 232 231 232 231 166 c 0,27,28
 231 132 231 132 254 107.5 c 128,-1,29
 277 83 277 83 305.5 83 c 128,-1,30
 334 83 334 83 360.5 97.5 c 128,-1,31
 387 112 387 112 403 127 c 128,-1,32
 419 142 419 142 420.5 142 c 128,-1,33
 422 142 422 142 422 123 c 0,34,35
 422 117 422 117 402.5 105 c 128,-1,36
 383 93 383 93 351 82.5 c 128,-1,37
 319 72 319 72 284 72 c 128,-1,38
 249 72 249 72 223.5 97.5 c 128,-1,39
 198 123 198 123 198 164 c 0,40,41
 198 240 198 240 261 298 c 128,-1,42
 324 356 324 356 387 356 c 0,43,44
 410 356 410 356 430 347.5 c 128,-1,45
 450 339 450 339 459 330 c 128,-1,46
 468 321 468 321 468 317.5 c 128,-1,47
 468 314 468 314 467 311.5 c 128,-1,48
 466 309 466 309 464 307.5 c 2,49,-1
 446 289 l 1,50,51
 443 289 443 289 443 294 c 1,52,53
 439 312 439 312 416 325 c 128,-1,54
 393 338 393 338 367 338 c 0,24,25
EndSplineSet
EndChar

StartChar: ordfeminine
Encoding: 170 170 105
Width: 222
GlyphClass: 2
Flags: W
HStem: 176 19<207.5 263.033> 183 15<124.303 157.18> 217 20G<311 315> 358 9<199.954 241.731>
VStem: 81 37<198.315 284.168> 192 37<195.103 233.736> 309 8<228.144 236.999>
LayerCount: 2
Fore
SplineSet
196 223 m 1,0,1
 213 281 213 281 259 334 c 1,2,3
 251 358 251 358 219.5 358 c 128,-1,4
 188 358 188 358 153 313 c 128,-1,5
 118 268 118 268 118 233 c 128,-1,6
 118 198 118 198 139 198 c 0,7,8
 157 198 157 198 196 223 c 1,0,1
267 341 m 1,9,10
 274 348 274 348 283.5 352 c 128,-1,11
 293 356 293 356 299.5 356 c 128,-1,12
 306 356 306 356 306 354 c 128,-1,13
 306 352 306 352 291 337 c 128,-1,14
 276 322 276 322 252.5 282.5 c 128,-1,15
 229 243 229 243 229 214 c 0,16,17
 229 195 229 195 248 195 c 0,18,19
 287 195 287 195 309 234 c 1,20,21
 309 237 309 237 313 237 c 128,-1,22
 317 237 317 237 317 236 c 0,23,24
 317 221 317 221 285.5 198.5 c 128,-1,25
 254 176 254 176 223 176 c 128,-1,26
 192 176 192 176 192 204 c 0,27,28
 192 205 192 205 192.5 207.5 c 128,-1,29
 193 210 193 210 193 211 c 1,30,31
 152 183 152 183 128 183 c 128,-1,32
 104 183 104 183 92.5 195 c 128,-1,33
 81 207 81 207 81 225 c 0,34,35
 81 274 81 274 129 320.5 c 128,-1,36
 177 367 177 367 224 367 c 0,37,38
 257 367 257 367 267 341 c 1,9,10
EndSplineSet
EndChar

StartChar: guillemotleft
Encoding: 171 171 106
Width: 313
GlyphClass: 2
Flags: W
HStem: -16 21G<140.75 144.25 224.75 228.25> 204 20G<279.25 281.75 341.5 344.5>
VStem: 104 28<60.0781 109.765> 138 35<-24.5083 28.4297> 182 27<62.531 112.661> 221 36<-14.2697 26.6527>
LayerCount: 2
Fore
SplineSet
343 224 m 128,-1,1
 346 224 346 224 346 221 c 128,-1,2
 346 218 346 218 340 213 c 0,3,4
 252 146 252 146 230.5 128 c 128,-1,5
 209 110 209 110 209 101 c 128,-1,6
 209 92 209 92 221 65.5 c 128,-1,7
 233 39 233 39 245 16 c 128,-1,8
 257 -7 257 -7 257 -9 c 128,-1,9
 257 -11 257 -11 243.5 -13.5 c 128,-1,10
 230 -16 230 -16 226.5 -16 c 128,-1,11
 223 -16 223 -16 221 -12.5 c 128,-1,12
 219 -9 219 -9 200.5 36 c 128,-1,13
 182 81 182 81 182 91.5 c 128,-1,14
 182 102 182 102 190 109 c 2,15,-1
 324.5 212 l 2,16,0
 340 224 340 224 343 224 c 128,-1,1
246.5 214 m 2,17,18
 278 239 278 239 280.5 239 c 128,-1,19
 283 239 283 239 283 234.5 c 128,-1,20
 283 230 283 230 276 227 c 1,21,-1
 192.75 160.844 l 2,22,23
 147 125 147 125 139.5 118 c 128,-1,24
 132 111 132 111 132 104 c 128,-1,25
 132 97 132 97 152.5 41.5 c 128,-1,26
 173 -14 173 -14 173 -18 c 0,27,28
 173 -20 173 -20 159.5 -23.5 c 128,-1,29
 146 -27 146 -27 142.5 -27 c 128,-1,30
 139 -27 139 -27 138 -25 c 0,31,32
 132 -13 132 -13 118 39 c 128,-1,33
 104 91 104 91 104 97 c 128,-1,34
 104 103 104 103 107 106 c 0,35,36
 129 121 129 121 172 155 c 2,37,-1
 246.5 214 l 2,17,18
EndSplineSet
EndChar

StartChar: logicalnot
Encoding: 172 172 107
Width: 358
GlyphClass: 2
Flags: W
HStem: 152 23<88.7593 289>
VStem: 84 254<155.789 172.913>
LayerCount: 2
Fore
SplineSet
100 175 m 2,0,-1
 257 173 l 1,1,-1
 332 174 l 2,2,3
 338 174 338 174 338 169.5 c 128,-1,4
 338 165 338 165 294 87 c 1,5,-1
 257 80 l 1,6,7
 250 80 250 80 254 88 c 2,8,-1
 289 155 l 1,9,-1
 86 152 l 2,10,11
 84 152 84 152 84 154 c 128,-1,12
 84 156 84 156 90 165.5 c 128,-1,13
 96 175 96 175 100 175 c 2,0,-1
EndSplineSet
EndChar

StartChar: uni00AD
Encoding: 173 173 108
Width: 248
GlyphClass: 2
Flags: W
HStem: 153 23<92.2135 263.9>
VStem: 84 184<155.103 172.985>
LayerCount: 2
Fore
SplineSet
100 176 m 2,0,-1
 220 173 l 1,1,-1
 266 174 l 2,2,3
 268 174 268 174 268 173 c 128,-1,4
 268 172 268 172 267.5 171 c 128,-1,5
 267 170 267 170 265.5 167.5 c 128,-1,6
 264 165 264 165 261 158 c 128,-1,7
 258 151 258 151 257 151 c 2,8,-1
 149 155 l 1,9,-1
 86 153 l 2,10,11
 84 153 84 153 84 154 c 128,-1,12
 84 155 84 155 85.5 156.5 c 0,13,14
 91 162 91 162 95 169 c 128,-1,15
 99 176 99 176 100 176 c 2,0,-1
EndSplineSet
EndChar

StartChar: registered
Encoding: 174 174 109
Width: 536
GlyphClass: 2
Flags: W
HStem: -12 16<241.844 341.048> 13 16<444.3 514.485> 355 12<389.753 427.099> 430 13<339.035 433.785>
VStem: 103 42<79.7065 256.234> 440 41<295.02 352.754> 537 41<177.18 356.201>
LayerCount: 2
Fore
SplineSet
292 245 m 1,0,1
 440 279 440 279 440 319 c 0,2,3
 440 355 440 355 404 355 c 0,4,5
 353 355 353 355 292 245 c 1,0,1
398 443 m 0,6,7
 478 443 478 443 528 395.5 c 128,-1,8
 578 348 578 348 578 276.5 c 128,-1,9
 578 205 578 205 540 142.5 c 128,-1,10
 502 80 502 80 440 39 c 1,11,12
 459 29 459 29 482.5 29 c 128,-1,13
 506 29 506 29 529 43 c 128,-1,14
 552 57 552 57 555 57 c 128,-1,15
 558 57 558 57 558 54 c 0,16,17
 558 42 558 42 529.5 27.5 c 128,-1,18
 501 13 501 13 473 13 c 128,-1,19
 445 13 445 13 418 25 c 1,20,21
 349 -12 349 -12 273.5 -12 c 128,-1,22
 198 -12 198 -12 150.5 35.5 c 128,-1,23
 103 83 103 83 103 158 c 0,24,25
 103 266 103 266 193 354.5 c 128,-1,26
 283 443 283 443 398 443 c 0,6,7
221 97 m 2,27,-1
 184 93 l 2,28,29
 177 93 177 93 177 97 c 1,30,-1
 291 297 l 1,31,32
 311 326 311 326 353.5 346.5 c 128,-1,33
 396 367 396 367 423.5 367 c 128,-1,34
 451 367 451 367 466 356.5 c 128,-1,35
 481 346 481 346 481 331 c 0,36,37
 481 271 481 271 288 231 c 1,38,39
 388 74 388 74 427 46 c 1,40,41
 477 82 477 82 507 139 c 128,-1,42
 537 196 537 196 537 268 c 128,-1,43
 537 340 537 340 497 385 c 128,-1,44
 457 430 457 430 383 430 c 0,45,46
 287 430 287 430 216.5 347.5 c 128,-1,47
 146 265 146 265 145 164 c 0,48,49
 145 98 145 98 185.5 51 c 128,-1,50
 226 4 226 4 290 4 c 128,-1,51
 354 4 354 4 404 32 c 1,52,53
 398 35 398 35 392 41 c 2,54,-1
 378 55.5 l 2,55,56
 370 64 370 64 363.5 72.5 c 2,57,-1
 316 138.5 l 2,58,59
 306 153 306 153 301 161 c 2,60,-1
 286 184 l 2,61,62
 276 199 276 199 273 204 c 1,63,64
 262 182 262 182 249 152.5 c 0,65,66
 224.542 97 224.542 97 221 97 c 2,27,-1
EndSplineSet
EndChar

StartChar: macron
Encoding: 175 175 110
Width: 165
GlyphClass: 2
Flags: W
HStem: 321 15<113.002 286.833>
VStem: 113 174<322.063 334.932>
LayerCount: 2
Fore
SplineSet
217 322 m 1,0,-1
 120 321 l 2,1,2
 113 321 113 321 113 328.5 c 128,-1,3
 113 336 113 336 117 336 c 2,4,-1
 168 335 l 1,5,-1
 279 336 l 2,6,7
 287 336 287 336 287 330 c 0,8,9
 287 321 287 321 268 321 c 2,10,11
 217 322 l 1,0,-1
EndSplineSet
EndChar

StartChar: degree
Encoding: 176 176 111
Width: 167
GlyphClass: 2
Flags: W
HStem: 310 14<177.082 217.731> 426 16<177.223 215.745>
VStem: 129 24<342.214 404.195> 240 25<345.778 406.964>
LayerCount: 2
Fore
SplineSet
188 426 m 0,0,1
 153 426 153 426 153 377.5 c 0,2,3
 153 355 153 355 167 339.5 c 128,-1,4
 181 324 181 324 200.5 324 c 128,-1,5
 220 324 220 324 230 339.5 c 128,-1,6
 240 355 240 355 240 373.5 c 128,-1,7
 240 392 240 392 226 409 c 128,-1,8
 212 426 212 426 188 426 c 0,0,1
145.5 327 m 128,-1,10
 129 344 129 344 129 371 c 128,-1,11
 129 398 129 398 156 420 c 128,-1,12
 183 442 183 442 207 442 c 128,-1,13
 231 442 231 442 248 426.5 c 128,-1,14
 265 411 265 411 265 382.5 c 128,-1,15
 265 354 265 354 240 332 c 128,-1,16
 215 310 215 310 188.5 310 c 128,-1,9
 162 310 162 310 145.5 327 c 128,-1,10
EndSplineSet
EndChar

StartChar: plusminus
Encoding: 177 177 112
Width: 421
GlyphClass: 2
Flags: W
HStem: -3 25<66.25 336> 38 6<127.856 158.369> 246 21G<182.75 184.25> 273 17<238.789 301.5>
VStem: 106 7<57.9644 87.7605> 287 35<192.87 271.551>
LayerCount: 2
Fore
SplineSet
74 22 m 2,0,-1
 255 18 l 1,1,-1
 345 20 l 2,2,3
 347 20 347 20 347 19 c 128,-1,4
 347 18 347 18 346.5 17 c 128,-1,5
 346 16 346 16 344.5 13.5 c 128,-1,6
 343 11 343 11 342 8 c 2,7,-1
 336 -5 l 1,8,-1
 148 -1 l 1,9,-1
 60 -3 l 2,10,11
 58 -3 58 -3 58 -2 c 128,-1,12
 58 -1 58 -1 59.5 0.5 c 0,13,14
 64 5 64 5 68.5 13.5 c 128,-1,15
 73 22 73 22 74 22 c 2,0,-1
251 149 m 1,16,17
 197 145 197 145 155 123.5 c 128,-1,18
 113 102 113 102 113 71 c 0,19,20
 113 60 113 60 121 52 c 128,-1,21
 129 44 129 44 141 44 c 0,22,23
 170 44 170 44 200.5 77.5 c 128,-1,24
 231 111 231 111 251 149 c 1,16,17
322 261 m 0,25,26
 322 226 322 226 295 172 c 1,27,28
 411 178.824 411 178.824 411 177 c 0,29,30
 411 171 411 171 400 165 c 2,31,-1
 378 153 l 1,32,33
 326 153 326 153 284 151 c 1,34,35
 261 106 261 106 231 79 c 128,-1,36
 201 52 201 52 180.5 45 c 128,-1,37
 160 38 160 38 142.5 38 c 128,-1,38
 125 38 125 38 115.5 47 c 128,-1,39
 106 56 106 56 106 68 c 0,40,41
 106 102 106 102 144.5 132 c 128,-1,42
 183 162 183 162 261 170 c 1,43,44
 287 226 287 226 287 242 c 0,45,46
 287 273 287 273 259 273 c 0,47,48
 221.643 273 221.643 273 194.5 253 c 0,49,50
 185 246 185 246 183.5 246 c 128,-1,51
 182 246 182 246 182 248.5 c 128,-1,52
 182 251 182 251 195.5 261 c 128,-1,53
 209 271 209 271 235.5 280.5 c 128,-1,54
 262 290 262 290 281 290 c 0,55,56
 322 290 322 290 322 261 c 0,25,26
EndSplineSet
EndChar

StartChar: uni00B2
Encoding: 178 178 113
Width: 246
GlyphClass: 2
Flags: W
HStem: 217 18<234.353 273.995> 230 20G<296 313> 236 21G<56.75 60.25> 263 18<140 148.354> 422 20<197.123 249.181>
VStem: 263 33<360.991 413.787>
LayerCount: 2
Fore
SplineSet
312 250 m 2,0,1
 314 250 314 250 314 247.5 c 128,-1,2
 314 245 314 245 300.5 238 c 0,3,4
 260 217 260 217 237.5 217 c 128,-1,5
 215 217 215 217 175 240 c 128,-1,6
 135 263 135 263 119.5 263 c 128,-1,7
 104 263 104 263 83 249.5 c 128,-1,8
 62 236 62 236 58.5 236 c 128,-1,9
 55 236 55 236 55 239 c 128,-1,10
 55 242 55 242 83.5 259.5 c 128,-1,11
 112 277 112 277 168.5 304.5 c 128,-1,12
 225 332 225 332 244 346 c 128,-1,13
 263 360 263 360 263 380 c 0,14,15
 263 422 263 422 211 422 c 0,16,17
 184 422 184 422 167 401 c 0,18,19
 165 398 165 398 163 398 c 128,-1,20
 161 398 161 398 161 399.5 c 128,-1,21
 161 401 161 401 162.5 404 c 128,-1,22
 164 407 164 407 169.5 413.5 c 128,-1,23
 175 420 175 420 195 431 c 128,-1,24
 215 442 215 442 239 442 c 0,25,26
 296 442 296 442 296 399 c 1,27,28
 295 382 295 382 285 367.5 c 128,-1,29
 275 353 275 353 246 335.5 c 0,30,31
 175.042 292.681 175.042 292.681 140 281 c 1,32,33
 169 281 169 281 208 258 c 128,-1,34
 247 235 247 235 263.5 235 c 128,-1,35
 280 235 280 235 296 242.5 c 2,36,-1
 312 250 l 2,0,1
EndSplineSet
EndChar

StartChar: uni00B3
Encoding: 179 179 114
Width: 246
GlyphClass: 2
Flags: W
HStem: 232 18<131.884 187.633> 337 18<183.556 217.997> 428 15<207.806 250.178>
VStem: 81 30<263.136 286.641> 233 28<279.316 327.677> 260 37<374.792 422.033>
LayerCount: 2
Fore
SplineSet
200 432 m 128,-1,1
 220 443 220 443 246 443 c 128,-1,2
 272 443 272 443 284.5 432 c 128,-1,3
 297 421 297 421 297 407 c 0,4,5
 297 373 297 373 231 351 c 1,6,7
 261 340 261 340 261 311.5 c 128,-1,8
 261 283 261 283 221 257.5 c 128,-1,9
 181 232 181 232 137 232 c 0,10,11
 117 232 117 232 99 243 c 128,-1,12
 81 254 81 254 81 274 c 0,13,14
 81 278 81 278 93 285 c 128,-1,15
 105 292 105 292 108 292 c 128,-1,16
 111 292 111 292 111 291 c 0,17,18
 111 274 111 274 127 262 c 128,-1,19
 143 250 143 250 171 250 c 128,-1,20
 199 250 199 250 216 265 c 128,-1,21
 233 280 233 280 233 300 c 0,22,23
 233 337 233 337 179 337 c 0,24,25
 172.4 337 172.4 337 182 345 c 0,26,27
 192 353 192 353 201 355 c 0,28,29
 260 368 260 368 260 401 c 0,30,31
 260 411 260 411 251.5 419.5 c 128,-1,32
 243 428 243 428 218.5 428 c 128,-1,33
 194 428 194 428 172 402 c 0,34,35
 170 399 170 399 168 399 c 128,-1,36
 166 399 166 399 166 400.5 c 128,-1,37
 166 402 166 402 167.5 405 c 128,-1,38
 169 408 169 408 174.5 414.5 c 128,-1,0
 180 421 180 421 200 432 c 128,-1,1
EndSplineSet
EndChar

StartChar: acute
Encoding: 180 180 115
Width: 158
GlyphClass: 2
Flags: W
HStem: 273 80
VStem: 118 140
LayerCount: 2
Fore
SplineSet
129 281 m 2,0,-1
 248 350 l 2,1,2
 252 353 252 353 256 353 c 0,3,4
 258 353 258 353 258 344 c 128,-1,5
 258 335 258 335 244.5 329.5 c 128,-1,6
 231 324 231 324 199.5 309 c 2,7,-1
 145.5 283.5 l 2,8,9
 123 273 123 273 120.5 273 c 128,-1,10
 118 273 118 273 118 274 c 128,-1,11
 118 275 118 275 129 281 c 2,0,-1
EndSplineSet
EndChar

StartChar: uni00B5
Encoding: 181 181 116
Width: 309
GlyphClass: 2
Flags: W
HStem: -8 20<52.9551 108.12 197.633 254.025> 203 20G<137 151 295 304>
VStem: 26 32<17.1475 70.8931> 180 34<10.1102 60.3398>
LayerCount: 2
Fore
SplineSet
94 12 m 0,0,1
 140 12 140 12 196 71 c 1,2,3
 207 95 207 95 235 145 c 128,-1,4
 263 195 263 195 270 204 c 1,5,6
 288 223 288 223 302 223 c 0,7,8
 306 223 306 223 306 217 c 128,-1,9
 306 211 306 211 283 170 c 128,-1,10
 260 129 260 129 231 92 c 1,11,12
 214 55 214 55 214 32.5 c 128,-1,13
 214 10 214 10 230 10 c 0,14,15
 287.314 10 287.314 10 358.5 85.5 c 1,16,-1
 385.5 115 l 2,17,18
 396 127 396 127 397.5 127 c 128,-1,19
 399 127 399 127 399 124 c 128,-1,20
 399 121 399 121 348 66 c 1,21,22
 311 28 311 28 271 9 c 128,-1,23
 231 -10 231 -10 205.5 -10 c 128,-1,24
 180 -10 180 -10 180 13 c 0,25,26
 180 28 180 28 188 49 c 1,27,28
 112 -8 112 -8 64 -8 c 0,29,30
 40 -8 40 -8 31 7 c 1,31,32
 -35 -89 -35 -89 -102.5 -170 c 128,-1,33
 -170 -251 -170 -251 -220 -299 c 128,-1,34
 -270 -347 -270 -347 -312.5 -380.5 c 0,35,36
 -387.985 -440 -387.985 -440 -405 -440 c 0,37,38
 -406 -440 -406 -440 -406 -439 c 128,-1,39
 -406 -438 -406 -438 -387 -426.5 c 128,-1,40
 -368 -415 -368 -415 -329 -384 c 128,-1,41
 -290 -353 -290 -353 -240.5 -306.5 c 128,-1,42
 -191 -260 -191 -260 -119.5 -173 c 128,-1,43
 -48 -86 -48 -86 26 24 c 1,44,45
 26 47 26 47 63.5 117 c 128,-1,46
 101 187 101 187 113.5 199.5 c 128,-1,47
 126 212 126 212 148 223 c 1,48,49
 154 223 154 223 154 216 c 0,50,51
 154 205.745 154 205.745 120 147.872 c 128,-1,52
 86 90 86 90 58 47 c 1,53,54
 58 12 58 12 94 12 c 0,0,1
EndSplineSet
EndChar

StartChar: paragraph
Encoding: 182 182 117
Width: 335
GlyphClass: 2
Flags: W
HStem: -16 21G<119.75 123.25> 401 26<420.204 462.083> 423 20<281.579 363>
VStem: 100 36<232.531 325.363>
LayerCount: 2
Fore
SplineSet
222 166 m 1,0,1
 100 175 100 175 100 270 c 0,2,3
 100 320.623 100 320.623 162.5 378 c 0,4,5
 193 406 193 406 249 424.5 c 128,-1,6
 305 443 305 443 357.5 443 c 128,-1,7
 410 443 410 443 440 435 c 128,-1,8
 470 427 470 427 472 427 c 128,-1,9
 474 427 474 427 474 425.5 c 128,-1,10
 474 424 474 424 472 422.5 c 0,11,12
 466 418 466 418 457.5 409.5 c 128,-1,13
 449 401 449 401 447 401 c 128,-1,14
 445 401 445 401 440.5 404.5 c 0,15,16
 428.091 414.152 428.091 414.152 393 420 c 1,17,18
 358 357 358 357 272 185 c 1,19,20
 332 185 332 185 386 202 c 0,21,22
 388 203 388 203 390 203 c 128,-1,23
 392 203 392 203 392 201.75 c 128,-1,24
 392 200.5 392 200.5 389 199 c 0,25,26
 333 173 333 173 262 166 c 1,27,28
 197 37 197 37 182 2 c 0,29,30
 179.2 -5.00001 179.2 -5.00001 163.1 -5 c 128,-1,31
 147 -5 147 -5 139.5 -8 c 128,-1,32
 132 -11 132 -11 128.5 -13.5 c 128,-1,33
 125 -16 125 -16 121.5 -16 c 128,-1,34
 118 -16 118 -16 118 -13 c 1,35,-1
 135 17 l 1,36,37
 175 82 175 82 222 166 c 1,0,1
136 288 m 0,38,39
 136 210 136 210 236 190 c 1,40,41
 333 364 333 364 363 423 c 1,42,43
 224 423 224 423 176 375 c 0,44,45
 136 335 136 335 136 288 c 0,38,39
EndSplineSet
EndChar

StartChar: periodcentered
Encoding: 183 183 118
Width: 219
GlyphClass: 4
Flags: W
HStem: 161 53<148.516 186.358>
VStem: 145 46<162.485 201.765>
AnchorPoint: "Anchor-0" 168 187 mark 0
LayerCount: 2
Fore
SplineSet
145 179 m 0,0,1
 145 190 145 190 155 202 c 128,-1,2
 165 214 165 214 173.5 214 c 128,-1,3
 182 214 182 214 186.5 208.5 c 128,-1,4
 191 203 191 203 191 193.5 c 128,-1,5
 191 184 191 184 182 172.5 c 128,-1,6
 173 161 173 161 161 161 c 0,7,8
 145 161 145 161 145 179 c 0,0,1
EndSplineSet
EndChar

StartChar: cedilla
Encoding: 184 184 119
Width: 200
GlyphClass: 4
Flags: W
HStem: -145 5<48.4458 74.1262> -73 26<59 91.5367>
VStem: 98 19<-119.677 -83.1606>
AnchorPoint: "Anchor-4" 80 0 mark 0
LayerCount: 2
Fore
SplineSet
86 0 m 2,0,-1
 59 -47 l 1,1,2
 90 -47 90 -47 103.5 -60.5 c 128,-1,3
 117 -74 117 -74 117 -93 c 128,-1,4
 117 -112 117 -112 100 -128.5 c 128,-1,5
 83 -145 83 -145 60.5 -145 c 128,-1,6
 38 -145 38 -145 24.5 -134 c 128,-1,7
 11 -123 11 -123 11 -114 c 0,8,9
 11 -113 11 -113 16 -110.5 c 128,-1,10
 21 -108 21 -108 24 -108 c 0,11,12
 25 -108 25 -108 29 -116 c 0,13,14
 41 -140 41 -140 59 -140 c 128,-1,15
 77 -140 77 -140 87.5 -129 c 128,-1,16
 98 -118 98 -118 98 -103 c 0,17,18
 98 -73 98 -73 46 -73 c 0,19,20
 41 -73 41 -73 39 -75 c 128,-1,21
 37 -77 37 -77 33.5 -77 c 128,-1,22
 30 -77 30 -77 30 -75 c 1,23,-1
 56 -33.5 l 2,24,25
 68 -15 68 -15 76 0 c 0,26,27
 77 1 77 1 81.5 1 c 128,-1,28
 86 1 86 1 86 0 c 2,0,-1
EndSplineSet
EndChar

StartChar: uni00B9
Encoding: 185 185 120
Width: 183
GlyphClass: 2
Flags: W
HStem: 231 21G<112 145.5> 363 8<97.8965 145.352> 423 20G<251.25 255.75>
VStem: 97 161
LayerCount: 2
Fore
SplineSet
99 371 m 2,0,-1
 108 369 l 1,1,2
 161 369 161 369 211 412 c 1,3,4
 225 428 225 428 237 435.5 c 128,-1,5
 249 443 249 443 253.5 443 c 128,-1,6
 258 443 258 443 258 438 c 0,7,8
 258 423 258 423 234 401 c 1,9,10
 210.971 367.735 210.971 367.735 193.985 330.368 c 2,11,-1
 166 270.5 l 2,12,13
 155 248 155 248 153.5 244 c 128,-1,14
 152 240 152 240 151.5 239 c 0,15,16
 149.5 235 149.5 235 145.5 235 c 2,17,-1
 115 231 l 2,18,19
 109 231 109 231 109 234.5 c 128,-1,20
 109 238 109 238 118.5 248.5 c 128,-1,21
 128 259 128 259 140 278.5 c 128,-1,22
 152 298 152 298 171.5 336 c 128,-1,23
 191 374 191 374 200 390 c 1,24,25
 148 363 148 363 122.5 363 c 128,-1,26
 97 363 97 363 97 369 c 0,27,28
 97 371 97 371 99 371 c 2,0,-1
EndSplineSet
EndChar

StartChar: ordmasculine
Encoding: 186 186 121
Width: 198
GlyphClass: 2
Flags: W
HStem: 185 18<145.348 195.484> 343 19<170.277 221.626>
VStem: 88 29<223.523 296.157> 249 32<248.708 324.193>
LayerCount: 2
Fore
SplineSet
136.5 316.5 m 128,-1,1
 117 290 117 290 117 263.5 c 128,-1,2
 117 237 117 237 134.5 220 c 128,-1,3
 152 203 152 203 181.5 203 c 128,-1,4
 211 203 211 203 230 229.5 c 128,-1,5
 249 256 249 256 249 282.5 c 128,-1,6
 249 309 249 309 231.5 326 c 128,-1,7
 214 343 214 343 185 343 c 128,-1,0
 156 343 156 343 136.5 316.5 c 128,-1,1
88 247 m 0,8,9
 88 292 88 292 129.5 327 c 128,-1,10
 171 362 171 362 215 362 c 0,11,12
 243 362 243 362 262 344 c 128,-1,13
 281 326 281 326 281 300 c 0,14,15
 281 255 281 255 238.5 220 c 128,-1,16
 196 185 196 185 151 185 c 0,17,18
 125 185 125 185 106.5 202.5 c 128,-1,19
 88 220 88 220 88 247 c 0,8,9
EndSplineSet
EndChar

StartChar: guillemotright
Encoding: 187 187 122
Width: 239
GlyphClass: 2
Flags: W
HStem: -13 21G<8.5 11.5 71.25 73.75> 207 20G<124.75 128.25 208 212>
VStem: 96 36<184.347 225.27> 144 27<98.3394 148.469> 180 37.5<175.206 235.906> 221 28<101.235 150.922>
LayerCount: 2
Fore
SplineSet
10 -13 m 128,-1,1
 7 -13 7 -13 7 -9.5 c 128,-1,2
 7 -6 7 -6 13 -2 c 0,3,4
 101 65 101 65 122.5 83 c 128,-1,5
 144 101 144 101 144 110 c 128,-1,6
 144 119 144 119 132 145.5 c 128,-1,7
 120 172 120 172 108 195 c 128,-1,8
 96 218 96 218 96 220 c 128,-1,9
 96 222 96 222 109.5 224.5 c 128,-1,10
 123 227 123 227 126.5 227 c 128,-1,11
 130 227 130 227 132 223.5 c 128,-1,12
 134 220 134 220 152.5 175 c 128,-1,13
 171 130 171 130 171 119.5 c 128,-1,14
 171 109 171 109 163 102 c 2,15,-1
 28.5 -1 l 2,16,0
 13 -13 13 -13 10 -13 c 128,-1,1
106.5 -3 m 2,17,18
 75 -28 75 -28 72.5 -28 c 128,-1,19
 70 -28 70 -28 70 -24 c 128,-1,20
 70 -20 70 -20 77 -16 c 1,21,-1
 160.25 50.1562 l 2,22,23
 206 86 206 86 213.5 93 c 128,-1,24
 221 100 221 100 221 107 c 128,-1,25
 221 114 221 114 200.5 169.5 c 128,-1,26
 180 225 180 225 180 229 c 0,27,28
 180 231 180 231 193 234.5 c 128,-1,29
 206 238 206 238 210 238 c 128,-1,30
 214 238 214 238 217.5 231 c 128,-1,31
 221 224 221 224 235 172 c 128,-1,32
 249 120 249 120 249 114 c 128,-1,33
 249 108 249 108 246 105 c 0,34,35
 224 90 224 90 181 56 c 2,36,-1
 106.5 -3 l 2,17,18
EndSplineSet
EndChar

StartChar: onequarter
Encoding: 188 188 123
Width: 443
GlyphClass: 2
Flags: W
HStem: -37 21G<327 360.5> 55 17<306.039 383.192> 244 21G<179 212.5> 376 8<164.896 212.352> 436 20G<318.25 322.75>
VStem: 275 28<65 105.29>
LayerCount: 2
Fore
SplineSet
462 327 m 2,0,1
 478 337 478 337 482.5 332.5 c 128,-1,2
 487 328 487 328 470 319 c 1,3,-1
 135 113 l 2,4,5
 118 103 118 103 114 107 c 128,-1,6
 110 111 110 111 127 121 c 2,7,-1
 462 327 l 2,0,1
360.5 -33 m 2,8,-1
 330 -37 l 2,9,10
 324 -37 324 -37 324 -33.5 c 128,-1,11
 324 -30 324 -30 336.5 -16 c 128,-1,12
 349 -2 349 -2 384 63 c 1,13,14
 340 55 340 55 317.5 55 c 0,15,16
 275 55 275 55 275 75 c 0,17,18
 275 90 275 90 286.5 103 c 128,-1,19
 298 116 298 116 319 133.5 c 128,-1,20
 340 151 340 151 349.5 163.5 c 128,-1,21
 359 176 359 176 381 176 c 0,22,23
 384 176 384 176 384 173 c 1,24,-1
 343.5 138 l 2,25,26
 303 103 303 103 303 86 c 0,27,28
 303 72 303 72 352 72 c 0,29,30
 372 72 372 72 390 75 c 1,31,-1
 401.5 97 l 2,32,33
 408 109 408 109 411 115 c 0,34,35
 427.304 146.443 427.304 146.443 432.652 150.722 c 128,-1,36
 438 155 438 155 442.5 158 c 2,37,-1
 454 166 l 2,38,39
 468 176 468 176 472 176 c 128,-1,40
 476 176 476 176 476 173.5 c 128,-1,41
 476 171 476 171 473 167.5 c 128,-1,42
 470 164 470 164 465 159 c 128,-1,43
 460 154 460 154 458 151 c 2,44,-1
 369 -23 l 2,45,46
 365 -33 365 -33 360.5 -33 c 2,8,-1
166 384 m 2,47,-1
 175 382 l 1,48,49
 228 382 228 382 278 425 c 1,50,51
 292 441 292 441 304 448.5 c 128,-1,52
 316 456 316 456 320.5 456 c 128,-1,53
 325 456 325 456 325 451 c 0,54,55
 325 436 325 436 301 414 c 1,56,57
 277.971 380.735 277.971 380.735 260.985 343.368 c 2,58,-1
 233 283.5 l 2,59,60
 222 261 222 261 220.5 257 c 128,-1,61
 219 253 219 253 218.5 252 c 0,62,63
 216.5 248 216.5 248 212.5 248 c 2,64,-1
 182 244 l 2,65,66
 176 244 176 244 176 247 c 128,-1,67
 176 250 176 250 185 261 c 0,68,69
 204.154 282.069 204.154 282.069 231.077 334.535 c 128,-1,70
 258 387 258 387 267 403 c 1,71,72
 215 376 215 376 189.5 376 c 128,-1,73
 164 376 164 376 164 382 c 0,74,75
 164 384 164 384 166 384 c 2,47,-1
EndSplineSet
EndChar

StartChar: onehalf
Encoding: 189 189 124
Width: 443
GlyphClass: 2
Flags: W
HStem: -43 18<374.353 413.995> -30 20G<436 453> -24 21G<196.75 200.25> 3 18<280 288.354> 162 20<337.123 389.181> 244 21G<179 212.5> 376 8<164.896 212.352> 436 20G<318.25 322.75>
VStem: 403 33<100.991 153.787>
LayerCount: 2
Fore
SplineSet
462 327 m 2,0,1
 478 337 478 337 482.5 332.5 c 128,-1,2
 487 328 487 328 470 319 c 1,3,-1
 135 113 l 2,4,5
 118 103 118 103 114 107 c 128,-1,6
 110 111 110 111 127 121 c 2,7,-1
 462 327 l 2,0,1
452 -10 m 2,8,9
 454 -10 454 -10 454 -12.5 c 128,-1,10
 454 -15 454 -15 440.5 -22 c 0,11,12
 400 -43 400 -43 377.5 -43 c 128,-1,13
 355 -43 355 -43 315 -20 c 128,-1,14
 275 3 275 3 259.5 3 c 128,-1,15
 244 3 244 3 223 -10.5 c 128,-1,16
 202 -24 202 -24 198.5 -24 c 128,-1,17
 195 -24 195 -24 195 -21 c 128,-1,18
 195 -18 195 -18 223.5 -0.5 c 128,-1,19
 252 17 252 17 308.5 44.5 c 128,-1,20
 365 72 365 72 384 86 c 128,-1,21
 403 100 403 100 403 120 c 0,22,23
 403 162 403 162 351 162 c 0,24,25
 324 162 324 162 307 141 c 0,26,27
 305 138 305 138 303 138 c 128,-1,28
 301 138 301 138 301 139.5 c 128,-1,29
 301 141 301 141 302.5 144 c 128,-1,30
 304 147 304 147 309.5 153.5 c 128,-1,31
 315 160 315 160 335 171 c 128,-1,32
 355 182 355 182 379 182 c 0,33,34
 436 182 436 182 436 139 c 1,35,36
 435 122 435 122 425 107.5 c 128,-1,37
 415 93 415 93 386 75.5 c 0,38,39
 315.043 32.6809 315.043 32.6809 280 21 c 1,40,41
 309 21 309 21 348 -2 c 128,-1,42
 387 -25 387 -25 403.5 -25 c 128,-1,43
 420 -25 420 -25 436 -17.5 c 2,44,-1
 452 -10 l 2,8,9
166 384 m 2,45,-1
 175 382 l 1,46,47
 228 382 228 382 278 425 c 1,48,49
 292 441 292 441 304 448.5 c 128,-1,50
 316 456 316 456 320.5 456 c 128,-1,51
 325 456 325 456 325 451 c 0,52,53
 325 436 325 436 301 414 c 1,54,55
 277.971 380.735 277.971 380.735 260.985 343.368 c 2,56,-1
 233 283.5 l 2,57,58
 222 261 222 261 220.5 257 c 128,-1,59
 219 253 219 253 218.5 252 c 0,60,61
 216.5 248 216.5 248 212.5 248 c 2,62,-1
 182 244 l 2,63,64
 176 244 176 244 176 247 c 128,-1,65
 176 250 176 250 185 261 c 0,66,67
 204.154 282.069 204.154 282.069 231.077 334.535 c 128,-1,68
 258 387 258 387 267 403 c 1,69,70
 215 376 215 376 189.5 376 c 128,-1,71
 164 376 164 376 164 382 c 0,72,73
 164 384 164 384 166 384 c 2,45,-1
EndSplineSet
EndChar

StartChar: threequarters
Encoding: 190 190 125
Width: 443
GlyphClass: 2
Flags: W
HStem: -37 21G<327 360.5> 55 17<306.039 383.192> 245 18<168.884 224.633> 350 18<220.556 254.997> 441 15<244.806 287.178>
VStem: 118 30<276.136 299.641> 275 28<65 105.29 298.642 336.867> 297 37<387.792 435.033>
LayerCount: 2
Fore
SplineSet
462 327 m 2,0,1
 478 337 478 337 482.5 332.5 c 128,-1,2
 487 328 487 328 470 319 c 1,3,-1
 135 113 l 2,4,5
 118 103 118 103 114 107 c 128,-1,6
 110 111 110 111 127 121 c 2,7,-1
 462 327 l 2,0,1
237 445 m 128,-1,9
 257 456 257 456 283 456 c 128,-1,10
 309 456 309 456 321.5 445 c 128,-1,11
 334 434 334 434 334 420 c 0,12,13
 334 386 334 386 268 364 c 1,14,15
 298 354 298 354 298 325 c 128,-1,16
 298 296 298 296 258 270.5 c 128,-1,17
 218 245 218 245 174 245 c 0,18,19
 154 245 154 245 136 256 c 128,-1,20
 118 267 118 267 118 287 c 0,21,22
 118 291 118 291 130 298 c 128,-1,23
 142 305 142 305 145 305 c 128,-1,24
 148 305 148 305 148 304 c 0,25,26
 148 287 148 287 164 275 c 128,-1,27
 180 263 180 263 208 263 c 128,-1,28
 236 263 236 263 253 278 c 128,-1,29
 270 293 270 293 270 313 c 0,30,31
 270 350 270 350 216 350 c 0,32,33
 209.4 350 209.4 350 219 358 c 0,34,35
 229 366 229 366 238 368 c 0,36,37
 297 381 297 381 297 414 c 0,38,39
 297 424 297 424 288.5 432.5 c 128,-1,40
 280 441 280 441 255.5 441 c 128,-1,41
 231 441 231 441 209 415 c 0,42,43
 207 412 207 412 205 412 c 128,-1,44
 203 412 203 412 203 413.5 c 128,-1,45
 203 415 203 415 204.5 418 c 128,-1,46
 206 421 206 421 211.5 427.5 c 128,-1,8
 217 434 217 434 237 445 c 128,-1,9
360.5 -33 m 2,47,-1
 330 -37 l 2,48,49
 324 -37 324 -37 324 -33.5 c 128,-1,50
 324 -30 324 -30 336.5 -16 c 128,-1,51
 349 -2 349 -2 384 63 c 1,52,53
 340 55 340 55 317.5 55 c 0,54,55
 275 55 275 55 275 75 c 0,56,57
 275 90 275 90 286.5 103 c 128,-1,58
 298 116 298 116 319 133.5 c 128,-1,59
 340 151 340 151 349.5 163.5 c 128,-1,60
 359 176 359 176 381 176 c 0,61,62
 384 176 384 176 384 173 c 1,63,-1
 343.5 138 l 2,64,65
 303 103 303 103 303 86 c 0,66,67
 303 72 303 72 352 72 c 0,68,69
 372 72 372 72 390 75 c 1,70,-1
 401.5 97 l 2,71,72
 408 109 408 109 411 115 c 0,73,74
 427.304 146.443 427.304 146.443 432.652 150.722 c 128,-1,75
 438 155 438 155 442.5 158 c 2,76,-1
 454 166 l 2,77,78
 468 176 468 176 472 176 c 128,-1,79
 476 176 476 176 476 173.5 c 128,-1,80
 476 171 476 171 473 167.5 c 128,-1,81
 470 164 470 164 465 159 c 128,-1,82
 460 154 460 154 458 151 c 2,83,-1
 369 -23 l 2,84,85
 365 -33 365 -33 360.5 -33 c 2,47,-1
EndSplineSet
EndChar

StartChar: questiondown
Encoding: 191 191 126
Width: 241
GlyphClass: 2
Flags: W
HStem: -191 24<19.0197 75.1445> 192 64<212.562 255.76>
VStem: -41 39<-153.913 -85.0496> 167 35<40.2342 100.736> 203 61<199.416 246.832>
LayerCount: 2
Fore
SplineSet
15 -152 m 128,-1,1
 32 -167 32 -167 54 -167 c 128,-1,2
 76 -167 76 -167 97 -156.5 c 128,-1,3
 118 -146 118 -146 132 -135.5 c 128,-1,4
 146 -125 146 -125 149 -125 c 128,-1,5
 152 -125 152 -125 152 -127 c 128,-1,6
 152 -129 152 -129 149 -132 c 0,7,8
 80 -191 80 -191 21 -191 c 0,9,10
 -7 -191 -7 -191 -24 -175.5 c 128,-1,11
 -41 -160 -41 -160 -41 -137.5 c 128,-1,12
 -41 -115 -41 -115 -34 -101.5 c 128,-1,13
 -27 -88 -27 -88 -11 -75.5 c 128,-1,14
 5 -63 5 -63 15 -56.5 c 128,-1,15
 25 -50 25 -50 49 -38 c 2,16,17
 77 -24 l 1,18,19
 94 -14 94 -14 99 -11.5 c 128,-1,20
 104 -9 104 -9 121 2 c 128,-1,21
 138 13 138 13 145 20.5 c 0,22,23
 167 44.0714 167 44.0714 167 59.0357 c 0,24,25
 167 79.7222 167 79.7222 139 115.5 c 2,26,-1
 130 127 l 1,27,28
 130 132.5 130 132.5 140.5 134.75 c 128,-1,29
 151 137 151 137 158 139.5 c 128,-1,30
 165 142 165 142 170 142 c 128,-1,31
 175 142 175 142 188.5 118.5 c 128,-1,32
 202 95 202 95 202 76.5 c 128,-1,33
 202 58 202 58 180.5 35.5 c 128,-1,34
 159 13 159 13 139.5 0.5 c 128,-1,35
 120 -12 120 -12 100 -23 c 2,36,-1
 40 -55 l 2,37,38
 12.7632 -70.1316 12.7632 -70.1316 5.38158 -85.5658 c 128,-1,39
 -2 -101 -2 -101 -2 -119 c 128,-1,0
 -2 -137 -2 -137 15 -152 c 128,-1,1
244 256 m 0,40,41
 264 256 264 256 264 239 c 128,-1,42
 264 222 264 222 250.5 207 c 128,-1,43
 237 192 237 192 220 192 c 128,-1,44
 203 192 203 192 203 210 c 0,45,46
 203 225 203 225 218 240.5 c 128,-1,47
 233 256 233 256 244 256 c 0,40,41
EndSplineSet
EndChar

StartChar: Agrave
Encoding: 192 192 127
Width: 490
GlyphClass: 2
Flags: W
HStem: -7 13<-24.2584 2.28894> -4 17<379.25 434.874> 143 16<264.727 350.898> 154 17<202 256.16> 431 20G<458.75 462.25> 601 20G<418 425.5>
VStem: 346 44<15.4612 148>
LayerCount: 2
Fore
SplineSet
473 512 m 1,0,-1
 478 501 l 2,1,2
 478 500 478 500 475 500 c 128,-1,3
 472 500 472 500 470 504 c 2,4,-1
 414 596 l 2,5,6
 413 597 413 597 413 602 c 0,7,8
 413 621 413 621 423 621 c 0,9,10
 428 621 428 621 430 616 c 2,11,-1
 473 512 l 1,0,-1
202 171 m 1,12,-1
 219 171 l 2,13,14
 239 171 239 171 277.5 165 c 128,-1,15
 316 159 316 159 330.5 159 c 128,-1,16
 345 159 345 159 353 160 c 1,17,18
 367 261.5 367 261.5 399 385.5 c 2,19,-1
 403 401 l 2,20,21
 403 404 403 404 402 404 c 0,22,23
 398 404 398 404 388 390 c 1,24,-1
 202 171 l 1,12,-1
8 -3 m 1,25,-1
 -19 -7 l 2,26,27
 -25 -7 -25 -7 -25 -2.5 c 128,-1,28
 -25 2 -25 2 -11.5 6 c 128,-1,29
 2 10 2 10 15 22 c 0,30,31
 175 161 175 161 373 392 c 1,32,-1
 386.5 407.5 l 2,33,34
 392 414 392 414 397.5 418.5 c 128,-1,35
 403 423 403 423 405 425.5 c 128,-1,36
 407 428 407 428 412.5 431 c 128,-1,37
 418 434 418 434 419.5 434.5 c 128,-1,38
 421 435 421 435 428 438 c 128,-1,39
 435 441 435 441 437.5 442 c 128,-1,40
 440 443 440 443 448.5 447 c 128,-1,41
 457 451 457 451 460.5 451 c 128,-1,42
 464 451 464 451 464 447 c 2,43,-1
 464 446 l 2,44,45
 464 441 464 441 458.5 428.5 c 128,-1,46
 453 416 453 416 453 415 c 0,47,48
 416 317 416 317 396 166 c 1,49,50
 429.466 174.807 429.466 174.807 448.233 189.403 c 128,-1,51
 467 204 467 204 469 204 c 128,-1,52
 471 204 471 204 471 201 c 128,-1,53
 471 198 471 198 460 189.5 c 0,54,55
 428.913 165.478 428.913 165.478 395 157 c 1,56,57
 390 114 390 114 390 89 c 0,58,59
 390 13 390 13 422 13 c 0,60,61
 458 13 458 13 525 71 c 0,62,63
 558 100 558 100 567 113.5 c 128,-1,64
 576 127 576 127 578 127 c 128,-1,65
 580 127 580 127 580 125.5 c 128,-1,66
 580 124 580 124 579 122 c 0,67,68
 530 57 530 57 463 18 c 0,69,70
 425 -4 425 -4 394.5 -4 c 128,-1,71
 364 -4 364 -4 355 14.5 c 128,-1,72
 346 33 346 33 346 73 c 128,-1,73
 346 113 346 113 351 148 c 1,74,75
 306 143 306 143 288 143 c 128,-1,76
 270 143 270 143 237 148.5 c 128,-1,77
 204 154 204 154 196.5 154 c 128,-1,78
 189 154 189 154 186 153 c 1,79,80
 90 43 90 43 51 11 c 1,81,82
 36 -0 36 -0 8 -3 c 1,25,-1
EndSplineSet
EndChar

StartChar: Aacute
Encoding: 193 193 128
Width: 490
GlyphClass: 2
Flags: W
HStem: -7 13<-24.2584 2.28894> -4 17<379.25 434.874> 143 16<264.727 350.898> 154 17<202 256.16> 431 20G<458.75 462.25>
VStem: 346 44<15.4612 148>
LayerCount: 2
Fore
SplineSet
433 508 m 2,0,-1
 552 577 l 2,1,2
 556 580 556 580 560 580 c 0,3,4
 562 580 562 580 562 571 c 128,-1,5
 562 562 562 562 548.5 556.5 c 128,-1,6
 535 551 535 551 503.5 536 c 2,7,-1
 449.5 510.5 l 2,8,9
 427 500 427 500 424.5 500 c 128,-1,10
 422 500 422 500 422 501 c 128,-1,11
 422 502 422 502 433 508 c 2,0,-1
202 171 m 1,12,-1
 219 171 l 2,13,14
 239 171 239 171 277.5 165 c 128,-1,15
 316 159 316 159 330.5 159 c 128,-1,16
 345 159 345 159 353 160 c 1,17,18
 367 261.5 367 261.5 399 385.5 c 2,19,-1
 403 401 l 2,20,21
 403 404 403 404 402 404 c 0,22,23
 398 404 398 404 388 390 c 1,24,-1
 202 171 l 1,12,-1
8 -3 m 1,25,-1
 -19 -7 l 2,26,27
 -25 -7 -25 -7 -25 -2.5 c 128,-1,28
 -25 2 -25 2 -11.5 6 c 128,-1,29
 2 10 2 10 15 22 c 0,30,31
 175 161 175 161 373 392 c 1,32,-1
 386.5 407.5 l 2,33,34
 392 414 392 414 397.5 418.5 c 128,-1,35
 403 423 403 423 405 425.5 c 128,-1,36
 407 428 407 428 412.5 431 c 128,-1,37
 418 434 418 434 419.5 434.5 c 128,-1,38
 421 435 421 435 428 438 c 128,-1,39
 435 441 435 441 437.5 442 c 128,-1,40
 440 443 440 443 448.5 447 c 128,-1,41
 457 451 457 451 460.5 451 c 128,-1,42
 464 451 464 451 464 447 c 2,43,-1
 464 446 l 2,44,45
 464 441 464 441 458.5 428.5 c 128,-1,46
 453 416 453 416 453 415 c 0,47,48
 416 317 416 317 396 166 c 1,49,50
 429.466 174.807 429.466 174.807 448.233 189.403 c 128,-1,51
 467 204 467 204 469 204 c 128,-1,52
 471 204 471 204 471 201 c 128,-1,53
 471 198 471 198 460 189.5 c 0,54,55
 428.913 165.478 428.913 165.478 395 157 c 1,56,57
 390 114 390 114 390 89 c 0,58,59
 390 13 390 13 422 13 c 0,60,61
 458 13 458 13 525 71 c 0,62,63
 558 100 558 100 567 113.5 c 128,-1,64
 576 127 576 127 578 127 c 128,-1,65
 580 127 580 127 580 125.5 c 128,-1,66
 580 124 580 124 579 122 c 0,67,68
 530 57 530 57 463 18 c 0,69,70
 425 -4 425 -4 394.5 -4 c 128,-1,71
 364 -4 364 -4 355 14.5 c 128,-1,72
 346 33 346 33 346 73 c 128,-1,73
 346 113 346 113 351 148 c 1,74,75
 306 143 306 143 288 143 c 128,-1,76
 270 143 270 143 237 148.5 c 128,-1,77
 204 154 204 154 196.5 154 c 128,-1,78
 189 154 189 154 186 153 c 1,79,80
 90 43 90 43 51 11 c 1,81,82
 36 -0 36 -0 8 -3 c 1,25,-1
EndSplineSet
EndChar

StartChar: Acircumflex
Encoding: 194 194 129
Width: 490
GlyphClass: 2
Flags: W
HStem: -7 13<-24.2584 2.28894> -4 17<379.25 434.874> 143 16<264.727 350.898> 154 17<202 256.16> 431 20G<458.75 462.25> 563 20G<516.25 520.75>
VStem: 346 44<15.4612 148>
AnchorPoint: "Anchor-5" 530 600 basechar 0
LayerCount: 2
Fore
SplineSet
550 514 m 1,0,-1
 529 500 l 1,1,-1
 528 500 l 1,2,3
 517 528 517 528 502 559 c 1,4,-1
 406 506 l 2,5,6
 397 501 397 501 391 501 c 1,7,-1
 390 502 l 2,8,9
 390 503 390 503 399.5 509 c 0,10,11
 470.914 553.295 470.914 553.295 492.457 568.147 c 128,-1,12
 514 583 514 583 518.5 583 c 128,-1,13
 523 583 523 583 524 579 c 0,14,15
 540 534 540 534 550 514 c 1,0,-1
202 171 m 1,16,-1
 219 171 l 2,17,18
 239 171 239 171 277.5 165 c 128,-1,19
 316 159 316 159 330.5 159 c 128,-1,20
 345 159 345 159 353 160 c 1,21,22
 367 261.5 367 261.5 399 385.5 c 2,23,-1
 403 401 l 2,24,25
 403 404 403 404 402 404 c 0,26,27
 398 404 398 404 388 390 c 1,28,-1
 202 171 l 1,16,-1
8 -3 m 1,29,-1
 -19 -7 l 2,30,31
 -25 -7 -25 -7 -25 -2.5 c 128,-1,32
 -25 2 -25 2 -11.5 6 c 128,-1,33
 2 10 2 10 15 22 c 0,34,35
 175 161 175 161 373 392 c 1,36,-1
 386.5 407.5 l 2,37,38
 392 414 392 414 397.5 418.5 c 128,-1,39
 403 423 403 423 405 425.5 c 128,-1,40
 407 428 407 428 412.5 431 c 128,-1,41
 418 434 418 434 419.5 434.5 c 128,-1,42
 421 435 421 435 428 438 c 128,-1,43
 435 441 435 441 437.5 442 c 128,-1,44
 440 443 440 443 448.5 447 c 128,-1,45
 457 451 457 451 460.5 451 c 128,-1,46
 464 451 464 451 464 447 c 2,47,-1
 464 446 l 2,48,49
 464 441 464 441 458.5 428.5 c 128,-1,50
 453 416 453 416 453 415 c 0,51,52
 416 317 416 317 396 166 c 1,53,54
 429.466 174.807 429.466 174.807 448.233 189.403 c 128,-1,55
 467 204 467 204 469 204 c 128,-1,56
 471 204 471 204 471 201 c 128,-1,57
 471 198 471 198 460 189.5 c 0,58,59
 428.913 165.478 428.913 165.478 395 157 c 1,60,61
 390 114 390 114 390 89 c 0,62,63
 390 13 390 13 422 13 c 0,64,65
 458 13 458 13 525 71 c 0,66,67
 558 100 558 100 567 113.5 c 128,-1,68
 576 127 576 127 578 127 c 128,-1,69
 580 127 580 127 580 125.5 c 128,-1,70
 580 124 580 124 579 122 c 0,71,72
 530 57 530 57 463 18 c 0,73,74
 425 -4 425 -4 394.5 -4 c 128,-1,75
 364 -4 364 -4 355 14.5 c 128,-1,76
 346 33 346 33 346 73 c 128,-1,77
 346 113 346 113 351 148 c 1,78,79
 306 143 306 143 288 143 c 128,-1,80
 270 143 270 143 237 148.5 c 128,-1,81
 204 154 204 154 196.5 154 c 128,-1,82
 189 154 189 154 186 153 c 1,83,84
 90 43 90 43 51 11 c 1,85,86
 36 -0 36 -0 8 -3 c 1,29,-1
EndSplineSet
EndChar

StartChar: Atilde
Encoding: 195 195 130
Width: 490
GlyphClass: 2
Flags: W
HStem: -7 13<-24.2584 2.28894> -4 17<379.25 434.874> 143 16<264.727 350.898> 154 17<202 256.16> 431 20G<458.75 462.25> 499 17<504.5 540.968> 547 17<438.581 474>
VStem: 346 44<15.4612 148>
LayerCount: 2
Fore
SplineSet
415.5 538 m 128,-1,1
 444 564 444 564 464 564 c 128,-1,2
 484 564 484 564 501.5 540 c 128,-1,3
 519 516 519 516 535.5 516 c 128,-1,4
 552 516 552 516 580 551 c 0,5,6
 590 563 590 563 591.5 563 c 128,-1,7
 593 563 593 563 593 561 c 0,8,9
 593 551 593 551 564.5 525 c 128,-1,10
 536 499 536 499 515 499 c 128,-1,11
 494 499 494 499 476.5 523 c 128,-1,12
 459 547 459 547 443.5 547 c 128,-1,13
 428 547 428 547 400 512 c 0,14,15
 390 500 390 500 388.5 500 c 128,-1,16
 387 500 387 500 387 502 c 0,17,0
 387 512 387 512 415.5 538 c 128,-1,1
202 171 m 1,18,-1
 219 171 l 2,19,20
 239 171 239 171 277.5 165 c 128,-1,21
 316 159 316 159 330.5 159 c 128,-1,22
 345 159 345 159 353 160 c 1,23,24
 367 261.5 367 261.5 399 385.5 c 2,25,-1
 403 401 l 2,26,27
 403 404 403 404 402 404 c 0,28,29
 398 404 398 404 388 390 c 1,30,-1
 202 171 l 1,18,-1
8 -3 m 1,31,-1
 -19 -7 l 2,32,33
 -25 -7 -25 -7 -25 -2.5 c 128,-1,34
 -25 2 -25 2 -11.5 6 c 128,-1,35
 2 10 2 10 15 22 c 0,36,37
 175 161 175 161 373 392 c 1,38,-1
 386.5 407.5 l 2,39,40
 392 414 392 414 397.5 418.5 c 128,-1,41
 403 423 403 423 405 425.5 c 128,-1,42
 407 428 407 428 412.5 431 c 128,-1,43
 418 434 418 434 419.5 434.5 c 128,-1,44
 421 435 421 435 428 438 c 128,-1,45
 435 441 435 441 437.5 442 c 128,-1,46
 440 443 440 443 448.5 447 c 128,-1,47
 457 451 457 451 460.5 451 c 128,-1,48
 464 451 464 451 464 447 c 2,49,-1
 464 446 l 2,50,51
 464 441 464 441 458.5 428.5 c 128,-1,52
 453 416 453 416 453 415 c 0,53,54
 416 317 416 317 396 166 c 1,55,56
 429.466 174.807 429.466 174.807 448.233 189.403 c 128,-1,57
 467 204 467 204 469 204 c 128,-1,58
 471 204 471 204 471 201 c 128,-1,59
 471 198 471 198 460 189.5 c 0,60,61
 428.913 165.478 428.913 165.478 395 157 c 1,62,63
 390 114 390 114 390 89 c 0,64,65
 390 13 390 13 422 13 c 0,66,67
 458 13 458 13 525 71 c 0,68,69
 558 100 558 100 567 113.5 c 128,-1,70
 576 127 576 127 578 127 c 128,-1,71
 580 127 580 127 580 125.5 c 128,-1,72
 580 124 580 124 579 122 c 0,73,74
 530 57 530 57 463 18 c 0,75,76
 425 -4 425 -4 394.5 -4 c 128,-1,77
 364 -4 364 -4 355 14.5 c 128,-1,78
 346 33 346 33 346 73 c 128,-1,79
 346 113 346 113 351 148 c 1,80,81
 306 143 306 143 288 143 c 128,-1,82
 270 143 270 143 237 148.5 c 128,-1,83
 204 154 204 154 196.5 154 c 128,-1,84
 189 154 189 154 186 153 c 1,85,86
 90 43 90 43 51 11 c 1,87,88
 36 -0 36 -0 8 -3 c 1,31,-1
EndSplineSet
EndChar

